<svg xmlns="http://www.w3.org/2000/svg" xmlns:xlink="http://www.w3.org/1999/xlink" width="1300" height="1000"><g transform="translate(-183.49961125212144 -16.31203981916957)"><path d="M651 42.3a6 6 0 0 1 6-6h348a6 6 0 0 1 6 6v308a6 6 0 0 1-6 6H657a6 6 0 0 1-6-6z" fill="#fff"/><path d="M651 42.3a6 6 0 0 1 6-6h348a6 6 0 0 1 6 6v308a6 6 0 0 1-6 6H657a6 6 0 0 1-6-6zM651 76.3h360M711 76.3v280M884 76.3v280" stroke="#3a414a" fill="none"/><use xlink:href="#a" transform="matrix(1,0,0,1,660.9998999789944,36.31203981916957) translate(148.66319444444446 25.32986111111111)"/><use xlink:href="#b" transform="matrix(1,0,0,1,655.9998999789944,78.81203981916957) translate(14.331597222222223 16.82986111111111)"/><use xlink:href="#c" transform="matrix(1,0,0,1,715.9998999789944,78.81203981916957) translate(0 16.82986111111111)"/><use xlink:href="#d" transform="matrix(1,0,0,1,888.9998999789944,78.81203981916957) translate(0 16.82986111111111)"/><use xlink:href="#e" transform="matrix(1,0,0,1,715.9998999789944,106.81203981916957) translate(0 16.82986111111111)"/><use xlink:href="#f" transform="matrix(1,0,0,1,888.9998999789944,106.81203981916957) translate(0 16.82986111111111)"/><use xlink:href="#g" transform="matrix(1,0,0,1,715.9998999789944,134.81203981916957) translate(0 16.82986111111111)"/><use xlink:href="#f" transform="matrix(1,0,0,1,888.9998999789944,134.81203981916957) translate(0 16.82986111111111)"/><use xlink:href="#h" transform="matrix(1,0,0,1,715.9998999789944,162.81203981916957) translate(0 16.82986111111111)"/><use xlink:href="#f" transform="matrix(1,0,0,1,888.9998999789944,162.81203981916957) translate(0 16.82986111111111)"/><use xlink:href="#i" transform="matrix(1,0,0,1,655.9998999789944,190.81203981916957) translate(14.331597222222223 16.82986111111111)"/><use xlink:href="#j" transform="matrix(1,0,0,1,715.9998999789944,190.81203981916957) translate(0 16.82986111111111)"/><use xlink:href="#d" transform="matrix(1,0,0,1,888.9998999789944,190.81203981916957) translate(0 16.82986111111111)"/><use xlink:href="#i" transform="matrix(1,0,0,1,655.9998999789944,218.81203981916957) translate(14.331597222222223 16.82986111111111)"/><use xlink:href="#k" transform="matrix(1,0,0,1,715.9998999789944,218.81203981916957) translate(0 16.82986111111111)"/><use xlink:href="#d" transform="matrix(1,0,0,1,888.9998999789944,218.81203981916957) translate(0 16.82986111111111)"/><use xlink:href="#l" transform="matrix(1,0,0,1,715.9998999789944,246.81203981916957) translate(0 16.82986111111111)"/><use xlink:href="#m" transform="matrix(1,0,0,1,888.9998999789944,246.81203981916957) translate(0 16.82986111111111)"/><use xlink:href="#n" transform="matrix(1,0,0,1,715.9998999789944,274.81203981916957) translate(0 16.82986111111111)"/><use xlink:href="#f" transform="matrix(1,0,0,1,888.9998999789944,274.81203981916957) translate(0 16.82986111111111)"/><use xlink:href="#o" transform="matrix(1,0,0,1,715.9998999789944,302.81203981916957) translate(0 16.82986111111111)"/><use xlink:href="#f" transform="matrix(1,0,0,1,888.9998999789944,302.81203981916957) translate(0 16.82986111111111)"/><use xlink:href="#p" transform="matrix(1,0,0,1,715.9998999789944,330.81203981916957) translate(0 16.82986111111111)"/><use xlink:href="#f" transform="matrix(1,0,0,1,888.9998999789944,330.81203981916957) translate(0 16.82986111111111)"/><path d="M661 681.38a6 6 0 0 1 6-6h328a6 6 0 0 1 6 6v112a6 6 0 0 1-6 6H667a6 6 0 0 1-6-6z" fill="#fff"/><path d="M661 681.38a6 6 0 0 1 6-6h328a6 6 0 0 1 6 6v112a6 6 0 0 1-6 6H667a6 6 0 0 1-6-6zM661 715.38h340M721 715.38v84M874 715.38v84" stroke="#3a414a" fill="none"/><use xlink:href="#q" transform="matrix(1,0,0,1,670.9998999789944,675.375920361661) translate(127.99479166666667 25.32986111111111)"/><use xlink:href="#b" transform="matrix(1,0,0,1,665.9998999789944,717.875920361661) translate(14.331597222222223 16.82986111111111)"/><use xlink:href="#r" transform="matrix(1,0,0,1,725.9998999789944,717.875920361661) translate(0 16.82986111111111)"/><use xlink:href="#d" transform="matrix(1,0,0,1,878.9998999789944,717.875920361661) translate(0 16.82986111111111)"/><use xlink:href="#g" transform="matrix(1,0,0,1,725.9998999789944,745.875920361661) translate(0 16.82986111111111)"/><use xlink:href="#f" transform="matrix(1,0,0,1,878.9998999789944,745.875920361661) translate(0 16.82986111111111)"/><use xlink:href="#s" transform="matrix(1,0,0,1,725.9998999789944,773.875920361661) translate(0 16.82986111111111)"/><use xlink:href="#f" transform="matrix(1,0,0,1,878.9998999789944,773.875920361661) translate(0 16.82986111111111)"/><path d="M661 561.7a6 6 0 0 1 6-6h328a6 6 0 0 1 6 6v84a6 6 0 0 1-6 6H667a6 6 0 0 1-6-6z" fill="#fff"/><path d="M661 561.7a6 6 0 0 1 6-6h328a6 6 0 0 1 6 6v84a6 6 0 0 1-6 6H667a6 6 0 0 1-6-6zM661 595.7h340M745 595.7v56M873.63 595.7v56" stroke="#3a414a" fill="none"/><use xlink:href="#t" transform="matrix(1,0,0,1,670.9998999789944,555.6879601808305) translate(85.32118055555559 25.32986111111111)"/><use xlink:href="#u" transform="matrix(1,0,0,1,665.9998999789944,598.1879601808305) translate(15.663194444444446 16.82986111111111)"/><use xlink:href="#v" transform="matrix(1,0,0,1,749.9998999789944,598.1879601808305) translate(0 16.82986111111111)"/><use xlink:href="#d" transform="matrix(1,0,0,1,878.6338011038539,598.1879601808305) translate(0 16.82986111111111)"/><use xlink:href="#u" transform="matrix(1,0,0,1,665.9998999789944,626.1879601808305) translate(15.663194444444446 16.82986111111111)"/><use xlink:href="#w" transform="matrix(1,0,0,1,749.9998999789944,626.1879601808305) translate(0 16.82986111111111)"/><use xlink:href="#d" transform="matrix(1,0,0,1,878.6338011038539,626.1879601808305) translate(0 16.82986111111111)"/><path d="M640.5 729.35h-14a6 6 0 0 1-6-6V615.7a6 6 0 0 1 6-6h14.6" stroke="#3a414a" fill="none"/><path d="M640.5 719.35v20M660.5 729.35h-20" stroke="#3a414a" fill="#fff"/><path d="M660.28 619.7l-20-10 20-10" stroke="#3a414a" fill="#fff" fill-opacity="0"/><path d="M660.28 609.7h-20" stroke="#3a414a" fill="#fff"/><path d="M204 505.35a6 6 0 0 1 6-6h328a6 6 0 0 1 6 6v196a6 6 0 0 1-6 6H210a6 6 0 0 1-6-6z" fill="#fff"/><path d="M204 505.35a6 6 0 0 1 6-6h328a6 6 0 0 1 6 6v196a6 6 0 0 1-6 6H210a6 6 0 0 1-6-6zM204 539.35h340M288 539.35v168M417 539.35v168" stroke="#3a414a" fill="none"/><use xlink:href="#x" transform="matrix(1,0,0,1,213.99956839497872,499.35135838603605) translate(127.99479166666667 25.32986111111111)"/><use xlink:href="#b" transform="matrix(1,0,0,1,208.99956839497872,541.851358386036) translate(26.33159722222222 16.82986111111111)"/><use xlink:href="#y" transform="matrix(1,0,0,1,292.9995683949787,541.851358386036) translate(0 16.82986111111111)"/><use xlink:href="#d" transform="matrix(1,0,0,1,421.9995683949787,541.851358386036) translate(0 16.82986111111111)"/><use xlink:href="#i" transform="matrix(1,0,0,1,208.99956839497872,569.851358386036) translate(26.33159722222222 16.82986111111111)"/><use xlink:href="#z" transform="matrix(1,0,0,1,292.9995683949787,569.851358386036) translate(0 16.82986111111111)"/><use xlink:href="#d" transform="matrix(1,0,0,1,421.9995683949787,569.851358386036) translate(0 16.82986111111111)"/><use xlink:href="#i" transform="matrix(1,0,0,1,208.99956839497872,597.851358386036) translate(26.33159722222222 16.82986111111111)"/><use xlink:href="#A" transform="matrix(1,0,0,1,292.9995683949787,597.851358386036) translate(0 16.82986111111111)"/><use xlink:href="#d" transform="matrix(1,0,0,1,421.9995683949787,597.851358386036) translate(0 16.82986111111111)"/><use xlink:href="#i" transform="matrix(1,0,0,1,208.99956839497872,625.851358386036) translate(26.33159722222222 16.82986111111111)"/><use xlink:href="#B" transform="matrix(1,0,0,1,292.9995683949787,625.851358386036) translate(0 16.82986111111111)"/><use xlink:href="#d" transform="matrix(1,0,0,1,421.9995683949787,625.851358386036) translate(0 16.82986111111111)"/><use xlink:href="#C" transform="matrix(1,0,0,1,292.9995683949787,653.851358386036) translate(0 16.82986111111111)"/><use xlink:href="#f" transform="matrix(1,0,0,1,421.9995683949787,653.851358386036) translate(0 16.82986111111111)"/><use xlink:href="#D" transform="matrix(1,0,0,1,292.9995683949787,681.851358386036) translate(0 16.82986111111111)"/><use xlink:href="#E" transform="matrix(1,0,0,1,421.9995683949787,681.851358386036) translate(0 16.82986111111111)"/><path d="M203.5 736.82a6 6 0 0 1 6-6h328a6 6 0 0 1 6 6v84a6 6 0 0 1-6 6h-328a6 6 0 0 1-6-6z" fill="#fff"/><path d="M203.5 736.82a6 6 0 0 1 6-6h328a6 6 0 0 1 6 6v84a6 6 0 0 1-6 6h-328a6 6 0 0 1-6-6zM203.5 770.82h340M287.5 770.82v56M416.5 770.82v56" stroke="#3a414a" fill="none"/><use xlink:href="#F" transform="matrix(1,0,0,1,213.49961125212144,730.8238012149336) translate(106.65798611111113 25.32986111111111)"/><use xlink:href="#b" transform="matrix(1,0,0,1,208.49961125212144,773.3238012149336) translate(26.33159722222222 16.82986111111111)"/><use xlink:href="#B" transform="matrix(1,0,0,1,292.49961125212144,773.3238012149336) translate(0 16.82986111111111)"/><use xlink:href="#d" transform="matrix(1,0,0,1,421.49961125212144,773.3238012149336) translate(0 16.82986111111111)"/><use xlink:href="#g" transform="matrix(1,0,0,1,292.49961125212144,801.3238012149336) translate(0 16.82986111111111)"/><use xlink:href="#f" transform="matrix(1,0,0,1,421.49961125212144,801.3238012149336) translate(0 16.82986111111111)"/><path d="M564 784.84h10a6 6 0 0 0 6-6v-135.4a6 6 0 0 0-6-6h-10.1" stroke="#3a414a" fill="none"/><path d="M564 794.84v-20M544 784.84h20" stroke="#3a414a" fill="#fff"/><path d="M544.72 627.45l20 10-20 10" stroke="#3a414a" fill="#fff" fill-opacity="0"/><path d="M544.72 637.45h20" stroke="#3a414a" fill="#fff"/><path d="M630.5 90.3h-24a6 6 0 0 0-6 6v479a6 6 0 0 1-6 6h-30.6" stroke="#3a414a" fill="none"/><path d="M630.5 80.3v20M650.5 90.3h-20" stroke="#3a414a" fill="#fff"/><path d="M544.72 571.3l20 10-20 10" stroke="#3a414a" fill="#fff" fill-opacity="0"/><path d="M544.72 581.3h20" stroke="#3a414a" fill="#fff"/><path d="M630.5 90.3h-24a6 6 0 0 0-6 6v507.07a6 6 0 0 1-6 6h-30.6" stroke="#3a414a" fill="none"/><path d="M630.5 80.3v20M650.5 90.3h-20" stroke="#3a414a" fill="#fff"/><path d="M544.72 599.37l20 10-20 10" stroke="#3a414a" fill="#fff" fill-opacity="0"/><path d="M544.72 609.37h20" stroke="#3a414a" fill="#fff"/><path d="M204 357.88a6 6 0 0 1 6-6h328a6 6 0 0 1 6 6v112a6 6 0 0 1-6 6H210a6 6 0 0 1-6-6z" fill="#fff"/><path d="M204 357.88a6 6 0 0 1 6-6h328a6 6 0 0 1 6 6v112a6 6 0 0 1-6 6H210a6 6 0 0 1-6-6zM204 391.88h340M288 391.88v84M417 391.88v84" stroke="#3a414a" fill="none"/><use xlink:href="#G" transform="matrix(1,0,0,1,213.99956839497872,351.87891555713855) translate(85.32118055555559 25.32986111111111)"/><use xlink:href="#u" transform="matrix(1,0,0,1,208.99956839497872,394.37891555713855) translate(15.663194444444446 16.82986111111111)"/><use xlink:href="#H" transform="matrix(1,0,0,1,292.9995683949787,394.37891555713855) translate(0 16.82986111111111)"/><use xlink:href="#d" transform="matrix(1,0,0,1,421.9995683949787,394.37891555713855) translate(0 16.82986111111111)"/><use xlink:href="#u" transform="matrix(1,0,0,1,208.99956839497872,422.37891555713855) translate(15.663194444444446 16.82986111111111)"/><use xlink:href="#I" transform="matrix(1,0,0,1,292.9995683949787,422.37891555713855) translate(0 16.82986111111111)"/><use xlink:href="#d" transform="matrix(1,0,0,1,421.9995683949787,422.37891555713855) translate(0 16.82986111111111)"/><use xlink:href="#J" transform="matrix(1,0,0,1,292.9995683949787,450.37891555713855) translate(0 16.82986111111111)"/><use xlink:href="#E" transform="matrix(1,0,0,1,421.9995683949787,450.37891555713855) translate(0 16.82986111111111)"/><path d="M203.5 182.4a6 6 0 0 1 6-6h328a6 6 0 0 1 6 6v140a6 6 0 0 1-6 6h-328a6 6 0 0 1-6-6z" fill="#fff"/><path d="M203.5 182.4a6 6 0 0 1 6-6h328a6 6 0 0 1 6 6v140a6 6 0 0 1-6 6h-328a6 6 0 0 1-6-6zM203.5 216.4h340M287.5 216.4v112M416.5 216.4v112" stroke="#3a414a" fill="none"/><use xlink:href="#K" transform="matrix(1,0,0,1,213.49961125212144,176.406472728241) translate(90.65538194444447 25.32986111111111)"/><use xlink:href="#b" transform="matrix(1,0,0,1,208.49961125212144,218.906472728241) translate(26.33159722222222 16.82986111111111)"/><use xlink:href="#L" transform="matrix(1,0,0,1,292.49961125212144,218.906472728241) translate(0 16.82986111111111)"/><use xlink:href="#d" transform="matrix(1,0,0,1,421.49961125212144,218.906472728241) translate(0 16.82986111111111)"/><use xlink:href="#M" transform="matrix(1,0,0,1,292.49961125212144,246.906472728241) translate(0 16.82986111111111)"/><use xlink:href="#N" transform="matrix(1,0,0,1,421.49961125212144,246.906472728241) translate(0 16.82986111111111)"/><use xlink:href="#O" transform="matrix(1,0,0,1,292.49961125212144,274.906472728241) translate(0 16.82986111111111)"/><use xlink:href="#N" transform="matrix(1,0,0,1,421.49961125212144,274.906472728241) translate(0 16.82986111111111)"/><use xlink:href="#g" transform="matrix(1,0,0,1,292.49961125212144,302.906472728241) translate(0 16.82986111111111)"/><use xlink:href="#f" transform="matrix(1,0,0,1,421.49961125212144,302.906472728241) translate(0 16.82986111111111)"/><path d="M564 230.4h67.09" stroke="#3a414a" fill="none"/><path d="M564 240.4v-20M544 230.4h20" stroke="#3a414a" fill="#fff"/><path d="M650.27 240.4l-20-10 20-10" stroke="#3a414a" fill="#fff" fill-opacity="0"/><path d="M650.27 230.4h-20" stroke="#3a414a" fill="#fff"/><path d="M1118 42.3a6 6 0 0 1 6-6h328a6 6 0 0 1 6 6v112a6 6 0 0 1-6 6h-328a6 6 0 0 1-6-6z" fill="#fff"/><path d="M1118 42.3a6 6 0 0 1 6-6h328a6 6 0 0 1 6 6v112a6 6 0 0 1-6 6h-328a6 6 0 0 1-6-6zM1118 76.3h340M1202 76.3v84M1331 76.3v84" stroke="#3a414a" fill="none"/><use xlink:href="#P" transform="matrix(1,0,0,1,1128.0002315630102,36.31203981916957) translate(117.3263888888889 25.32986111111111)"/><use xlink:href="#Q" transform="matrix(1,0,0,1,1123.0002315630102,78.81203981916957) translate(20.997395833333336 16.82986111111111)"/><use xlink:href="#R" transform="matrix(1,0,0,1,1207.0002315630102,78.81203981916957) translate(0 16.82986111111111)"/><use xlink:href="#d" transform="matrix(1,0,0,1,1336.0002315630102,78.81203981916957) translate(0 16.82986111111111)"/><use xlink:href="#S" transform="matrix(1,0,0,1,1207.0002315630102,106.81203981916957) translate(0 16.82986111111111)"/><use xlink:href="#T" transform="matrix(1,0,0,1,1336.0002315630102,106.81203981916957) translate(0 16.82986111111111)"/><use xlink:href="#U" transform="matrix(1,0,0,1,1207.0002315630102,134.81203981916957) translate(0 16.82986111111111)"/><use xlink:href="#f" transform="matrix(1,0,0,1,1336.0002315630102,134.81203981916957) translate(0 16.82986111111111)"/><path d="M1118 188.16a6 6 0 0 1 6-6h328a6 6 0 0 1 6 6v140a6 6 0 0 1-6 6h-328a6 6 0 0 1-6-6z" fill="#fff"/><path d="M1118 188.16a6 6 0 0 1 6-6h328a6 6 0 0 1 6 6v140a6 6 0 0 1-6 6h-328a6 6 0 0 1-6-6zM1118 222.16h340M1202 222.16v112M1331 222.16v112" stroke="#3a414a" fill="none"/><use xlink:href="#V" transform="matrix(1,0,0,1,1128.0002315630102,182.15601990958478) translate(117.3263888888889 25.32986111111111)"/><use xlink:href="#Q" transform="matrix(1,0,0,1,1123.0002315630102,224.65601990958478) translate(20.997395833333336 16.82986111111111)"/><use xlink:href="#w" transform="matrix(1,0,0,1,1207.0002315630102,224.65601990958478) translate(0 16.82986111111111)"/><use xlink:href="#W" transform="matrix(1,0,0,1,1336.0002315630102,224.65601990958478) translate(0 16.82986111111111)"/><use xlink:href="#X" transform="matrix(1,0,0,1,1207.0002315630102,252.65601990958478) translate(0 16.82986111111111)"/><use xlink:href="#Y" transform="matrix(1,0,0,1,1336.0002315630102,252.65601990958478) translate(0 16.82986111111111)"/><use xlink:href="#Z" transform="matrix(1,0,0,1,1207.0002315630102,280.65601990958476) translate(0 16.82986111111111)"/><use xlink:href="#Y" transform="matrix(1,0,0,1,1336.0002315630102,280.65601990958476) translate(0 16.82986111111111)"/><use xlink:href="#aa" transform="matrix(1,0,0,1,1207.0002315630102,308.65601990958476) translate(0 16.82986111111111)"/><use xlink:href="#T" transform="matrix(1,0,0,1,1336.0002315630102,308.65601990958476) translate(0 16.82986111111111)"/><path d="M1118 362.3a6 6 0 0 1 6-6h328a6 6 0 0 1 6 6v140a6 6 0 0 1-6 6h-328a6 6 0 0 1-6-6z" fill="#fff"/><path d="M1118 362.3a6 6 0 0 1 6-6h328a6 6 0 0 1 6 6v140a6 6 0 0 1-6 6h-328a6 6 0 0 1-6-6zM1118 396.3h340M1202 396.3v112M1331 396.3v112" stroke="#3a414a" fill="none"/><use xlink:href="#ab" transform="matrix(1,0,0,1,1128.0002315630102,356.31203981916957) translate(138.66319444444446 25.32986111111111)"/><use xlink:href="#Q" transform="matrix(1,0,0,1,1123.0002315630102,398.81203981916957) translate(20.997395833333336 16.82986111111111)"/><use xlink:href="#R" transform="matrix(1,0,0,1,1207.0002315630102,398.81203981916957) translate(0 16.82986111111111)"/><use xlink:href="#d" transform="matrix(1,0,0,1,1336.0002315630102,398.81203981916957) translate(0 16.82986111111111)"/><use xlink:href="#ac" transform="matrix(1,0,0,1,1207.0002315630102,426.81203981916957) translate(0 16.82986111111111)"/><use xlink:href="#T" transform="matrix(1,0,0,1,1336.0002315630102,426.81203981916957) translate(0 16.82986111111111)"/><use xlink:href="#ad" transform="matrix(1,0,0,1,1207.0002315630102,454.81203981916957) translate(0 16.82986111111111)"/><use xlink:href="#f" transform="matrix(1,0,0,1,1336.0002315630102,454.81203981916957) translate(0 16.82986111111111)"/><use xlink:href="#ae" transform="matrix(1,0,0,1,1207.0002315630102,482.81203981916957) translate(0 16.82986111111111)"/><use xlink:href="#f" transform="matrix(1,0,0,1,1336.0002315630102,482.81203981916957) translate(0 16.82986111111111)"/><path d="M1118 682.14a6 6 0 0 1 6-6h328a6 6 0 0 1 6 6v112a6 6 0 0 1-6 6h-328a6 6 0 0 1-6-6z" fill="#fff"/><path d="M1118 682.14a6 6 0 0 1 6-6h328a6 6 0 0 1 6 6v112a6 6 0 0 1-6 6h-328a6 6 0 0 1-6-6zM1118 716.14h340M1202 716.14v84M1331 716.14v84" stroke="#3a414a" fill="none"/><use xlink:href="#af" transform="matrix(1,0,0,1,1128.0002315630102,676.1454228503591) translate(138.66319444444446 25.32986111111111)"/><use xlink:href="#Q" transform="matrix(1,0,0,1,1123.0002315630102,718.6454228503591) translate(20.997395833333336 16.82986111111111)"/><use xlink:href="#R" transform="matrix(1,0,0,1,1207.0002315630102,718.6454228503591) translate(0 16.82986111111111)"/><use xlink:href="#d" transform="matrix(1,0,0,1,1336.0002315630102,718.6454228503591) translate(0 16.82986111111111)"/><use xlink:href="#ag" transform="matrix(1,0,0,1,1207.0002315630102,746.6454228503591) translate(0 16.82986111111111)"/><use xlink:href="#T" transform="matrix(1,0,0,1,1336.0002315630102,746.6454228503591) translate(0 16.82986111111111)"/><use xlink:href="#ah" transform="matrix(1,0,0,1,1207.0002315630102,774.6454228503591) translate(0 16.82986111111111)"/><use xlink:href="#f" transform="matrix(1,0,0,1,1336.0002315630102,774.6454228503591) translate(0 16.82986111111111)"/><path d="M1118 536.23a6 6 0 0 1 6-6h328a6 6 0 0 1 6 6v112a6 6 0 0 1-6 6h-328a6 6 0 0 1-6-6z" fill="#fff"/><path d="M1118 536.23a6 6 0 0 1 6-6h328a6 6 0 0 1 6 6v112a6 6 0 0 1-6 6h-328a6 6 0 0 1-6-6zM1118 570.23h340M1202 570.23v84M1331 570.23v84" stroke="#3a414a" fill="none"/><use xlink:href="#ai" transform="matrix(1,0,0,1,1128.0002315630102,530.2287313347643) translate(127.99479166666667 25.32986111111111)"/><use xlink:href="#Q" transform="matrix(1,0,0,1,1123.0002315630102,572.7287313347643) translate(20.997395833333336 16.82986111111111)"/><use xlink:href="#R" transform="matrix(1,0,0,1,1207.0002315630102,572.7287313347643) translate(0 16.82986111111111)"/><use xlink:href="#d" transform="matrix(1,0,0,1,1336.0002315630102,572.7287313347643) translate(0 16.82986111111111)"/><use xlink:href="#aj" transform="matrix(1,0,0,1,1207.0002315630102,600.7287313347643) translate(0 16.82986111111111)"/><use xlink:href="#T" transform="matrix(1,0,0,1,1336.0002315630102,600.7287313347643) translate(0 16.82986111111111)"/><use xlink:href="#ak" transform="matrix(1,0,0,1,1207.0002315630102,628.7287313347643) translate(0 16.82986111111111)"/><use xlink:href="#f" transform="matrix(1,0,0,1,1336.0002315630102,628.7287313347643) translate(0 16.82986111111111)"/><path d="M630.5 90.3h-24a6 6 0 0 0-6 6V399.9a6 6 0 0 1-6 6h-30.6" stroke="#3a414a" fill="none"/><path d="M630.5 80.3v20M650.5 90.3h-20" stroke="#3a414a" fill="#fff"/><path d="M544.72 395.88l20 10-20 10" stroke="#3a414a" fill="#fff" fill-opacity="0"/><path d="M544.72 405.88h20" stroke="#3a414a" fill="#fff"/><path d="M630.5 90.3h-24a6 6 0 0 0-6 6V427.9a6 6 0 0 1-6 6h-30.6" stroke="#3a414a" fill="none"/><path d="M630.5 80.3v20M650.5 90.3h-20" stroke="#3a414a" fill="#fff"/><path d="M544.72 423.88l20 10-20 10" stroke="#3a414a" fill="#fff" fill-opacity="0"/><path d="M544.72 433.88h20" stroke="#3a414a" fill="#fff"/><path d="M1118 829.06a6 6 0 0 1 6-6h328a6 6 0 0 1 6 6v140a6 6 0 0 1-6 6h-328a6 6 0 0 1-6-6z" fill="#fff"/><path d="M1118 829.06a6 6 0 0 1 6-6h328a6 6 0 0 1 6 6v140a6 6 0 0 1-6 6h-328a6 6 0 0 1-6-6zM1118 863.06h340M1202 863.06v112M1331 863.06v112" stroke="#3a414a" fill="none"/><use xlink:href="#al" transform="matrix(1,0,0,1,1128.0002315630102,823.0638805424915) translate(95.98958333333336 25.32986111111111)"/><use xlink:href="#Q" transform="matrix(1,0,0,1,1123.0002315630102,865.5638805424915) translate(20.997395833333336 16.82986111111111)"/><use xlink:href="#R" transform="matrix(1,0,0,1,1207.0002315630102,865.5638805424915) translate(0 16.82986111111111)"/><use xlink:href="#d" transform="matrix(1,0,0,1,1336.0002315630102,865.5638805424915) translate(0 16.82986111111111)"/><use xlink:href="#S" transform="matrix(1,0,0,1,1207.0002315630102,893.5638805424915) translate(0 16.82986111111111)"/><use xlink:href="#T" transform="matrix(1,0,0,1,1336.0002315630102,893.5638805424915) translate(0 16.82986111111111)"/><use xlink:href="#U" transform="matrix(1,0,0,1,1207.0002315630102,921.5638805424915) translate(0 16.82986111111111)"/><use xlink:href="#f" transform="matrix(1,0,0,1,1336.0002315630102,921.5638805424915) translate(0 16.82986111111111)"/><use xlink:href="#am" transform="matrix(1,0,0,1,1207.0002315630102,949.5638805424915) translate(0 16.82986111111111)"/><use xlink:href="#an" transform="matrix(1,0,0,1,1336.0002315630102,949.5638805424915) translate(0 16.82986111111111)"/><path d="M203.5 62.8a6 6 0 0 1 6-6h328a6 6 0 0 1 6 6v84a6 6 0 0 1-6 6h-328a6 6 0 0 1-6-6z" fill="#fff"/><path d="M203.5 62.8a6 6 0 0 1 6-6h328a6 6 0 0 1 6 6v84a6 6 0 0 1-6 6h-328a6 6 0 0 1-6-6zM203.5 96.8h340M287.5 96.8v56M416.5 96.8v56" stroke="#3a414a" fill="none"/><use xlink:href="#ao" transform="matrix(1,0,0,1,213.49961125212144,56.812945456482055) translate(127.99479166666667 25.32986111111111)"/><use xlink:href="#b" transform="matrix(1,0,0,1,208.49961125212144,99.31294545648205) translate(26.33159722222222 16.82986111111111)"/><use xlink:href="#ap" transform="matrix(1,0,0,1,292.49961125212144,99.31294545648205) translate(0 16.82986111111111)"/><use xlink:href="#d" transform="matrix(1,0,0,1,421.49961125212144,99.31294545648205) translate(0 16.82986111111111)"/><use xlink:href="#g" transform="matrix(1,0,0,1,292.49961125212144,127.31294545648205) translate(0 16.82986111111111)"/><use xlink:href="#f" transform="matrix(1,0,0,1,421.49961125212144,127.31294545648205) translate(0 16.82986111111111)"/><path d="M564 110.83h10a6 6 0 0 1 6 6v79.5a6 6 0 0 0 6 6h45.1" stroke="#3a414a" fill="none"/><path d="M564 120.83v-20M544 110.83h20" stroke="#3a414a" fill="#fff"/><path d="M650.28 212.33l-20-10 20-10" stroke="#3a414a" fill="#fff" fill-opacity="0"/><path d="M650.28 202.33h-20" stroke="#3a414a" fill="#fff"/><path d="M661 386a6 6 0 0 1 6-6h328a6 6 0 0 1 6 6v140a6 6 0 0 1-6 6H667a6 6 0 0 1-6-6z" fill="#fff"/><path d="M661 386a6 6 0 0 1 6-6h328a6 6 0 0 1 6 6v140a6 6 0 0 1-6 6H667a6 6 0 0 1-6-6zM661 420h340M745 420v112M874 420v112" stroke="#3a414a" fill="none"/><use xlink:href="#aq" transform="matrix(1,0,0,1,670.9998999789944,380) translate(127.99479166666667 25.32986111111111)"/><use xlink:href="#ar" transform="matrix(1,0,0,1,665.9998999789944,422.5) translate(26.33159722222222 16.82986111111111)"/><use xlink:href="#w" transform="matrix(1,0,0,1,749.9998999789944,422.5) translate(0 16.82986111111111)"/><use xlink:href="#W" transform="matrix(1,0,0,1,878.9998999789944,422.5) translate(0 16.82986111111111)"/><use xlink:href="#as" transform="matrix(1,0,0,1,665.9998999789944,450.5) translate(26.33159722222222 16.82986111111111)"/><use xlink:href="#at" transform="matrix(1,0,0,1,749.9998999789944,450.5) translate(0 16.82986111111111)"/><use xlink:href="#W" transform="matrix(1,0,0,1,878.9998999789944,450.5) translate(0 16.82986111111111)"/><use xlink:href="#au" transform="matrix(1,0,0,1,749.9998999789944,478.5) translate(0 16.82986111111111)"/><use xlink:href="#av" transform="matrix(1,0,0,1,878.9998999789944,478.5) translate(0 16.82986111111111)"/><use xlink:href="#aw" transform="matrix(1,0,0,1,749.9998999789944,506.5) translate(0 16.82986111111111)"/><use xlink:href="#W" transform="matrix(1,0,0,1,878.9998999789944,506.5) translate(0 16.82986111111111)"/><path d="M1097.5 236.1h-32a6 6 0 0 0-6 6v185.84a6 6 0 0 1-6 6h-32" stroke="#3a414a" fill="none"/><path d="M1097.5 226.1v20M1117.5 236.1h-20M1021.5 443.94v-20M1001.5 433.94h20" stroke="#3a414a" fill="#fff"/><path d="M1021.5 433.94h32a6 6 0 0 0 6-6v-11.7a6 6 0 0 1 6-6h32" stroke="#3a414a" fill="none"/><path d="M1021.5 443.94v-20M1001.5 433.94h20M1097.5 400.25v20M1117.5 410.25h-20" stroke="#3a414a" fill="#fff"/><path d="M1021.5 433.94h32a6 6 0 0 1 6 6V578.2a6 6 0 0 0 6 6h32" stroke="#3a414a" fill="none"/><path d="M1021.5 443.94v-20M1001.5 433.94h20M1097.5 574.2v20M1117.5 584.2h-20" stroke="#3a414a" fill="#fff"/><path d="M1021.5 433.94h32a6 6 0 0 1 6 6V871a6 6 0 0 0 6 6h32" stroke="#3a414a" fill="none"/><path d="M1021.5 443.94v-20M1001.5 433.94h20M1097.5 867v20M1117.5 877h-20" stroke="#3a414a" fill="#fff"/><path d="M630.5 90.02H606a6 6 0 0 0-6 6v360a6 6 0 0 0 6 6h35.1" stroke="#3a414a" fill="none"/><path d="M630.5 80.02v20M650.5 90.02h-20" stroke="#3a414a" fill="#fff"/><path d="M660.28 472.02l-20-10 20-10" stroke="#3a414a" fill="#fff" fill-opacity="0"/><path d="M660.28 462.02h-20" stroke="#3a414a" fill="#fff"/><path d="M1021.5 433.94h32a6 6 0 0 0 6-6V96.3a6 6 0 0 1 6-6h32" stroke="#3a414a" fill="none"/><path d="M1021.5 443.94v-20M1001.5 433.94h20M1097.5 80.3v20M1117.5 90.3h-20" stroke="#3a414a" fill="#fff"/><path d="M1021.5 433.94h32a6 6 0 0 1 6 6V724.1a6 6 0 0 0 6 6h32" stroke="#3a414a" fill="none"/><path d="M1021.5 443.94v-20M1001.5 433.94h20M1097.5 720.12v20M1117.5 730.12h-20" stroke="#3a414a" fill="#fff"/><path d="M1021.5 433.94h32.5a6 6 0 0 1 6 6V631.8a6 6 0 0 1-6 6h-33.1" stroke="#3a414a" fill="none"/><path d="M1021.5 443.94v-20M1001.5 433.94h20" stroke="#3a414a" fill="#fff"/><path d="M1001.72 627.8l20 10-20 10" stroke="#3a414a" fill="#fff" fill-opacity="0"/><path d="M1001.72 637.8h20" stroke="#3a414a" fill="#fff"/><defs><path fill="#3a414a" d="M604-135c236 0 291-142 291-376v-838h190v859c5 340-142 510-480 510-326 0-463-164-463-492v-877h191v851c-3 222 46 363 271 363" id="ax"/><path fill="#3a414a" d="M873-819c-18-114-119-146-250-146-163 0-245 50-245 151 0 151 170 148 294 185 182 54 388 94 388 320 0 240-189 325-439 329-245 4-410-69-454-268l159-31c24 133 136 168 295 165 144-2 270-31 270-171 0-164-195-160-331-202-167-52-350-87-350-299 0-218 173-315 413-313 220 2 373 77 412 260" id="ay"/><path fill="#3a414a" d="M617-1102c355 0 481 238 477 599H322c5 222 84 388 301 388 144 0 244-59 284-166l158 45C1002-72 854 20 623 20c-342 0-490-220-490-568 0-346 151-554 484-554zm291 461c-18-192-90-328-289-328-194 0-287 128-295 328h584" id="az"/><path fill="#3a414a" d="M839-1102c70 0 148 7 206 17v167c-112-18-268-36-363 15-129 69-208 203-208 395V0H294c-10-367 32-789-52-1082h171c21 75 41 161 48 250h5c67-152 152-270 373-270" id="aA"/><g id="a"><use transform="matrix(0.008680555555555554,0,0,0.008680555555555554,0,0)" xlink:href="#ax"/><use transform="matrix(0.008680555555555554,0,0,0.008680555555555554,10.668402777777777,0)" xlink:href="#ay"/><use transform="matrix(0.008680555555555554,0,0,0.008680555555555554,21.336805555555554,0)" xlink:href="#az"/><use transform="matrix(0.008680555555555554,0,0,0.008680555555555554,32.00520833333333,0)" xlink:href="#aA"/></g><path fill="#3a414a" d="M622-1349c296 4 497 117 497 404 0 282-193 424-485 431H353V0H162v-1349h460zm-15 684c195-3 320-88 320-277 0-184-129-255-328-254H353v531h254" id="aB"/><path fill="#3a414a" d="M1003 0L516-638 353-469V0H162v-1349h191v673l572-673h225L646-777 1227 0h-224" id="aC"/><g id="b"><use transform="matrix(0.008680555555555554,0,0,0.008680555555555554,0,0)" xlink:href="#aB"/><use transform="matrix(0.008680555555555554,0,0,0.008680555555555554,10.668402777777777,0)" xlink:href="#aC"/></g><path fill="#3a414a" d="M528 20c-247 0-343-132-343-381v-721h180v686c-4 177 45 284 224 277 194-8 279-136 279-336v-627h181c3 360-6 732 6 1082H885c-4-54-7-126-8-185h-3C809-64 714 20 528 20" id="aD"/><path fill="#3a414a" d="M-5 220v-96h1238v96H-5" id="aE"/><path fill="#3a414a" d="M745-142h380V0H143v-142h422v-798H246v-142h499v940zM545-1292v-192h200v192H545" id="aF"/><path fill="#3a414a" d="M865-914c-3-187-2-380-2-570h180v1261c0 76 1 155 6 223H877c-8-49-9-116-10-174h-5C801-44 708 26 530 26c-135 0-234-46-297-139s-95-232-95-419c0-377 131-566 392-566 176 0 271 63 335 184zm-286-51c-222 0-255 197-255 427 0 229 31 425 253 425 237 0 286-195 286-441 0-238-52-411-284-411" id="aG"/><g id="c"><use transform="matrix(0.008680555555555554,0,0,0.008680555555555554,0,0)" xlink:href="#aD"/><use transform="matrix(0.008680555555555554,0,0,0.008680555555555554,10.668402777777777,0)" xlink:href="#ay"/><use transform="matrix(0.008680555555555554,0,0,0.008680555555555554,21.336805555555554,0)" xlink:href="#az"/><use transform="matrix(0.008680555555555554,0,0,0.008680555555555554,32.00520833333333,0)" xlink:href="#aA"/><use transform="matrix(0.008680555555555554,0,0,0.008680555555555554,42.67361111111111,0)" xlink:href="#aE"/><use transform="matrix(0.008680555555555554,0,0,0.008680555555555554,53.342013888888886,0)" xlink:href="#aF"/><use transform="matrix(0.008680555555555554,0,0,0.008680555555555554,64.01041666666666,0)" xlink:href="#aG"/></g><path fill="#3a414a" d="M202-1349h823v156H709v1037h316V0H202v-156h316v-1037H202v-156" id="aH"/><path fill="#3a414a" d="M912-211c-10-84-18-177-18-274v-864h172V0H836L316-1130c7 79 16 167 16 254V0H162v-1349h222" id="aI"/><path fill="#3a414a" d="M709-1193V0H519v-1193H76v-156h1076v156H709" id="aJ"/><path fill="#3a414a" d="M162 0v-1349h919v156H353v422h668v154H353v461h769V0H162" id="aK"/><path fill="#3a414a" d="M655-135c108 0 195-33 260-74v-336H622v-160h479v572C981-54 839 20 639 20c-388 0-526-306-526-701 0-406 129-689 529-689 261 0 392 137 461 331l-171 56c-47-131-122-231-288-231-281 0-330 245-330 533 0 179 28 314 84 407s142 139 257 139" id="aL"/><path fill="#3a414a" d="M1121-976c0 225-142 341-344 379L1177 0H957L591-575H353V0H162v-1349h482c281 3 477 100 477 373zM633-726c181-1 296-73 296-247 0-149-101-223-304-223H353v470h280" id="aM"/><g id="d"><use transform="matrix(0.008680555555555554,0,0,0.008680555555555554,0,0)" xlink:href="#aH"/><use transform="matrix(0.008680555555555554,0,0,0.008680555555555554,10.668402777777777,0)" xlink:href="#aI"/><use transform="matrix(0.008680555555555554,0,0,0.008680555555555554,21.336805555555554,0)" xlink:href="#aJ"/><use transform="matrix(0.008680555555555554,0,0,0.008680555555555554,32.00520833333333,0)" xlink:href="#aK"/><use transform="matrix(0.008680555555555554,0,0,0.008680555555555554,42.67361111111111,0)" xlink:href="#aL"/><use transform="matrix(0.008680555555555554,0,0,0.008680555555555554,53.342013888888886,0)" xlink:href="#aK"/><use transform="matrix(0.008680555555555554,0,0,0.008680555555555554,64.01041666666666,0)" xlink:href="#aM"/></g><path fill="#3a414a" d="M904-1102c199 0 220 177 220 381V0H956v-686c-3-114 0-215-60-264-70-33-125-4-158 71-26 56-39 140-39 252V0H531v-686c-3-114-1-215-61-264-78-41-136 24-157 84-24 69-39 159-39 259V0H105c-3-360 6-732-6-1082h149c6 50 3 123 8 175 36-100 83-195 216-195 135 0 166 79 196 196 42-105 93-196 236-196" id="aN"/><path fill="#3a414a" d="M1000-272c3 95 12 159 101 161 21 0 41-3 59-7V-6c-44 10-86 16-139 16-141 2-191-84-197-217h-6C748-76 648 20 446 20c-207 0-318-120-318-322 0-266 194-348 454-354l236-4c12-191-40-305-222-305-140 0-220 47-232 172l-188-17c33-204 181-292 423-292 255 0 401 118 401 364v466zm-683-27c0 109 63 184 175 182 166-3 259-96 306-217 24-65 20-120 20-200-232 7-501-28-501 235" id="aO"/><path fill="#3a414a" d="M736-142h380V0H134v-142h422v-1200H267v-142h469v1342" id="aP"/><g id="e"><use transform="matrix(0.008680555555555554,0,0,0.008680555555555554,0,0)" xlink:href="#az"/><use transform="matrix(0.008680555555555554,0,0,0.008680555555555554,10.668402777777777,0)" xlink:href="#aN"/><use transform="matrix(0.008680555555555554,0,0,0.008680555555555554,21.336805555555554,0)" xlink:href="#aO"/><use transform="matrix(0.008680555555555554,0,0,0.008680555555555554,32.00520833333333,0)" xlink:href="#aF"/><use transform="matrix(0.008680555555555554,0,0,0.008680555555555554,42.67361111111111,0)" xlink:href="#aP"/></g><path fill="#3a414a" d="M614-836l333-513h205L717-705 1193 0H988L614-573 241 0H36l476-705-435-644h205" id="aQ"/><g id="f"><use transform="matrix(0.008680555555555554,0,0,0.008680555555555554,0,0)" xlink:href="#aJ"/><use transform="matrix(0.008680555555555554,0,0,0.008680555555555554,10.668402777777777,0)" xlink:href="#aK"/><use transform="matrix(0.008680555555555554,0,0,0.008680555555555554,21.336805555555554,0)" xlink:href="#aQ"/><use transform="matrix(0.008680555555555554,0,0,0.008680555555555554,32.00520833333333,0)" xlink:href="#aJ"/></g><path fill="#3a414a" d="M706-1102c241 0 344 136 343 381V0H868v-695c1-168-57-273-220-268-190 6-283 138-283 336V0H185c-3-360 6-732-6-1082h170c4 54 7 126 8 185h3c63-121 164-204 346-205" id="aR"/><g id="g"><use transform="matrix(0.008680555555555554,0,0,0.008680555555555554,0,0)" xlink:href="#aR"/><use transform="matrix(0.008680555555555554,0,0,0.008680555555555554,10.668402777777777,0)" xlink:href="#aO"/><use transform="matrix(0.008680555555555554,0,0,0.008680555555555554,21.336805555555554,0)" xlink:href="#aN"/><use transform="matrix(0.008680555555555554,0,0,0.008680555555555554,32.00520833333333,0)" xlink:href="#az"/></g><path fill="#3a414a" d="M698-1104c312 3 392 244 392 558 0 315-82 566-392 566-169 0-277-65-331-184h-5c8 188 2 394 4 589H185V-858c0-76-1-156-6-224h175c6 52 9 120 10 178h4c58-122 150-202 330-200zm-49 991c225 0 255-203 255-433 0-225-32-419-253-419-236 0-285 192-285 441 0 237 53 411 283 411" id="aS"/><path fill="#3a414a" d="M1018 0H814c-67-224-138-444-200-673C552-442 476-224 407 0H204L21-1082h178c43 310 105 601 126 933 54-225 128-425 193-638h193c63 212 134 415 185 638 22-336 90-622 136-933h176" id="aT"/><path fill="#3a414a" d="M615-1102c343 0 484 203 482 560-1 347-147 562-488 562-336 0-475-219-479-562-4-349 156-560 485-560zm-8 989c240 0 301-180 301-429 0-245-55-427-290-427-236 0-299 181-299 427 0 243 61 429 288 429" id="aU"/><path fill="#3a414a" d="M648-963c-190 6-283 138-283 336V0H185v-1484h181c-2 197 6 404-9 587h3c62-120 159-205 339-205 242 0 351 135 350 381V0H868v-695c1-168-57-273-220-268" id="aV"/><g id="h"><use transform="matrix(0.008680555555555554,0,0,0.008680555555555554,0,0)" xlink:href="#aS"/><use transform="matrix(0.008680555555555554,0,0,0.008680555555555554,10.668402777777777,0)" xlink:href="#aO"/><use transform="matrix(0.008680555555555554,0,0,0.008680555555555554,21.336805555555554,0)" xlink:href="#ay"/><use transform="matrix(0.008680555555555554,0,0,0.008680555555555554,32.00520833333333,0)" xlink:href="#ay"/><use transform="matrix(0.008680555555555554,0,0,0.008680555555555554,42.67361111111111,0)" xlink:href="#aT"/><use transform="matrix(0.008680555555555554,0,0,0.008680555555555554,53.342013888888886,0)" xlink:href="#aU"/><use transform="matrix(0.008680555555555554,0,0,0.008680555555555554,64.01041666666666,0)" xlink:href="#aA"/><use transform="matrix(0.008680555555555554,0,0,0.008680555555555554,74.67881944444443,0)" xlink:href="#aG"/><use transform="matrix(0.008680555555555554,0,0,0.008680555555555554,85.3472222222222,0)" xlink:href="#aE"/><use transform="matrix(0.008680555555555554,0,0,0.008680555555555554,96.01562499999997,0)" xlink:href="#aV"/><use transform="matrix(0.008680555555555554,0,0,0.008680555555555554,106.68402777777774,0)" xlink:href="#aO"/><use transform="matrix(0.008680555555555554,0,0,0.008680555555555554,117.35243055555551,0)" xlink:href="#ay"/><use transform="matrix(0.008680555555555554,0,0,0.008680555555555554,128.0208333333333,0)" xlink:href="#aV"/></g><path fill="#3a414a" d="M385-1193v494h676v158H385V0H194v-1349h891v156H385" id="aW"/><g id="i"><use transform="matrix(0.008680555555555554,0,0,0.008680555555555554,0,0)" xlink:href="#aW"/><use transform="matrix(0.008680555555555554,0,0,0.008680555555555554,10.668402777777777,0)" xlink:href="#aC"/></g><path fill="#3a414a" d="M631 20c-350 0-501-215-501-562 0-355 162-560 502-560 250 0 399 118 446 323l-192 14c-23-124-109-196-262-196-242 0-305 171-305 415 1 245 61 427 304 427 151 0 248-77 267-215l190 12C1039-107 883 20 631 20" id="aX"/><g id="j"><use transform="matrix(0.008680555555555554,0,0,0.008680555555555554,0,0)" xlink:href="#aX"/><use transform="matrix(0.008680555555555554,0,0,0.008680555555555554,10.668402777777777,0)" xlink:href="#aU"/><use transform="matrix(0.008680555555555554,0,0,0.008680555555555554,21.336805555555554,0)" xlink:href="#aD"/><use transform="matrix(0.008680555555555554,0,0,0.008680555555555554,32.00520833333333,0)" xlink:href="#aA"/><use transform="matrix(0.008680555555555554,0,0,0.008680555555555554,42.67361111111111,0)" xlink:href="#ay"/><use transform="matrix(0.008680555555555554,0,0,0.008680555555555554,53.342013888888886,0)" xlink:href="#az"/></g><path fill="#3a414a" d="M682 16c-209 0-323-80-324-285v-671H190v-142h170l58-282h120v282h432v142H538v652c2 114 60 155 182 155 106 0 209-16 297-34v137C921-4 806 16 682 16" id="aY"/><g id="k"><use transform="matrix(0.008680555555555554,0,0,0.008680555555555554,0,0)" xlink:href="#aO"/><use transform="matrix(0.008680555555555554,0,0,0.008680555555555554,10.668402777777777,0)" xlink:href="#aX"/><use transform="matrix(0.008680555555555554,0,0,0.008680555555555554,21.336805555555554,0)" xlink:href="#aX"/><use transform="matrix(0.008680555555555554,0,0,0.008680555555555554,32.00520833333333,0)" xlink:href="#aU"/><use transform="matrix(0.008680555555555554,0,0,0.008680555555555554,42.67361111111111,0)" xlink:href="#aN"/><use transform="matrix(0.008680555555555554,0,0,0.008680555555555554,53.342013888888886,0)" xlink:href="#aN"/><use transform="matrix(0.008680555555555554,0,0,0.008680555555555554,64.01041666666666,0)" xlink:href="#aU"/><use transform="matrix(0.008680555555555554,0,0,0.008680555555555554,74.67881944444443,0)" xlink:href="#aG"/><use transform="matrix(0.008680555555555554,0,0,0.008680555555555554,85.3472222222222,0)" xlink:href="#aO"/><use transform="matrix(0.008680555555555554,0,0,0.008680555555555554,96.01562499999997,0)" xlink:href="#aY"/><use transform="matrix(0.008680555555555554,0,0,0.008680555555555554,106.68402777777774,0)" xlink:href="#aF"/><use transform="matrix(0.008680555555555554,0,0,0.008680555555555554,117.35243055555551,0)" xlink:href="#aU"/><use transform="matrix(0.008680555555555554,0,0,0.008680555555555554,128.0208333333333,0)" xlink:href="#aR"/></g><path fill="#3a414a" d="M715 0H502L69-1082h202c94 253 197 500 285 758 19 57 36 126 52 183 96-335 234-626 350-941h201" id="aZ"/><path fill="#3a414a" d="M168 279c222 39 310-114 368-290L66-1082h192c120 299 249 590 362 896 115-301 235-597 351-896h190L705 0c-65 164-130 320-275 396-67 36-177 35-262 18V279" id="ba"/><g id="l"><use transform="matrix(0.008680555555555554,0,0,0.008680555555555554,0,0)" xlink:href="#aS"/><use transform="matrix(0.008680555555555554,0,0,0.008680555555555554,10.668402777777777,0)" xlink:href="#aA"/><use transform="matrix(0.008680555555555554,0,0,0.008680555555555554,21.336805555555554,0)" xlink:href="#aF"/><use transform="matrix(0.008680555555555554,0,0,0.008680555555555554,32.00520833333333,0)" xlink:href="#aZ"/><use transform="matrix(0.008680555555555554,0,0,0.008680555555555554,42.67361111111111,0)" xlink:href="#aO"/><use transform="matrix(0.008680555555555554,0,0,0.008680555555555554,53.342013888888886,0)" xlink:href="#aX"/><use transform="matrix(0.008680555555555554,0,0,0.008680555555555554,64.01041666666666,0)" xlink:href="#ba"/></g><path fill="#3a414a" d="M285-1169c8 382 2 780 4 1169H129v-1349h237c86 239 188 461 253 720 69-258 169-481 255-720h225V0H937c2-390-5-788 6-1169-75 255-170 488-259 729H547c-90-240-185-475-262-729" id="bb"/><g id="m"><use transform="matrix(0.008680555555555554,0,0,0.008680555555555554,0,0)" xlink:href="#aK"/><use transform="matrix(0.008680555555555554,0,0,0.008680555555555554,10.668402777777777,0)" xlink:href="#aI"/><use transform="matrix(0.008680555555555554,0,0,0.008680555555555554,21.336805555555554,0)" xlink:href="#ax"/><use transform="matrix(0.008680555555555554,0,0,0.008680555555555554,32.00520833333333,0)" xlink:href="#bb"/></g><path fill="#3a414a" d="M839-1335c-182-6-269 67-259 253h491v142H580V0H400v-940H138v-142h262c-15-293 132-408 418-402 94 2 200 7 281 21v145c-75-10-177-14-260-17" id="bc"/><path fill="#3a414a" d="M1048-32c-2 300-135 456-433 456-222-1-358-88-400-267l184-25c22 99 100 157 222 156 184-2 248-125 248-315 0-64 3-133-2-194C807-100 706-13 524-12c-306 0-381-228-381-537 0-318 85-550 400-550 164 0 271 83 325 202h3c1-60 3-134 12-185h171c-13 339-4 702-6 1050zM585-145c210-8 284-178 284-406 0-192-52-331-177-392-33-16-69-22-104-22-223 2-259 184-259 414 0 229 31 415 256 406" id="bd"/><g id="n"><use transform="matrix(0.008680555555555554,0,0,0.008680555555555554,0,0)" xlink:href="#aR"/><use transform="matrix(0.008680555555555554,0,0,0.008680555555555554,10.668402777777777,0)" xlink:href="#bc"/><use transform="matrix(0.008680555555555554,0,0,0.008680555555555554,21.336805555555554,0)" xlink:href="#aX"/><use transform="matrix(0.008680555555555554,0,0,0.008680555555555554,32.00520833333333,0)" xlink:href="#aE"/><use transform="matrix(0.008680555555555554,0,0,0.008680555555555554,42.67361111111111,0)" xlink:href="#aY"/><use transform="matrix(0.008680555555555554,0,0,0.008680555555555554,53.342013888888886,0)" xlink:href="#aO"/><use transform="matrix(0.008680555555555554,0,0,0.008680555555555554,64.01041666666666,0)" xlink:href="#bd"/></g><g id="o"><use transform="matrix(0.008680555555555554,0,0,0.008680555555555554,0,0)" xlink:href="#aS"/><use transform="matrix(0.008680555555555554,0,0,0.008680555555555554,10.668402777777777,0)" xlink:href="#aA"/><use transform="matrix(0.008680555555555554,0,0,0.008680555555555554,21.336805555555554,0)" xlink:href="#aU"/><use transform="matrix(0.008680555555555554,0,0,0.008680555555555554,32.00520833333333,0)" xlink:href="#bc"/><use transform="matrix(0.008680555555555554,0,0,0.008680555555555554,42.67361111111111,0)" xlink:href="#aF"/><use transform="matrix(0.008680555555555554,0,0,0.008680555555555554,53.342013888888886,0)" xlink:href="#aP"/><use transform="matrix(0.008680555555555554,0,0,0.008680555555555554,64.01041666666666,0)" xlink:href="#az"/><use transform="matrix(0.008680555555555554,0,0,0.008680555555555554,74.67881944444443,0)" xlink:href="#aE"/><use transform="matrix(0.008680555555555554,0,0,0.008680555555555554,85.3472222222222,0)" xlink:href="#aS"/><use transform="matrix(0.008680555555555554,0,0,0.008680555555555554,96.01562499999997,0)" xlink:href="#aF"/><use transform="matrix(0.008680555555555554,0,0,0.008680555555555554,106.68402777777774,0)" xlink:href="#aX"/><use transform="matrix(0.008680555555555554,0,0,0.008680555555555554,117.35243055555551,0)" xlink:href="#aY"/><use transform="matrix(0.008680555555555554,0,0,0.008680555555555554,128.0208333333333,0)" xlink:href="#aD"/><use transform="matrix(0.008680555555555554,0,0,0.008680555555555554,138.68923611111106,0)" xlink:href="#aA"/><use transform="matrix(0.008680555555555554,0,0,0.008680555555555554,149.35763888888883,0)" xlink:href="#az"/></g><path fill="#3a414a" d="M365-904c58-129 161-200 334-200 130 0 228 46 293 138s98 233 98 420c0 189-34 331-102 425S824 20 698 20c-170 0-275-64-336-184 0 55-3 116-9 164H179c5-68 6-147 6-223v-1261h180c-2 193 4 394-4 580h4zm283 791c221 0 256-197 256-427 0-229-34-425-254-425-236 0-285 195-285 441 0 237 53 411 283 411" id="be"/><g id="p"><use transform="matrix(0.008680555555555554,0,0,0.008680555555555554,0,0)" xlink:href="#aS"/><use transform="matrix(0.008680555555555554,0,0,0.008680555555555554,10.668402777777777,0)" xlink:href="#aA"/><use transform="matrix(0.008680555555555554,0,0,0.008680555555555554,21.336805555555554,0)" xlink:href="#aU"/><use transform="matrix(0.008680555555555554,0,0,0.008680555555555554,32.00520833333333,0)" xlink:href="#bc"/><use transform="matrix(0.008680555555555554,0,0,0.008680555555555554,42.67361111111111,0)" xlink:href="#aF"/><use transform="matrix(0.008680555555555554,0,0,0.008680555555555554,53.342013888888886,0)" xlink:href="#aP"/><use transform="matrix(0.008680555555555554,0,0,0.008680555555555554,64.01041666666666,0)" xlink:href="#az"/><use transform="matrix(0.008680555555555554,0,0,0.008680555555555554,74.67881944444443,0)" xlink:href="#aE"/><use transform="matrix(0.008680555555555554,0,0,0.008680555555555554,85.3472222222222,0)" xlink:href="#be"/><use transform="matrix(0.008680555555555554,0,0,0.008680555555555554,96.01562499999997,0)" xlink:href="#aO"/><use transform="matrix(0.008680555555555554,0,0,0.008680555555555554,106.68402777777774,0)" xlink:href="#aR"/><use transform="matrix(0.008680555555555554,0,0,0.008680555555555554,117.35243055555551,0)" xlink:href="#aR"/><use transform="matrix(0.008680555555555554,0,0,0.008680555555555554,128.0208333333333,0)" xlink:href="#az"/><use transform="matrix(0.008680555555555554,0,0,0.008680555555555554,138.68923611111106,0)" xlink:href="#aA"/></g><g id="q"><use transform="matrix(0.008680555555555554,0,0,0.008680555555555554,0,0)" xlink:href="#bb"/><use transform="matrix(0.008680555555555554,0,0,0.008680555555555554,10.668402777777777,0)" xlink:href="#aU"/><use transform="matrix(0.008680555555555554,0,0,0.008680555555555554,21.336805555555554,0)" xlink:href="#aG"/><use transform="matrix(0.008680555555555554,0,0,0.008680555555555554,32.00520833333333,0)" xlink:href="#aD"/><use transform="matrix(0.008680555555555554,0,0,0.008680555555555554,42.67361111111111,0)" xlink:href="#aP"/><use transform="matrix(0.008680555555555554,0,0,0.008680555555555554,53.342013888888886,0)" xlink:href="#az"/></g><g id="r"><use transform="matrix(0.008680555555555554,0,0,0.008680555555555554,0,0)" xlink:href="#aN"/><use transform="matrix(0.008680555555555554,0,0,0.008680555555555554,10.668402777777777,0)" xlink:href="#aU"/><use transform="matrix(0.008680555555555554,0,0,0.008680555555555554,21.336805555555554,0)" xlink:href="#aG"/><use transform="matrix(0.008680555555555554,0,0,0.008680555555555554,32.00520833333333,0)" xlink:href="#aD"/><use transform="matrix(0.008680555555555554,0,0,0.008680555555555554,42.67361111111111,0)" xlink:href="#aP"/><use transform="matrix(0.008680555555555554,0,0,0.008680555555555554,53.342013888888886,0)" xlink:href="#az"/><use transform="matrix(0.008680555555555554,0,0,0.008680555555555554,64.01041666666666,0)" xlink:href="#aE"/><use transform="matrix(0.008680555555555554,0,0,0.008680555555555554,74.67881944444443,0)" xlink:href="#aF"/><use transform="matrix(0.008680555555555554,0,0,0.008680555555555554,85.3472222222222,0)" xlink:href="#aG"/></g><g id="s"><use transform="matrix(0.008680555555555554,0,0,0.008680555555555554,0,0)" xlink:href="#aG"/><use transform="matrix(0.008680555555555554,0,0,0.008680555555555554,10.668402777777777,0)" xlink:href="#az"/><use transform="matrix(0.008680555555555554,0,0,0.008680555555555554,21.336805555555554,0)" xlink:href="#ay"/><use transform="matrix(0.008680555555555554,0,0,0.008680555555555554,32.00520833333333,0)" xlink:href="#aX"/><use transform="matrix(0.008680555555555554,0,0,0.008680555555555554,42.67361111111111,0)" xlink:href="#aA"/><use transform="matrix(0.008680555555555554,0,0,0.008680555555555554,53.342013888888886,0)" xlink:href="#aF"/><use transform="matrix(0.008680555555555554,0,0,0.008680555555555554,64.01041666666666,0)" xlink:href="#aS"/><use transform="matrix(0.008680555555555554,0,0,0.008680555555555554,74.67881944444443,0)" xlink:href="#aY"/><use transform="matrix(0.008680555555555554,0,0,0.008680555555555554,85.3472222222222,0)" xlink:href="#aF"/><use transform="matrix(0.008680555555555554,0,0,0.008680555555555554,96.01562499999997,0)" xlink:href="#aU"/><use transform="matrix(0.008680555555555554,0,0,0.008680555555555554,106.68402777777774,0)" xlink:href="#aR"/></g><path fill="#3a414a" d="M1018 0H810c-67-251-137-496-194-756C558-495 487-250 419 0H211L0-1349h189c48 393 110 772 142 1181 58-262 128-512 197-763h175c69 251 139 500 197 763 37-402 92-789 139-1181h189" id="bf"/><g id="t"><use transform="matrix(0.008680555555555554,0,0,0.008680555555555554,0,0)" xlink:href="#bb"/><use transform="matrix(0.008680555555555554,0,0,0.008680555555555554,10.668402777777777,0)" xlink:href="#aU"/><use transform="matrix(0.008680555555555554,0,0,0.008680555555555554,21.336805555555554,0)" xlink:href="#aG"/><use transform="matrix(0.008680555555555554,0,0,0.008680555555555554,32.00520833333333,0)" xlink:href="#aD"/><use transform="matrix(0.008680555555555554,0,0,0.008680555555555554,42.67361111111111,0)" xlink:href="#aP"/><use transform="matrix(0.008680555555555554,0,0,0.008680555555555554,53.342013888888886,0)" xlink:href="#az"/><use transform="matrix(0.008680555555555554,0,0,0.008680555555555554,64.01041666666666,0)" xlink:href="#aH"/><use transform="matrix(0.008680555555555554,0,0,0.008680555555555554,74.67881944444443,0)" xlink:href="#aR"/><use transform="matrix(0.008680555555555554,0,0,0.008680555555555554,85.3472222222222,0)" xlink:href="#bf"/><use transform="matrix(0.008680555555555554,0,0,0.008680555555555554,96.01562499999997,0)" xlink:href="#aF"/><use transform="matrix(0.008680555555555554,0,0,0.008680555555555554,106.68402777777774,0)" xlink:href="#aG"/><use transform="matrix(0.008680555555555554,0,0,0.008680555555555554,117.35243055555551,0)" xlink:href="#bd"/><use transform="matrix(0.008680555555555554,0,0,0.008680555555555554,128.0208333333333,0)" xlink:href="#az"/><use transform="matrix(0.008680555555555554,0,0,0.008680555555555554,138.68923611111106,0)" xlink:href="#aY"/></g><path fill="#3a414a" d="M650-1214c-281 0-336 244-336 533 0 295 60 546 347 546 188 0 263-142 322-282l159 65C1058-155 935 20 659 20c-401 0-546-295-546-701 0-407 135-689 536-689 264 0 391 146 466 335l-168 65c-47-129-127-244-297-244" id="bg"/><g id="u"><use transform="matrix(0.008680555555555554,0,0,0.008680555555555554,0,0)" xlink:href="#bg"/><use transform="matrix(0.008680555555555554,0,0,0.008680555555555554,10.668402777777777,0)" xlink:href="#aW"/><use transform="matrix(0.008680555555555554,0,0,0.008680555555555554,21.336805555555554,0)" xlink:href="#aB"/><use transform="matrix(0.008680555555555554,0,0,0.008680555555555554,32.00520833333333,0)" xlink:href="#aC"/></g><g id="v"><use transform="matrix(0.008680555555555554,0,0,0.008680555555555554,0,0)" xlink:href="#aN"/><use transform="matrix(0.008680555555555554,0,0,0.008680555555555554,10.668402777777777,0)" xlink:href="#aU"/><use transform="matrix(0.008680555555555554,0,0,0.008680555555555554,21.336805555555554,0)" xlink:href="#aG"/><use transform="matrix(0.008680555555555554,0,0,0.008680555555555554,32.00520833333333,0)" xlink:href="#aD"/><use transform="matrix(0.008680555555555554,0,0,0.008680555555555554,42.67361111111111,0)" xlink:href="#aP"/><use transform="matrix(0.008680555555555554,0,0,0.008680555555555554,53.342013888888886,0)" xlink:href="#az"/><use transform="matrix(0.008680555555555554,0,0,0.008680555555555554,64.01041666666666,0)" xlink:href="#aE"/><use transform="matrix(0.008680555555555554,0,0,0.008680555555555554,74.67881944444443,0)" xlink:href="#aF"/><use transform="matrix(0.008680555555555554,0,0,0.008680555555555554,85.3472222222222,0)" xlink:href="#aG"/></g><g id="w"><use transform="matrix(0.008680555555555554,0,0,0.008680555555555554,0,0)" xlink:href="#aT"/><use transform="matrix(0.008680555555555554,0,0,0.008680555555555554,10.668402777777777,0)" xlink:href="#aF"/><use transform="matrix(0.008680555555555554,0,0,0.008680555555555554,21.336805555555554,0)" xlink:href="#aG"/><use transform="matrix(0.008680555555555554,0,0,0.008680555555555554,32.00520833333333,0)" xlink:href="#bd"/><use transform="matrix(0.008680555555555554,0,0,0.008680555555555554,42.67361111111111,0)" xlink:href="#az"/><use transform="matrix(0.008680555555555554,0,0,0.008680555555555554,53.342013888888886,0)" xlink:href="#aY"/><use transform="matrix(0.008680555555555554,0,0,0.008680555555555554,64.01041666666666,0)" xlink:href="#aE"/><use transform="matrix(0.008680555555555554,0,0,0.008680555555555554,74.67881944444443,0)" xlink:href="#aF"/><use transform="matrix(0.008680555555555554,0,0,0.008680555555555554,85.3472222222222,0)" xlink:href="#aG"/></g><g id="x"><use transform="matrix(0.008680555555555554,0,0,0.008680555555555554,0,0)" xlink:href="#aM"/><use transform="matrix(0.008680555555555554,0,0,0.008680555555555554,10.668402777777777,0)" xlink:href="#az"/><use transform="matrix(0.008680555555555554,0,0,0.008680555555555554,21.336805555555554,0)" xlink:href="#aS"/><use transform="matrix(0.008680555555555554,0,0,0.008680555555555554,32.00520833333333,0)" xlink:href="#aU"/><use transform="matrix(0.008680555555555554,0,0,0.008680555555555554,42.67361111111111,0)" xlink:href="#aA"/><use transform="matrix(0.008680555555555554,0,0,0.008680555555555554,53.342013888888886,0)" xlink:href="#aY"/></g><g id="y"><use transform="matrix(0.008680555555555554,0,0,0.008680555555555554,0,0)" xlink:href="#aA"/><use transform="matrix(0.008680555555555554,0,0,0.008680555555555554,10.668402777777777,0)" xlink:href="#az"/><use transform="matrix(0.008680555555555554,0,0,0.008680555555555554,21.336805555555554,0)" xlink:href="#aS"/><use transform="matrix(0.008680555555555554,0,0,0.008680555555555554,32.00520833333333,0)" xlink:href="#aU"/><use transform="matrix(0.008680555555555554,0,0,0.008680555555555554,42.67361111111111,0)" xlink:href="#aA"/><use transform="matrix(0.008680555555555554,0,0,0.008680555555555554,53.342013888888886,0)" xlink:href="#aY"/><use transform="matrix(0.008680555555555554,0,0,0.008680555555555554,64.01041666666666,0)" xlink:href="#aE"/><use transform="matrix(0.008680555555555554,0,0,0.008680555555555554,74.67881944444443,0)" xlink:href="#aF"/><use transform="matrix(0.008680555555555554,0,0,0.008680555555555554,85.3472222222222,0)" xlink:href="#aG"/></g><g id="z"><use transform="matrix(0.008680555555555554,0,0,0.008680555555555554,0,0)" xlink:href="#aA"/><use transform="matrix(0.008680555555555554,0,0,0.008680555555555554,10.668402777777777,0)" xlink:href="#az"/><use transform="matrix(0.008680555555555554,0,0,0.008680555555555554,21.336805555555554,0)" xlink:href="#aS"/><use transform="matrix(0.008680555555555554,0,0,0.008680555555555554,32.00520833333333,0)" xlink:href="#aU"/><use transform="matrix(0.008680555555555554,0,0,0.008680555555555554,42.67361111111111,0)" xlink:href="#aA"/><use transform="matrix(0.008680555555555554,0,0,0.008680555555555554,53.342013888888886,0)" xlink:href="#aY"/><use transform="matrix(0.008680555555555554,0,0,0.008680555555555554,64.01041666666666,0)" xlink:href="#az"/><use transform="matrix(0.008680555555555554,0,0,0.008680555555555554,74.67881944444443,0)" xlink:href="#aA"/><use transform="matrix(0.008680555555555554,0,0,0.008680555555555554,85.3472222222222,0)" xlink:href="#aE"/><use transform="matrix(0.008680555555555554,0,0,0.008680555555555554,96.01562499999997,0)" xlink:href="#aF"/><use transform="matrix(0.008680555555555554,0,0,0.008680555555555554,106.68402777777774,0)" xlink:href="#aG"/></g><g id="A"><use transform="matrix(0.008680555555555554,0,0,0.008680555555555554,0,0)" xlink:href="#aA"/><use transform="matrix(0.008680555555555554,0,0,0.008680555555555554,10.668402777777777,0)" xlink:href="#az"/><use transform="matrix(0.008680555555555554,0,0,0.008680555555555554,21.336805555555554,0)" xlink:href="#aS"/><use transform="matrix(0.008680555555555554,0,0,0.008680555555555554,32.00520833333333,0)" xlink:href="#aU"/><use transform="matrix(0.008680555555555554,0,0,0.008680555555555554,42.67361111111111,0)" xlink:href="#aA"/><use transform="matrix(0.008680555555555554,0,0,0.008680555555555554,53.342013888888886,0)" xlink:href="#aY"/><use transform="matrix(0.008680555555555554,0,0,0.008680555555555554,64.01041666666666,0)" xlink:href="#az"/><use transform="matrix(0.008680555555555554,0,0,0.008680555555555554,74.67881944444443,0)" xlink:href="#az"/><use transform="matrix(0.008680555555555554,0,0,0.008680555555555554,85.3472222222222,0)" xlink:href="#aE"/><use transform="matrix(0.008680555555555554,0,0,0.008680555555555554,96.01562499999997,0)" xlink:href="#aF"/><use transform="matrix(0.008680555555555554,0,0,0.008680555555555554,106.68402777777774,0)" xlink:href="#aG"/></g><g id="B"><use transform="matrix(0.008680555555555554,0,0,0.008680555555555554,0,0)" xlink:href="#aY"/><use transform="matrix(0.008680555555555554,0,0,0.008680555555555554,10.668402777777777,0)" xlink:href="#ba"/><use transform="matrix(0.008680555555555554,0,0,0.008680555555555554,21.336805555555554,0)" xlink:href="#aS"/><use transform="matrix(0.008680555555555554,0,0,0.008680555555555554,32.00520833333333,0)" xlink:href="#az"/></g><g id="C"><use transform="matrix(0.008680555555555554,0,0,0.008680555555555554,0,0)" xlink:href="#aA"/><use transform="matrix(0.008680555555555554,0,0,0.008680555555555554,10.668402777777777,0)" xlink:href="#az"/><use transform="matrix(0.008680555555555554,0,0,0.008680555555555554,21.336805555555554,0)" xlink:href="#aO"/><use transform="matrix(0.008680555555555554,0,0,0.008680555555555554,32.00520833333333,0)" xlink:href="#ay"/><use transform="matrix(0.008680555555555554,0,0,0.008680555555555554,42.67361111111111,0)" xlink:href="#aU"/><use transform="matrix(0.008680555555555554,0,0,0.008680555555555554,53.342013888888886,0)" xlink:href="#aR"/></g><g id="D"><use transform="matrix(0.008680555555555554,0,0,0.008680555555555554,0,0)" xlink:href="#aY"/><use transform="matrix(0.008680555555555554,0,0,0.008680555555555554,10.668402777777777,0)" xlink:href="#aF"/><use transform="matrix(0.008680555555555554,0,0,0.008680555555555554,21.336805555555554,0)" xlink:href="#aN"/><use transform="matrix(0.008680555555555554,0,0,0.008680555555555554,32.00520833333333,0)" xlink:href="#az"/></g><path fill="#3a414a" d="M473-1349c438-1 655 221 652 661C1122-268 945-8 532 0H162v-1349h311zm42 1193c308-4 416-205 418-532 2-330-131-509-459-505H353v1037h162" id="bh"/><path fill="#3a414a" d="M1034 0L896-382H333L196 0H0l510-1349h217L1228 0h-194zM847-531c-77-225-157-447-231-674-69 231-154 451-232 674h463" id="bi"/><g id="E"><use transform="matrix(0.008680555555555554,0,0,0.008680555555555554,0,0)" xlink:href="#bh"/><use transform="matrix(0.008680555555555554,0,0,0.008680555555555554,10.668402777777777,0)" xlink:href="#bi"/><use transform="matrix(0.008680555555555554,0,0,0.008680555555555554,21.336805555555554,0)" xlink:href="#aJ"/><use transform="matrix(0.008680555555555554,0,0,0.008680555555555554,32.00520833333333,0)" xlink:href="#aK"/><use transform="matrix(0.008680555555555554,0,0,0.008680555555555554,42.67361111111111,0)" xlink:href="#aJ"/><use transform="matrix(0.008680555555555554,0,0,0.008680555555555554,53.342013888888886,0)" xlink:href="#aH"/><use transform="matrix(0.008680555555555554,0,0,0.008680555555555554,64.01041666666666,0)" xlink:href="#bb"/><use transform="matrix(0.008680555555555554,0,0,0.008680555555555554,74.67881944444443,0)" xlink:href="#aK"/></g><g id="F"><use transform="matrix(0.008680555555555554,0,0,0.008680555555555554,0,0)" xlink:href="#aM"/><use transform="matrix(0.008680555555555554,0,0,0.008680555555555554,10.668402777777777,0)" xlink:href="#az"/><use transform="matrix(0.008680555555555554,0,0,0.008680555555555554,21.336805555555554,0)" xlink:href="#aS"/><use transform="matrix(0.008680555555555554,0,0,0.008680555555555554,32.00520833333333,0)" xlink:href="#aU"/><use transform="matrix(0.008680555555555554,0,0,0.008680555555555554,42.67361111111111,0)" xlink:href="#aA"/><use transform="matrix(0.008680555555555554,0,0,0.008680555555555554,53.342013888888886,0)" xlink:href="#aY"/><use transform="matrix(0.008680555555555554,0,0,0.008680555555555554,64.01041666666666,0)" xlink:href="#aJ"/><use transform="matrix(0.008680555555555554,0,0,0.008680555555555554,74.67881944444443,0)" xlink:href="#ba"/><use transform="matrix(0.008680555555555554,0,0,0.008680555555555554,85.3472222222222,0)" xlink:href="#aS"/><use transform="matrix(0.008680555555555554,0,0,0.008680555555555554,96.01562499999997,0)" xlink:href="#az"/></g><g id="G"><use transform="matrix(0.008680555555555554,0,0,0.008680555555555554,0,0)" xlink:href="#ax"/><use transform="matrix(0.008680555555555554,0,0,0.008680555555555554,10.668402777777777,0)" xlink:href="#ay"/><use transform="matrix(0.008680555555555554,0,0,0.008680555555555554,21.336805555555554,0)" xlink:href="#az"/><use transform="matrix(0.008680555555555554,0,0,0.008680555555555554,32.00520833333333,0)" xlink:href="#aA"/><use transform="matrix(0.008680555555555554,0,0,0.008680555555555554,42.67361111111111,0)" xlink:href="#bg"/><use transform="matrix(0.008680555555555554,0,0,0.008680555555555554,53.342013888888886,0)" xlink:href="#aU"/><use transform="matrix(0.008680555555555554,0,0,0.008680555555555554,64.01041666666666,0)" xlink:href="#aR"/><use transform="matrix(0.008680555555555554,0,0,0.008680555555555554,74.67881944444443,0)" xlink:href="#aR"/><use transform="matrix(0.008680555555555554,0,0,0.008680555555555554,85.3472222222222,0)" xlink:href="#az"/><use transform="matrix(0.008680555555555554,0,0,0.008680555555555554,96.01562499999997,0)" xlink:href="#aX"/><use transform="matrix(0.008680555555555554,0,0,0.008680555555555554,106.68402777777774,0)" xlink:href="#aY"/><use transform="matrix(0.008680555555555554,0,0,0.008680555555555554,117.35243055555551,0)" xlink:href="#aF"/><use transform="matrix(0.008680555555555554,0,0,0.008680555555555554,128.0208333333333,0)" xlink:href="#aU"/><use transform="matrix(0.008680555555555554,0,0,0.008680555555555554,138.68923611111106,0)" xlink:href="#aR"/></g><g id="H"><use transform="matrix(0.008680555555555554,0,0,0.008680555555555554,0,0)" xlink:href="#ay"/><use transform="matrix(0.008680555555555554,0,0,0.008680555555555554,10.668402777777777,0)" xlink:href="#aA"/><use transform="matrix(0.008680555555555554,0,0,0.008680555555555554,21.336805555555554,0)" xlink:href="#aX"/><use transform="matrix(0.008680555555555554,0,0,0.008680555555555554,32.00520833333333,0)" xlink:href="#aE"/><use transform="matrix(0.008680555555555554,0,0,0.008680555555555554,42.67361111111111,0)" xlink:href="#aD"/><use transform="matrix(0.008680555555555554,0,0,0.008680555555555554,53.342013888888886,0)" xlink:href="#ay"/><use transform="matrix(0.008680555555555554,0,0,0.008680555555555554,64.01041666666666,0)" xlink:href="#az"/><use transform="matrix(0.008680555555555554,0,0,0.008680555555555554,74.67881944444443,0)" xlink:href="#aA"/><use transform="matrix(0.008680555555555554,0,0,0.008680555555555554,85.3472222222222,0)" xlink:href="#aE"/><use transform="matrix(0.008680555555555554,0,0,0.008680555555555554,96.01562499999997,0)" xlink:href="#aF"/><use transform="matrix(0.008680555555555554,0,0,0.008680555555555554,106.68402777777774,0)" xlink:href="#aG"/></g><g id="I"><use transform="matrix(0.008680555555555554,0,0,0.008680555555555554,0,0)" xlink:href="#aG"/><use transform="matrix(0.008680555555555554,0,0,0.008680555555555554,10.668402777777777,0)" xlink:href="#ay"/><use transform="matrix(0.008680555555555554,0,0,0.008680555555555554,21.336805555555554,0)" xlink:href="#aY"/><use transform="matrix(0.008680555555555554,0,0,0.008680555555555554,32.00520833333333,0)" xlink:href="#aE"/><use transform="matrix(0.008680555555555554,0,0,0.008680555555555554,42.67361111111111,0)" xlink:href="#aD"/><use transform="matrix(0.008680555555555554,0,0,0.008680555555555554,53.342013888888886,0)" xlink:href="#ay"/><use transform="matrix(0.008680555555555554,0,0,0.008680555555555554,64.01041666666666,0)" xlink:href="#az"/><use transform="matrix(0.008680555555555554,0,0,0.008680555555555554,74.67881944444443,0)" xlink:href="#aA"/><use transform="matrix(0.008680555555555554,0,0,0.008680555555555554,85.3472222222222,0)" xlink:href="#aE"/><use transform="matrix(0.008680555555555554,0,0,0.008680555555555554,96.01562499999997,0)" xlink:href="#aF"/><use transform="matrix(0.008680555555555554,0,0,0.008680555555555554,106.68402777777774,0)" xlink:href="#aG"/></g><g id="J"><use transform="matrix(0.008680555555555554,0,0,0.008680555555555554,0,0)" xlink:href="#aO"/><use transform="matrix(0.008680555555555554,0,0,0.008680555555555554,10.668402777777777,0)" xlink:href="#aX"/><use transform="matrix(0.008680555555555554,0,0,0.008680555555555554,21.336805555555554,0)" xlink:href="#aX"/><use transform="matrix(0.008680555555555554,0,0,0.008680555555555554,32.00520833333333,0)" xlink:href="#az"/><use transform="matrix(0.008680555555555554,0,0,0.008680555555555554,42.67361111111111,0)" xlink:href="#aS"/><use transform="matrix(0.008680555555555554,0,0,0.008680555555555554,53.342013888888886,0)" xlink:href="#aY"/><use transform="matrix(0.008680555555555554,0,0,0.008680555555555554,64.01041666666666,0)" xlink:href="#az"/><use transform="matrix(0.008680555555555554,0,0,0.008680555555555554,74.67881944444443,0)" xlink:href="#aG"/></g><g id="K"><use transform="matrix(0.008680555555555554,0,0,0.008680555555555554,0,0)" xlink:href="#bi"/><use transform="matrix(0.008680555555555554,0,0,0.008680555555555554,10.668402777777777,0)" xlink:href="#aX"/><use transform="matrix(0.008680555555555554,0,0,0.008680555555555554,21.336805555555554,0)" xlink:href="#aX"/><use transform="matrix(0.008680555555555554,0,0,0.008680555555555554,32.00520833333333,0)" xlink:href="#aU"/><use transform="matrix(0.008680555555555554,0,0,0.008680555555555554,42.67361111111111,0)" xlink:href="#aN"/><use transform="matrix(0.008680555555555554,0,0,0.008680555555555554,53.342013888888886,0)" xlink:href="#aN"/><use transform="matrix(0.008680555555555554,0,0,0.008680555555555554,64.01041666666666,0)" xlink:href="#aU"/><use transform="matrix(0.008680555555555554,0,0,0.008680555555555554,74.67881944444443,0)" xlink:href="#aG"/><use transform="matrix(0.008680555555555554,0,0,0.008680555555555554,85.3472222222222,0)" xlink:href="#aO"/><use transform="matrix(0.008680555555555554,0,0,0.008680555555555554,96.01562499999997,0)" xlink:href="#aY"/><use transform="matrix(0.008680555555555554,0,0,0.008680555555555554,106.68402777777774,0)" xlink:href="#aF"/><use transform="matrix(0.008680555555555554,0,0,0.008680555555555554,117.35243055555551,0)" xlink:href="#aU"/><use transform="matrix(0.008680555555555554,0,0,0.008680555555555554,128.0208333333333,0)" xlink:href="#aR"/></g><g id="L"><use transform="matrix(0.008680555555555554,0,0,0.008680555555555554,0,0)" xlink:href="#aO"/><use transform="matrix(0.008680555555555554,0,0,0.008680555555555554,10.668402777777777,0)" xlink:href="#aX"/><use transform="matrix(0.008680555555555554,0,0,0.008680555555555554,21.336805555555554,0)" xlink:href="#aX"/><use transform="matrix(0.008680555555555554,0,0,0.008680555555555554,32.00520833333333,0)" xlink:href="#aU"/><use transform="matrix(0.008680555555555554,0,0,0.008680555555555554,42.67361111111111,0)" xlink:href="#aN"/><use transform="matrix(0.008680555555555554,0,0,0.008680555555555554,53.342013888888886,0)" xlink:href="#aN"/><use transform="matrix(0.008680555555555554,0,0,0.008680555555555554,64.01041666666666,0)" xlink:href="#aE"/><use transform="matrix(0.008680555555555554,0,0,0.008680555555555554,74.67881944444443,0)" xlink:href="#aF"/><use transform="matrix(0.008680555555555554,0,0,0.008680555555555554,85.3472222222222,0)" xlink:href="#aG"/></g><g id="M"><use transform="matrix(0.008680555555555554,0,0,0.008680555555555554,0,0)" xlink:href="#aP"/><use transform="matrix(0.008680555555555554,0,0,0.008680555555555554,10.668402777777777,0)" xlink:href="#aO"/><use transform="matrix(0.008680555555555554,0,0,0.008680555555555554,21.336805555555554,0)" xlink:href="#aY"/><use transform="matrix(0.008680555555555554,0,0,0.008680555555555554,32.00520833333333,0)" xlink:href="#aF"/><use transform="matrix(0.008680555555555554,0,0,0.008680555555555554,42.67361111111111,0)" xlink:href="#aY"/><use transform="matrix(0.008680555555555554,0,0,0.008680555555555554,53.342013888888886,0)" xlink:href="#aD"/><use transform="matrix(0.008680555555555554,0,0,0.008680555555555554,64.01041666666666,0)" xlink:href="#aG"/><use transform="matrix(0.008680555555555554,0,0,0.008680555555555554,74.67881944444443,0)" xlink:href="#az"/></g><path fill="#3a414a" d="M102-681c0-398 126-689 513-689 165 0 291 58 379 174s132 287 132 515c-1 318-88 554-298 657-123 61-317 58-438-3-206-104-288-341-288-654zm749 406c94-160 97-656-5-807-57-85-130-132-231-132-104 0-178 47-234 132-101 153-99 655 1 809 57 89 130 138 232 138 109 0 184-49 237-140" id="bj"/><path fill="#3a414a" d="M802-711c201 25 350 118 350 331C1152-95 921 0 634 0H162v-1349c401 9 908-74 908 327 0 184-111 275-268 311zm-224-69c174-2 300-51 300-218 0-163-124-198-302-198H353v416h225zM353-153c281-2 612 44 606-244-5-271-329-233-606-234v478" id="bk"/><path fill="#3a414a" d="M237 0v-1349h191v1193h672V0H237" id="bl"/><g id="N"><use transform="matrix(0.008680555555555554,0,0,0.008680555555555554,0,0)" xlink:href="#bh"/><use transform="matrix(0.008680555555555554,0,0,0.008680555555555554,10.668402777777777,0)" xlink:href="#bj"/><use transform="matrix(0.008680555555555554,0,0,0.008680555555555554,21.336805555555554,0)" xlink:href="#ax"/><use transform="matrix(0.008680555555555554,0,0,0.008680555555555554,32.00520833333333,0)" xlink:href="#bk"/><use transform="matrix(0.008680555555555554,0,0,0.008680555555555554,42.67361111111111,0)" xlink:href="#bl"/><use transform="matrix(0.008680555555555554,0,0,0.008680555555555554,53.342013888888886,0)" xlink:href="#aK"/></g><g id="O"><use transform="matrix(0.008680555555555554,0,0,0.008680555555555554,0,0)" xlink:href="#aP"/><use transform="matrix(0.008680555555555554,0,0,0.008680555555555554,10.668402777777777,0)" xlink:href="#aU"/><use transform="matrix(0.008680555555555554,0,0,0.008680555555555554,21.336805555555554,0)" xlink:href="#aR"/><use transform="matrix(0.008680555555555554,0,0,0.008680555555555554,32.00520833333333,0)" xlink:href="#bd"/><use transform="matrix(0.008680555555555554,0,0,0.008680555555555554,42.67361111111111,0)" xlink:href="#aF"/><use transform="matrix(0.008680555555555554,0,0,0.008680555555555554,53.342013888888886,0)" xlink:href="#aY"/><use transform="matrix(0.008680555555555554,0,0,0.008680555555555554,64.01041666666666,0)" xlink:href="#aD"/><use transform="matrix(0.008680555555555554,0,0,0.008680555555555554,74.67881944444443,0)" xlink:href="#aG"/><use transform="matrix(0.008680555555555554,0,0,0.008680555555555554,85.3472222222222,0)" xlink:href="#az"/></g><path fill="#3a414a" d="M932 0L611-444 288 0H94l415-556-397-526h199l300 421 298-421h201L713-558 1133 0H932" id="bm"/><g id="P"><use transform="matrix(0.008680555555555554,0,0,0.008680555555555554,0,0)" xlink:href="#aM"/><use transform="matrix(0.008680555555555554,0,0,0.008680555555555554,10.668402777777777,0)" xlink:href="#aF"/><use transform="matrix(0.008680555555555554,0,0,0.008680555555555554,21.336805555555554,0)" xlink:href="#aX"/><use transform="matrix(0.008680555555555554,0,0,0.008680555555555554,32.00520833333333,0)" xlink:href="#aV"/><use transform="matrix(0.008680555555555554,0,0,0.008680555555555554,42.67361111111111,0)" xlink:href="#aJ"/><use transform="matrix(0.008680555555555554,0,0,0.008680555555555554,53.342013888888886,0)" xlink:href="#az"/><use transform="matrix(0.008680555555555554,0,0,0.008680555555555554,64.01041666666666,0)" xlink:href="#bm"/><use transform="matrix(0.008680555555555554,0,0,0.008680555555555554,74.67881944444443,0)" xlink:href="#aY"/></g><g id="Q"><use transform="matrix(0.008680555555555554,0,0,0.008680555555555554,0,0)" xlink:href="#aB"/><use transform="matrix(0.008680555555555554,0,0,0.008680555555555554,10.668402777777777,0)" xlink:href="#aW"/><use transform="matrix(0.008680555555555554,0,0,0.008680555555555554,21.336805555555554,0)" xlink:href="#aC"/></g><g id="R"><use transform="matrix(0.008680555555555554,0,0,0.008680555555555554,0,0)" xlink:href="#aT"/><use transform="matrix(0.008680555555555554,0,0,0.008680555555555554,10.668402777777777,0)" xlink:href="#aF"/><use transform="matrix(0.008680555555555554,0,0,0.008680555555555554,21.336805555555554,0)" xlink:href="#aG"/><use transform="matrix(0.008680555555555554,0,0,0.008680555555555554,32.00520833333333,0)" xlink:href="#bd"/><use transform="matrix(0.008680555555555554,0,0,0.008680555555555554,42.67361111111111,0)" xlink:href="#az"/><use transform="matrix(0.008680555555555554,0,0,0.008680555555555554,53.342013888888886,0)" xlink:href="#aY"/><use transform="matrix(0.008680555555555554,0,0,0.008680555555555554,64.01041666666666,0)" xlink:href="#aE"/><use transform="matrix(0.008680555555555554,0,0,0.008680555555555554,74.67881944444443,0)" xlink:href="#aF"/><use transform="matrix(0.008680555555555554,0,0,0.008680555555555554,85.3472222222222,0)" xlink:href="#aG"/></g><g id="S"><use transform="matrix(0.008680555555555554,0,0,0.008680555555555554,0,0)" xlink:href="#aY"/><use transform="matrix(0.008680555555555554,0,0,0.008680555555555554,10.668402777777777,0)" xlink:href="#aF"/><use transform="matrix(0.008680555555555554,0,0,0.008680555555555554,21.336805555555554,0)" xlink:href="#aY"/><use transform="matrix(0.008680555555555554,0,0,0.008680555555555554,32.00520833333333,0)" xlink:href="#aP"/><use transform="matrix(0.008680555555555554,0,0,0.008680555555555554,42.67361111111111,0)" xlink:href="#az"/></g><g id="T"><use transform="matrix(0.008680555555555554,0,0,0.008680555555555554,0,0)" xlink:href="#aJ"/><use transform="matrix(0.008680555555555554,0,0,0.008680555555555554,10.668402777777777,0)" xlink:href="#aK"/><use transform="matrix(0.008680555555555554,0,0,0.008680555555555554,21.336805555555554,0)" xlink:href="#aQ"/><use transform="matrix(0.008680555555555554,0,0,0.008680555555555554,32.00520833333333,0)" xlink:href="#aJ"/></g><g id="U"><use transform="matrix(0.008680555555555554,0,0,0.008680555555555554,0,0)" xlink:href="#aX"/><use transform="matrix(0.008680555555555554,0,0,0.008680555555555554,10.668402777777777,0)" xlink:href="#aU"/><use transform="matrix(0.008680555555555554,0,0,0.008680555555555554,21.336805555555554,0)" xlink:href="#aR"/><use transform="matrix(0.008680555555555554,0,0,0.008680555555555554,32.00520833333333,0)" xlink:href="#aY"/><use transform="matrix(0.008680555555555554,0,0,0.008680555555555554,42.67361111111111,0)" xlink:href="#az"/><use transform="matrix(0.008680555555555554,0,0,0.008680555555555554,53.342013888888886,0)" xlink:href="#aR"/><use transform="matrix(0.008680555555555554,0,0,0.008680555555555554,64.01041666666666,0)" xlink:href="#aY"/></g><g id="V"><use transform="matrix(0.008680555555555554,0,0,0.008680555555555554,0,0)" xlink:href="#bl"/><use transform="matrix(0.008680555555555554,0,0,0.008680555555555554,10.668402777777777,0)" xlink:href="#aU"/><use transform="matrix(0.008680555555555554,0,0,0.008680555555555554,21.336805555555554,0)" xlink:href="#aX"/><use transform="matrix(0.008680555555555554,0,0,0.008680555555555554,32.00520833333333,0)" xlink:href="#aO"/><use transform="matrix(0.008680555555555554,0,0,0.008680555555555554,42.67361111111111,0)" xlink:href="#aY"/><use transform="matrix(0.008680555555555554,0,0,0.008680555555555554,53.342013888888886,0)" xlink:href="#aF"/><use transform="matrix(0.008680555555555554,0,0,0.008680555555555554,64.01041666666666,0)" xlink:href="#aU"/><use transform="matrix(0.008680555555555554,0,0,0.008680555555555554,74.67881944444443,0)" xlink:href="#aR"/></g><g id="W"><use transform="matrix(0.008680555555555554,0,0,0.008680555555555554,0,0)" xlink:href="#aH"/><use transform="matrix(0.008680555555555554,0,0,0.008680555555555554,10.668402777777777,0)" xlink:href="#aI"/><use transform="matrix(0.008680555555555554,0,0,0.008680555555555554,21.336805555555554,0)" xlink:href="#aJ"/><use transform="matrix(0.008680555555555554,0,0,0.008680555555555554,32.00520833333333,0)" xlink:href="#aK"/><use transform="matrix(0.008680555555555554,0,0,0.008680555555555554,42.67361111111111,0)" xlink:href="#aL"/><use transform="matrix(0.008680555555555554,0,0,0.008680555555555554,53.342013888888886,0)" xlink:href="#aK"/><use transform="matrix(0.008680555555555554,0,0,0.008680555555555554,64.01041666666666,0)" xlink:href="#aM"/></g><g id="X"><use transform="matrix(0.008680555555555554,0,0,0.008680555555555554,0,0)" xlink:href="#aP"/><use transform="matrix(0.008680555555555554,0,0,0.008680555555555554,10.668402777777777,0)" xlink:href="#aO"/><use transform="matrix(0.008680555555555554,0,0,0.008680555555555554,21.336805555555554,0)" xlink:href="#aY"/><use transform="matrix(0.008680555555555554,0,0,0.008680555555555554,32.00520833333333,0)" xlink:href="#aF"/><use transform="matrix(0.008680555555555554,0,0,0.008680555555555554,42.67361111111111,0)" xlink:href="#aY"/><use transform="matrix(0.008680555555555554,0,0,0.008680555555555554,53.342013888888886,0)" xlink:href="#aD"/><use transform="matrix(0.008680555555555554,0,0,0.008680555555555554,64.01041666666666,0)" xlink:href="#aG"/><use transform="matrix(0.008680555555555554,0,0,0.008680555555555554,74.67881944444443,0)" xlink:href="#az"/></g><g id="Y"><use transform="matrix(0.008680555555555554,0,0,0.008680555555555554,0,0)" xlink:href="#bh"/><use transform="matrix(0.008680555555555554,0,0,0.008680555555555554,10.668402777777777,0)" xlink:href="#bj"/><use transform="matrix(0.008680555555555554,0,0,0.008680555555555554,21.336805555555554,0)" xlink:href="#ax"/><use transform="matrix(0.008680555555555554,0,0,0.008680555555555554,32.00520833333333,0)" xlink:href="#bk"/><use transform="matrix(0.008680555555555554,0,0,0.008680555555555554,42.67361111111111,0)" xlink:href="#bl"/><use transform="matrix(0.008680555555555554,0,0,0.008680555555555554,53.342013888888886,0)" xlink:href="#aK"/></g><g id="Z"><use transform="matrix(0.008680555555555554,0,0,0.008680555555555554,0,0)" xlink:href="#aP"/><use transform="matrix(0.008680555555555554,0,0,0.008680555555555554,10.668402777777777,0)" xlink:href="#aU"/><use transform="matrix(0.008680555555555554,0,0,0.008680555555555554,21.336805555555554,0)" xlink:href="#aR"/><use transform="matrix(0.008680555555555554,0,0,0.008680555555555554,32.00520833333333,0)" xlink:href="#bd"/><use transform="matrix(0.008680555555555554,0,0,0.008680555555555554,42.67361111111111,0)" xlink:href="#aF"/><use transform="matrix(0.008680555555555554,0,0,0.008680555555555554,53.342013888888886,0)" xlink:href="#aY"/><use transform="matrix(0.008680555555555554,0,0,0.008680555555555554,64.01041666666666,0)" xlink:href="#aD"/><use transform="matrix(0.008680555555555554,0,0,0.008680555555555554,74.67881944444443,0)" xlink:href="#aG"/><use transform="matrix(0.008680555555555554,0,0,0.008680555555555554,85.3472222222222,0)" xlink:href="#az"/></g><g id="aa"><use transform="matrix(0.008680555555555554,0,0,0.008680555555555554,0,0)" xlink:href="#aG"/><use transform="matrix(0.008680555555555554,0,0,0.008680555555555554,10.668402777777777,0)" xlink:href="#az"/><use transform="matrix(0.008680555555555554,0,0,0.008680555555555554,21.336805555555554,0)" xlink:href="#ay"/><use transform="matrix(0.008680555555555554,0,0,0.008680555555555554,32.00520833333333,0)" xlink:href="#aX"/><use transform="matrix(0.008680555555555554,0,0,0.008680555555555554,42.67361111111111,0)" xlink:href="#aA"/><use transform="matrix(0.008680555555555554,0,0,0.008680555555555554,53.342013888888886,0)" xlink:href="#aF"/><use transform="matrix(0.008680555555555554,0,0,0.008680555555555554,64.01041666666666,0)" xlink:href="#aS"/><use transform="matrix(0.008680555555555554,0,0,0.008680555555555554,74.67881944444443,0)" xlink:href="#aY"/><use transform="matrix(0.008680555555555554,0,0,0.008680555555555554,85.3472222222222,0)" xlink:href="#aF"/><use transform="matrix(0.008680555555555554,0,0,0.008680555555555554,96.01562499999997,0)" xlink:href="#aU"/><use transform="matrix(0.008680555555555554,0,0,0.008680555555555554,106.68402777777774,0)" xlink:href="#aR"/></g><g id="ab"><use transform="matrix(0.008680555555555554,0,0,0.008680555555555554,0,0)" xlink:href="#aW"/><use transform="matrix(0.008680555555555554,0,0,0.008680555555555554,10.668402777777777,0)" xlink:href="#aF"/><use transform="matrix(0.008680555555555554,0,0,0.008680555555555554,21.336805555555554,0)" xlink:href="#aP"/><use transform="matrix(0.008680555555555554,0,0,0.008680555555555554,32.00520833333333,0)" xlink:href="#az"/></g><g id="ac"><use transform="matrix(0.008680555555555554,0,0,0.008680555555555554,0,0)" xlink:href="#aG"/><use transform="matrix(0.008680555555555554,0,0,0.008680555555555554,10.668402777777777,0)" xlink:href="#aF"/><use transform="matrix(0.008680555555555554,0,0,0.008680555555555554,21.336805555555554,0)" xlink:href="#ay"/><use transform="matrix(0.008680555555555554,0,0,0.008680555555555554,32.00520833333333,0)" xlink:href="#aS"/><use transform="matrix(0.008680555555555554,0,0,0.008680555555555554,42.67361111111111,0)" xlink:href="#aP"/><use transform="matrix(0.008680555555555554,0,0,0.008680555555555554,53.342013888888886,0)" xlink:href="#aO"/><use transform="matrix(0.008680555555555554,0,0,0.008680555555555554,64.01041666666666,0)" xlink:href="#ba"/><use transform="matrix(0.008680555555555554,0,0,0.008680555555555554,74.67881944444443,0)" xlink:href="#aR"/><use transform="matrix(0.008680555555555554,0,0,0.008680555555555554,85.3472222222222,0)" xlink:href="#aO"/><use transform="matrix(0.008680555555555554,0,0,0.008680555555555554,96.01562499999997,0)" xlink:href="#aN"/><use transform="matrix(0.008680555555555554,0,0,0.008680555555555554,106.68402777777774,0)" xlink:href="#az"/></g><g id="ad"><use transform="matrix(0.008680555555555554,0,0,0.008680555555555554,0,0)" xlink:href="#aX"/><use transform="matrix(0.008680555555555554,0,0,0.008680555555555554,10.668402777777777,0)" xlink:href="#aO"/><use transform="matrix(0.008680555555555554,0,0,0.008680555555555554,21.336805555555554,0)" xlink:href="#aS"/><use transform="matrix(0.008680555555555554,0,0,0.008680555555555554,32.00520833333333,0)" xlink:href="#aY"/><use transform="matrix(0.008680555555555554,0,0,0.008680555555555554,42.67361111111111,0)" xlink:href="#aF"/><use transform="matrix(0.008680555555555554,0,0,0.008680555555555554,53.342013888888886,0)" xlink:href="#aU"/><use transform="matrix(0.008680555555555554,0,0,0.008680555555555554,64.01041666666666,0)" xlink:href="#aR"/></g><path fill="#3a414a" d="M914 0L548-499l-132 98V0H236v-1484h180v927l475-525h211L663-617 1125 0H914" id="bn"/><g id="ae"><use transform="matrix(0.008680555555555554,0,0,0.008680555555555554,0,0)" xlink:href="#aG"/><use transform="matrix(0.008680555555555554,0,0,0.008680555555555554,10.668402777777777,0)" xlink:href="#aF"/><use transform="matrix(0.008680555555555554,0,0,0.008680555555555554,21.336805555555554,0)" xlink:href="#ay"/><use transform="matrix(0.008680555555555554,0,0,0.008680555555555554,32.00520833333333,0)" xlink:href="#bn"/><use transform="matrix(0.008680555555555554,0,0,0.008680555555555554,42.67361111111111,0)" xlink:href="#aR"/><use transform="matrix(0.008680555555555554,0,0,0.008680555555555554,53.342013888888886,0)" xlink:href="#aO"/><use transform="matrix(0.008680555555555554,0,0,0.008680555555555554,64.01041666666666,0)" xlink:href="#aN"/><use transform="matrix(0.008680555555555554,0,0,0.008680555555555554,74.67881944444443,0)" xlink:href="#az"/></g><g id="af"><use transform="matrix(0.008680555555555554,0,0,0.008680555555555554,0,0)" xlink:href="#bl"/><use transform="matrix(0.008680555555555554,0,0,0.008680555555555554,10.668402777777777,0)" xlink:href="#aF"/><use transform="matrix(0.008680555555555554,0,0,0.008680555555555554,21.336805555555554,0)" xlink:href="#aR"/><use transform="matrix(0.008680555555555554,0,0,0.008680555555555554,32.00520833333333,0)" xlink:href="#bn"/></g><g id="ag"><use transform="matrix(0.008680555555555554,0,0,0.008680555555555554,0,0)" xlink:href="#aR"/><use transform="matrix(0.008680555555555554,0,0,0.008680555555555554,10.668402777777777,0)" xlink:href="#aO"/><use transform="matrix(0.008680555555555554,0,0,0.008680555555555554,21.336805555555554,0)" xlink:href="#aN"/><use transform="matrix(0.008680555555555554,0,0,0.008680555555555554,32.00520833333333,0)" xlink:href="#az"/></g><g id="ah"><use transform="matrix(0.008680555555555554,0,0,0.008680555555555554,0,0)" xlink:href="#aD"/><use transform="matrix(0.008680555555555554,0,0,0.008680555555555554,10.668402777777777,0)" xlink:href="#aA"/><use transform="matrix(0.008680555555555554,0,0,0.008680555555555554,21.336805555555554,0)" xlink:href="#aP"/></g><path fill="#3a414a" d="M614-1226c-167 1-283 53-283 213 0 183 186 193 334 234 230 63 463 120 463 409 0 286-219 387-518 390C309 23 131-98 79-338l185-37c34 165 149 248 351 246 184-2 324-58 324-238 0-203-207-221-372-266-210-57-422-111-422-377 0-267 201-356 470-360 279-5 430 101 480 324l-188 33c-28-141-121-215-293-213" id="bo"/><g id="ai"><use transform="matrix(0.008680555555555554,0,0,0.008680555555555554,0,0)" xlink:href="#bo"/><use transform="matrix(0.008680555555555554,0,0,0.008680555555555554,10.668402777777777,0)" xlink:href="#aU"/><use transform="matrix(0.008680555555555554,0,0,0.008680555555555554,21.336805555555554,0)" xlink:href="#aX"/><use transform="matrix(0.008680555555555554,0,0,0.008680555555555554,32.00520833333333,0)" xlink:href="#aF"/><use transform="matrix(0.008680555555555554,0,0,0.008680555555555554,42.67361111111111,0)" xlink:href="#aO"/><use transform="matrix(0.008680555555555554,0,0,0.008680555555555554,53.342013888888886,0)" xlink:href="#aP"/></g><g id="aj"><use transform="matrix(0.008680555555555554,0,0,0.008680555555555554,0,0)" xlink:href="#aS"/><use transform="matrix(0.008680555555555554,0,0,0.008680555555555554,10.668402777777777,0)" xlink:href="#aP"/><use transform="matrix(0.008680555555555554,0,0,0.008680555555555554,21.336805555555554,0)" xlink:href="#aO"/><use transform="matrix(0.008680555555555554,0,0,0.008680555555555554,32.00520833333333,0)" xlink:href="#aY"/><use transform="matrix(0.008680555555555554,0,0,0.008680555555555554,42.67361111111111,0)" xlink:href="#bc"/><use transform="matrix(0.008680555555555554,0,0,0.008680555555555554,53.342013888888886,0)" xlink:href="#aU"/><use transform="matrix(0.008680555555555554,0,0,0.008680555555555554,64.01041666666666,0)" xlink:href="#aA"/><use transform="matrix(0.008680555555555554,0,0,0.008680555555555554,74.67881944444443,0)" xlink:href="#aN"/></g><g id="ak"><use transform="matrix(0.008680555555555554,0,0,0.008680555555555554,0,0)" xlink:href="#aD"/><use transform="matrix(0.008680555555555554,0,0,0.008680555555555554,10.668402777777777,0)" xlink:href="#ay"/><use transform="matrix(0.008680555555555554,0,0,0.008680555555555554,21.336805555555554,0)" xlink:href="#az"/><use transform="matrix(0.008680555555555554,0,0,0.008680555555555554,32.00520833333333,0)" xlink:href="#aA"/><use transform="matrix(0.008680555555555554,0,0,0.008680555555555554,42.67361111111111,0)" xlink:href="#aR"/><use transform="matrix(0.008680555555555554,0,0,0.008680555555555554,53.342013888888886,0)" xlink:href="#aO"/><use transform="matrix(0.008680555555555554,0,0,0.008680555555555554,64.01041666666666,0)" xlink:href="#aN"/><use transform="matrix(0.008680555555555554,0,0,0.008680555555555554,74.67881944444443,0)" xlink:href="#az"/></g><g id="al"><use transform="matrix(0.008680555555555554,0,0,0.008680555555555554,0,0)" xlink:href="#bi"/><use transform="matrix(0.008680555555555554,0,0,0.008680555555555554,10.668402777777777,0)" xlink:href="#aR"/><use transform="matrix(0.008680555555555554,0,0,0.008680555555555554,21.336805555555554,0)" xlink:href="#aR"/><use transform="matrix(0.008680555555555554,0,0,0.008680555555555554,32.00520833333333,0)" xlink:href="#aU"/><use transform="matrix(0.008680555555555554,0,0,0.008680555555555554,42.67361111111111,0)" xlink:href="#aD"/><use transform="matrix(0.008680555555555554,0,0,0.008680555555555554,53.342013888888886,0)" xlink:href="#aR"/><use transform="matrix(0.008680555555555554,0,0,0.008680555555555554,64.01041666666666,0)" xlink:href="#aX"/><use transform="matrix(0.008680555555555554,0,0,0.008680555555555554,74.67881944444443,0)" xlink:href="#az"/><use transform="matrix(0.008680555555555554,0,0,0.008680555555555554,85.3472222222222,0)" xlink:href="#aN"/><use transform="matrix(0.008680555555555554,0,0,0.008680555555555554,96.01562499999997,0)" xlink:href="#az"/><use transform="matrix(0.008680555555555554,0,0,0.008680555555555554,106.68402777777774,0)" xlink:href="#aR"/><use transform="matrix(0.008680555555555554,0,0,0.008680555555555554,117.35243055555551,0)" xlink:href="#aY"/></g><g id="am"><use transform="matrix(0.008680555555555554,0,0,0.008680555555555554,0,0)" xlink:href="#az"/><use transform="matrix(0.008680555555555554,0,0,0.008680555555555554,10.668402777777777,0)" xlink:href="#bm"/><use transform="matrix(0.008680555555555554,0,0,0.008680555555555554,21.336805555555554,0)" xlink:href="#aS"/><use transform="matrix(0.008680555555555554,0,0,0.008680555555555554,32.00520833333333,0)" xlink:href="#aF"/><use transform="matrix(0.008680555555555554,0,0,0.008680555555555554,42.67361111111111,0)" xlink:href="#aA"/><use transform="matrix(0.008680555555555554,0,0,0.008680555555555554,53.342013888888886,0)" xlink:href="#ba"/></g><g id="an"><use transform="matrix(0.008680555555555554,0,0,0.008680555555555554,0,0)" xlink:href="#bh"/><use transform="matrix(0.008680555555555554,0,0,0.008680555555555554,10.668402777777777,0)" xlink:href="#bi"/><use transform="matrix(0.008680555555555554,0,0,0.008680555555555554,21.336805555555554,0)" xlink:href="#aJ"/><use transform="matrix(0.008680555555555554,0,0,0.008680555555555554,32.00520833333333,0)" xlink:href="#aK"/><use transform="matrix(0.008680555555555554,0,0,0.008680555555555554,42.67361111111111,0)" xlink:href="#aJ"/><use transform="matrix(0.008680555555555554,0,0,0.008680555555555554,53.342013888888886,0)" xlink:href="#aH"/><use transform="matrix(0.008680555555555554,0,0,0.008680555555555554,64.01041666666666,0)" xlink:href="#bb"/><use transform="matrix(0.008680555555555554,0,0,0.008680555555555554,74.67881944444443,0)" xlink:href="#aK"/></g><g id="ao"><use transform="matrix(0.008680555555555554,0,0,0.008680555555555554,0,0)" xlink:href="#bg"/><use transform="matrix(0.008680555555555554,0,0,0.008680555555555554,10.668402777777777,0)" xlink:href="#aU"/><use transform="matrix(0.008680555555555554,0,0,0.008680555555555554,21.336805555555554,0)" xlink:href="#aD"/><use transform="matrix(0.008680555555555554,0,0,0.008680555555555554,32.00520833333333,0)" xlink:href="#aA"/><use transform="matrix(0.008680555555555554,0,0,0.008680555555555554,42.67361111111111,0)" xlink:href="#ay"/><use transform="matrix(0.008680555555555554,0,0,0.008680555555555554,53.342013888888886,0)" xlink:href="#az"/></g><g id="ap"><use transform="matrix(0.008680555555555554,0,0,0.008680555555555554,0,0)" xlink:href="#aX"/><use transform="matrix(0.008680555555555554,0,0,0.008680555555555554,10.668402777777777,0)" xlink:href="#aU"/><use transform="matrix(0.008680555555555554,0,0,0.008680555555555554,21.336805555555554,0)" xlink:href="#aD"/><use transform="matrix(0.008680555555555554,0,0,0.008680555555555554,32.00520833333333,0)" xlink:href="#aA"/><use transform="matrix(0.008680555555555554,0,0,0.008680555555555554,42.67361111111111,0)" xlink:href="#ay"/><use transform="matrix(0.008680555555555554,0,0,0.008680555555555554,53.342013888888886,0)" xlink:href="#az"/><use transform="matrix(0.008680555555555554,0,0,0.008680555555555554,64.01041666666666,0)" xlink:href="#aE"/><use transform="matrix(0.008680555555555554,0,0,0.008680555555555554,74.67881944444443,0)" xlink:href="#aF"/><use transform="matrix(0.008680555555555554,0,0,0.008680555555555554,85.3472222222222,0)" xlink:href="#aG"/></g><g id="aq"><use transform="matrix(0.008680555555555554,0,0,0.008680555555555554,0,0)" xlink:href="#bf"/><use transform="matrix(0.008680555555555554,0,0,0.008680555555555554,10.668402777777777,0)" xlink:href="#aF"/><use transform="matrix(0.008680555555555554,0,0,0.008680555555555554,21.336805555555554,0)" xlink:href="#aG"/><use transform="matrix(0.008680555555555554,0,0,0.008680555555555554,32.00520833333333,0)" xlink:href="#bd"/><use transform="matrix(0.008680555555555554,0,0,0.008680555555555554,42.67361111111111,0)" xlink:href="#az"/><use transform="matrix(0.008680555555555554,0,0,0.008680555555555554,53.342013888888886,0)" xlink:href="#aY"/></g><g id="ar"><use transform="matrix(0.008680555555555554,0,0,0.008680555555555554,0,0)" xlink:href="#aB"/><use transform="matrix(0.008680555555555554,0,0,0.008680555555555554,10.668402777777777,0)" xlink:href="#aC"/></g><g id="as"><use transform="matrix(0.008680555555555554,0,0,0.008680555555555554,0,0)" xlink:href="#aW"/><use transform="matrix(0.008680555555555554,0,0,0.008680555555555554,10.668402777777777,0)" xlink:href="#aC"/></g><g id="at"><use transform="matrix(0.008680555555555554,0,0,0.008680555555555554,0,0)" xlink:href="#aD"/><use transform="matrix(0.008680555555555554,0,0,0.008680555555555554,10.668402777777777,0)" xlink:href="#ay"/><use transform="matrix(0.008680555555555554,0,0,0.008680555555555554,21.336805555555554,0)" xlink:href="#az"/><use transform="matrix(0.008680555555555554,0,0,0.008680555555555554,32.00520833333333,0)" xlink:href="#aA"/><use transform="matrix(0.008680555555555554,0,0,0.008680555555555554,42.67361111111111,0)" xlink:href="#aE"/><use transform="matrix(0.008680555555555554,0,0,0.008680555555555554,53.342013888888886,0)" xlink:href="#aF"/><use transform="matrix(0.008680555555555554,0,0,0.008680555555555554,64.01041666666666,0)" xlink:href="#aG"/></g><g id="au"><use transform="matrix(0.008680555555555554,0,0,0.008680555555555554,0,0)" xlink:href="#aT"/><use transform="matrix(0.008680555555555554,0,0,0.008680555555555554,10.668402777777777,0)" xlink:href="#aF"/><use transform="matrix(0.008680555555555554,0,0,0.008680555555555554,21.336805555555554,0)" xlink:href="#aG"/><use transform="matrix(0.008680555555555554,0,0,0.008680555555555554,32.00520833333333,0)" xlink:href="#bd"/><use transform="matrix(0.008680555555555554,0,0,0.008680555555555554,42.67361111111111,0)" xlink:href="#az"/><use transform="matrix(0.008680555555555554,0,0,0.008680555555555554,53.342013888888886,0)" xlink:href="#aY"/><use transform="matrix(0.008680555555555554,0,0,0.008680555555555554,64.01041666666666,0)" xlink:href="#aE"/><use transform="matrix(0.008680555555555554,0,0,0.008680555555555554,74.67881944444443,0)" xlink:href="#aY"/><use transform="matrix(0.008680555555555554,0,0,0.008680555555555554,85.3472222222222,0)" xlink:href="#ba"/><use transform="matrix(0.008680555555555554,0,0,0.008680555555555554,96.01562499999997,0)" xlink:href="#aS"/><use transform="matrix(0.008680555555555554,0,0,0.008680555555555554,106.68402777777774,0)" xlink:href="#az"/></g><g id="av"><use transform="matrix(0.008680555555555554,0,0,0.008680555555555554,0,0)" xlink:href="#aK"/><use transform="matrix(0.008680555555555554,0,0,0.008680555555555554,10.668402777777777,0)" xlink:href="#aI"/><use transform="matrix(0.008680555555555554,0,0,0.008680555555555554,21.336805555555554,0)" xlink:href="#ax"/><use transform="matrix(0.008680555555555554,0,0,0.008680555555555554,32.00520833333333,0)" xlink:href="#bb"/></g><g id="aw"><use transform="matrix(0.008680555555555554,0,0,0.008680555555555554,0,0)" xlink:href="#aF"/><use transform="matrix(0.008680555555555554,0,0,0.008680555555555554,10.668402777777777,0)" xlink:href="#aR"/><use transform="matrix(0.008680555555555554,0,0,0.008680555555555554,21.336805555555554,0)" xlink:href="#aG"/><use transform="matrix(0.008680555555555554,0,0,0.008680555555555554,32.00520833333333,0)" xlink:href="#az"/><use transform="matrix(0.008680555555555554,0,0,0.008680555555555554,42.67361111111111,0)" xlink:href="#bm"/></g></defs></g></svg>