<svg xmlns="http://www.w3.org/2000/svg" xmlns:xlink="http://www.w3.org/1999/xlink"><g transform="translate(-134 -140)"><path d="M650.5 282.5a6 6 0 0 1 6-6h348a6 6 0 0 1 6 6v308a6 6 0 0 1-6 6h-348a6 6 0 0 1-6-6z" fill="#fff"/><path d="M650.5 282.5a6 6 0 0 1 6-6h348a6 6 0 0 1 6 6v308a6 6 0 0 1-6 6h-348a6 6 0 0 1-6-6zM650.5 316.5h360M710.5 316.5v280M883.5 316.5v280" stroke="#3a414a" fill="none"/><use xlink:href="#a" transform="matrix(1,0,0,1,660.4999571428573,276.5) translate(148.66319444444446 25.32986111111111)"/><use xlink:href="#b" transform="matrix(1,0,0,1,655.4999571428573,319) translate(14.331597222222223 16.82986111111111)"/><use xlink:href="#c" transform="matrix(1,0,0,1,715.4999571428573,319) translate(0 16.82986111111111)"/><use xlink:href="#d" transform="matrix(1,0,0,1,888.4999571428573,319) translate(0 16.82986111111111)"/><use xlink:href="#e" transform="matrix(1,0,0,1,715.4999571428573,347) translate(0 16.82986111111111)"/><use xlink:href="#f" transform="matrix(1,0,0,1,888.4999571428573,347) translate(0 16.82986111111111)"/><use xlink:href="#g" transform="matrix(1,0,0,1,715.4999571428573,375) translate(0 16.82986111111111)"/><use xlink:href="#f" transform="matrix(1,0,0,1,888.4999571428573,375) translate(0 16.82986111111111)"/><use xlink:href="#h" transform="matrix(1,0,0,1,715.4999571428573,403) translate(0 16.82986111111111)"/><use xlink:href="#f" transform="matrix(1,0,0,1,888.4999571428573,403) translate(0 16.82986111111111)"/><use xlink:href="#i" transform="matrix(1,0,0,1,655.4999571428573,431) translate(14.331597222222223 16.82986111111111)"/><use xlink:href="#j" transform="matrix(1,0,0,1,715.4999571428573,431) translate(0 16.82986111111111)"/><use xlink:href="#k" transform="matrix(1,0,0,1,888.4999571428573,431) translate(0 16.82986111111111)"/><use xlink:href="#l" transform="matrix(1,0,0,1,655.4999571428573,459) translate(14.331597222222223 16.82986111111111)"/><use xlink:href="#m" transform="matrix(1,0,0,1,715.4999571428573,459) translate(0 16.82986111111111)"/><use xlink:href="#d" transform="matrix(1,0,0,1,888.4999571428573,459) translate(0 16.82986111111111)"/><use xlink:href="#n" transform="matrix(1,0,0,1,715.4999571428573,487) translate(0 16.82986111111111)"/><use xlink:href="#o" transform="matrix(1,0,0,1,888.4999571428573,487) translate(0 16.82986111111111)"/><use xlink:href="#p" transform="matrix(1,0,0,1,715.4999571428573,515) translate(0 16.82986111111111)"/><use xlink:href="#f" transform="matrix(1,0,0,1,888.4999571428573,515) translate(0 16.82986111111111)"/><use xlink:href="#q" transform="matrix(1,0,0,1,715.4999571428573,543) translate(0 16.82986111111111)"/><use xlink:href="#f" transform="matrix(1,0,0,1,888.4999571428573,543) translate(0 16.82986111111111)"/><use xlink:href="#r" transform="matrix(1,0,0,1,715.4999571428573,571) translate(0 16.82986111111111)"/><use xlink:href="#s" transform="matrix(1,0,0,1,888.4999571428573,571) translate(0 16.82986111111111)"/><path d="M180.5 494.6a6 6 0 0 1 6-6h328a6 6 0 0 1 6 6v112a6 6 0 0 1-6 6h-328a6 6 0 0 1-6-6z" fill="#fff"/><path d="M180.5 494.6a6 6 0 0 1 6-6h328a6 6 0 0 1 6 6v112a6 6 0 0 1-6 6h-328a6 6 0 0 1-6-6zM180.5 528.6h340M240.5 528.6v84M393.5 528.6v84" stroke="#3a414a" fill="none"/><use xlink:href="#t" transform="matrix(1,0,0,1,190.49995714285734,488.5923714605259) translate(127.99479166666667 25.32986111111111)"/><use xlink:href="#b" transform="matrix(1,0,0,1,185.49995714285734,531.0923714605259) translate(14.331597222222223 16.82986111111111)"/><use xlink:href="#u" transform="matrix(1,0,0,1,245.49995714285734,531.0923714605259) translate(0 16.82986111111111)"/><use xlink:href="#d" transform="matrix(1,0,0,1,398.49995714285734,531.0923714605259) translate(0 16.82986111111111)"/><use xlink:href="#g" transform="matrix(1,0,0,1,245.49995714285734,559.0923714605259) translate(0 16.82986111111111)"/><use xlink:href="#f" transform="matrix(1,0,0,1,398.49995714285734,559.0923714605259) translate(0 16.82986111111111)"/><use xlink:href="#v" transform="matrix(1,0,0,1,245.49995714285734,587.0923714605259) translate(0 16.82986111111111)"/><use xlink:href="#f" transform="matrix(1,0,0,1,398.49995714285734,587.0923714605259) translate(0 16.82986111111111)"/><path d="M180.5 684.04a6 6 0 0 1 6-6h328a6 6 0 0 1 6 6v84a6 6 0 0 1-6 6h-328a6 6 0 0 1-6-6z" fill="#fff"/><path d="M180.5 684.04a6 6 0 0 1 6-6h328a6 6 0 0 1 6 6v84a6 6 0 0 1-6 6h-328a6 6 0 0 1-6-6zM180.5 718.04h340M264.5 718.04v56M393.13 718.04v56" stroke="#3a414a" fill="none"/><use xlink:href="#w" transform="matrix(1,0,0,1,190.4999571428574,678.0439800671045) translate(95.98958333333336 25.32986111111111)"/><use xlink:href="#x" transform="matrix(1,0,0,1,185.4999571428574,720.5439800671045) translate(15.663194444444446 16.82986111111111)"/><use xlink:href="#c" transform="matrix(1,0,0,1,269.4999571428574,720.5439800671045) translate(0 16.82986111111111)"/><use xlink:href="#d" transform="matrix(1,0,0,1,398.13385826771685,720.5439800671045) translate(0 16.82986111111111)"/><use xlink:href="#x" transform="matrix(1,0,0,1,185.4999571428574,748.5439800671045) translate(15.663194444444446 16.82986111111111)"/><use xlink:href="#u" transform="matrix(1,0,0,1,269.4999571428574,748.5439800671045) translate(0 16.82986111111111)"/><use xlink:href="#d" transform="matrix(1,0,0,1,398.13385826771685,748.5439800671045) translate(0 16.82986111111111)"/><path d="M630 330.5h-38.5a6 6 0 0 0-6 6v384.8a6 6 0 0 1-6 6h-39.1" stroke="#3a414a" fill="none"/><path d="M630 320.5v20M650 330.5h-20" stroke="#3a414a" fill="#fff"/><path d="M521.22 717.3l20 10-20 10" stroke="#3a414a" fill="#fff" fill-opacity="0"/><path d="M521.22 727.3h20" stroke="#3a414a" fill="#fff"/><path d="M160 542.6h-14a6 6 0 0 0-6 6v203.87a6 6 0 0 0 6 6h14.6" stroke="#3a414a" fill="none"/><path d="M160 532.6v20M180 542.6h-20" stroke="#3a414a" fill="#fff"/><path d="M179.78 768.47l-20-10 20-10" stroke="#3a414a" fill="#fff" fill-opacity="0"/><path d="M179.78 758.47h-20" stroke="#3a414a" fill="#fff"/><path d="M660.5 842.78a6 6 0 0 1 6-6h328a6 6 0 0 1 6 6v196a6 6 0 0 1-6 6h-328a6 6 0 0 1-6-6z" fill="#fff"/><path d="M660.5 842.78a6 6 0 0 1 6-6h328a6 6 0 0 1 6 6v196a6 6 0 0 1-6 6h-328a6 6 0 0 1-6-6zM660.5 876.78h340M744.5 876.78v168M873.5 876.78v168" stroke="#3a414a" fill="none"/><use xlink:href="#y" transform="matrix(1,0,0,1,670.4999571428573,836.7771143815777) translate(127.99479166666667 25.32986111111111)"/><use xlink:href="#b" transform="matrix(1,0,0,1,665.4999571428573,879.2771143815777) translate(26.33159722222222 16.82986111111111)"/><use xlink:href="#z" transform="matrix(1,0,0,1,749.4999571428573,879.2771143815777) translate(0 16.82986111111111)"/><use xlink:href="#d" transform="matrix(1,0,0,1,878.4999571428573,879.2771143815777) translate(0 16.82986111111111)"/><use xlink:href="#l" transform="matrix(1,0,0,1,665.4999571428573,907.2771143815777) translate(26.33159722222222 16.82986111111111)"/><use xlink:href="#A" transform="matrix(1,0,0,1,749.4999571428573,907.2771143815777) translate(0 16.82986111111111)"/><use xlink:href="#d" transform="matrix(1,0,0,1,878.4999571428573,907.2771143815777) translate(0 16.82986111111111)"/><use xlink:href="#l" transform="matrix(1,0,0,1,665.4999571428573,935.2771143815777) translate(26.33159722222222 16.82986111111111)"/><use xlink:href="#B" transform="matrix(1,0,0,1,749.4999571428573,935.2771143815777) translate(0 16.82986111111111)"/><use xlink:href="#d" transform="matrix(1,0,0,1,878.4999571428573,935.2771143815777) translate(0 16.82986111111111)"/><use xlink:href="#l" transform="matrix(1,0,0,1,665.4999571428573,963.2771143815777) translate(26.33159722222222 16.82986111111111)"/><use xlink:href="#C" transform="matrix(1,0,0,1,749.4999571428573,963.2771143815777) translate(0 16.82986111111111)"/><use xlink:href="#d" transform="matrix(1,0,0,1,878.4999571428573,963.2771143815777) translate(0 16.82986111111111)"/><use xlink:href="#D" transform="matrix(1,0,0,1,749.4999571428573,991.2771143815777) translate(0 16.82986111111111)"/><use xlink:href="#f" transform="matrix(1,0,0,1,878.4999571428573,991.2771143815777) translate(0 16.82986111111111)"/><use xlink:href="#E" transform="matrix(1,0,0,1,749.4999571428573,1019.2771143815777) translate(0 16.82986111111111)"/><use xlink:href="#F" transform="matrix(1,0,0,1,878.4999571428573,1019.2771143815777) translate(0 16.82986111111111)"/><path d="M660 1066.87a6 6 0 0 1 6-6h328a6 6 0 0 1 6 6v84a6 6 0 0 1-6 6H666a6 6 0 0 1-6-6z" fill="#fff"/><path d="M660 1066.87a6 6 0 0 1 6-6h328a6 6 0 0 1 6 6v84a6 6 0 0 1-6 6H666a6 6 0 0 1-6-6zM660 1100.87h340M744 1100.87v56M873 1100.87v56" stroke="#3a414a" fill="none"/><use xlink:href="#G" transform="matrix(1,0,0,1,670,1060.8694858421036) translate(106.65798611111113 25.32986111111111)"/><use xlink:href="#b" transform="matrix(1,0,0,1,665,1103.3694858421036) translate(26.33159722222222 16.82986111111111)"/><use xlink:href="#C" transform="matrix(1,0,0,1,749,1103.3694858421036) translate(0 16.82986111111111)"/><use xlink:href="#d" transform="matrix(1,0,0,1,878,1103.3694858421036) translate(0 16.82986111111111)"/><use xlink:href="#g" transform="matrix(1,0,0,1,749,1131.3694858421036) translate(0 16.82986111111111)"/><use xlink:href="#f" transform="matrix(1,0,0,1,878,1131.3694858421036) translate(0 16.82986111111111)"/><path d="M639.5 1114.9h-14a6 6 0 0 1-6-6V980.77a6 6 0 0 1 6-6h15.1" stroke="#3a414a" fill="none"/><path d="M639.5 1104.9v20M659.5 1114.9h-20" stroke="#3a414a" fill="#fff"/><path d="M659.78 984.78l-20-10 20-10" stroke="#3a414a" fill="#fff" fill-opacity="0"/><path d="M659.78 974.78h-20" stroke="#3a414a" fill="#fff"/><path d="M630 330.5h-24a6 6 0 0 0-6 6v576.28a6 6 0 0 0 6 6h34.6" stroke="#3a414a" fill="none"/><path d="M630 320.5v20M650 330.5h-20" stroke="#3a414a" fill="#fff"/><path d="M659.78 928.78l-20-10 20-10" stroke="#3a414a" fill="#fff" fill-opacity="0"/><path d="M659.78 918.78h-20" stroke="#3a414a" fill="#fff"/><path d="M630 330.5h-24a6 6 0 0 0-6 6v604.28a6 6 0 0 0 6 6h34.6" stroke="#3a414a" fill="none"/><path d="M630 320.5v20M650 330.5h-20" stroke="#3a414a" fill="#fff"/><path d="M659.78 956.78l-20-10 20-10" stroke="#3a414a" fill="#fff" fill-opacity="0"/><path d="M659.78 946.78h-20" stroke="#3a414a" fill="#fff"/><path d="M180.5 306a6 6 0 0 1 6-6h328a6 6 0 0 1 6 6v112a6 6 0 0 1-6 6h-328a6 6 0 0 1-6-6z" fill="#fff"/><path d="M180.5 306a6 6 0 0 1 6-6h328a6 6 0 0 1 6 6v112a6 6 0 0 1-6 6h-328a6 6 0 0 1-6-6zM180.5 340h340M264.5 340v84M393.5 340v84" stroke="#3a414a" fill="none"/><use xlink:href="#H" transform="matrix(1,0,0,1,190.4999571428574,300) translate(85.32118055555559 25.32986111111111)"/><use xlink:href="#x" transform="matrix(1,0,0,1,185.4999571428574,342.5) translate(15.663194444444446 16.82986111111111)"/><use xlink:href="#I" transform="matrix(1,0,0,1,269.4999571428574,342.5) translate(0 16.82986111111111)"/><use xlink:href="#d" transform="matrix(1,0,0,1,398.4999571428574,342.5) translate(0 16.82986111111111)"/><use xlink:href="#x" transform="matrix(1,0,0,1,185.4999571428574,370.5) translate(15.663194444444446 16.82986111111111)"/><use xlink:href="#J" transform="matrix(1,0,0,1,269.4999571428574,370.5) translate(0 16.82986111111111)"/><use xlink:href="#d" transform="matrix(1,0,0,1,398.4999571428574,370.5) translate(0 16.82986111111111)"/><use xlink:href="#K" transform="matrix(1,0,0,1,269.4999571428574,398.5) translate(0 16.82986111111111)"/><use xlink:href="#F" transform="matrix(1,0,0,1,398.4999571428574,398.5) translate(0 16.82986111111111)"/><path d="M660 618.6a6 6 0 0 1 6-6h328a6 6 0 0 1 6 6v84a6 6 0 0 1-6 6H666a6 6 0 0 1-6-6z" fill="#fff"/><path d="M660 618.6a6 6 0 0 1 6-6h328a6 6 0 0 1 6 6v84a6 6 0 0 1-6 6H666a6 6 0 0 1-6-6zM660 652.6h340M744 652.6v56M873 652.6v56" stroke="#3a414a" fill="none"/><use xlink:href="#L" transform="matrix(1,0,0,1,670,612.5923714605259) translate(90.65538194444447 25.32986111111111)"/><use xlink:href="#b" transform="matrix(1,0,0,1,665,655.0923714605259) translate(26.33159722222222 16.82986111111111)"/><use xlink:href="#M" transform="matrix(1,0,0,1,749,655.0923714605259) translate(0 16.82986111111111)"/><use xlink:href="#d" transform="matrix(1,0,0,1,878,655.0923714605259) translate(0 16.82986111111111)"/><use xlink:href="#g" transform="matrix(1,0,0,1,749,683.0923714605259) translate(0 16.82986111111111)"/><use xlink:href="#f" transform="matrix(1,0,0,1,878,683.0923714605259) translate(0 16.82986111111111)"/><path d="M1020.5 666.6h13.5a6 6 0 0 0 6-6V476.5a6 6 0 0 0-6-6h-3.6" stroke="#3a414a" fill="none"/><path d="M1020.5 676.6v-20M1000.5 666.6h20" stroke="#3a414a" fill="#fff"/><path d="M1011.22 460.5l20 10-20 10" stroke="#3a414a" fill="#fff" fill-opacity="0"/><path d="M1011.22 470.5h20" stroke="#3a414a" fill="#fff"/><path d="M1120 166a6 6 0 0 1 6-6h328a6 6 0 0 1 6 6v140a6 6 0 0 1-6 6h-328a6 6 0 0 1-6-6z" fill="#fff"/><path d="M1120 166a6 6 0 0 1 6-6h328a6 6 0 0 1 6 6v140a6 6 0 0 1-6 6h-328a6 6 0 0 1-6-6zM1120 200h340M1204 200v112M1333 200v112" stroke="#3a414a" fill="none"/><use xlink:href="#N" transform="matrix(1,0,0,1,1130,160) translate(117.3263888888889 25.32986111111111)"/><use xlink:href="#b" transform="matrix(1,0,0,1,1125,202.5) translate(26.33159722222222 16.82986111111111)"/><use xlink:href="#O" transform="matrix(1,0,0,1,1209,202.5) translate(0 16.82986111111111)"/><use xlink:href="#d" transform="matrix(1,0,0,1,1338,202.5) translate(0 16.82986111111111)"/><use xlink:href="#l" transform="matrix(1,0,0,1,1125,230.5) translate(26.33159722222222 16.82986111111111)"/><use xlink:href="#c" transform="matrix(1,0,0,1,1209,230.5) translate(0 16.82986111111111)"/><use xlink:href="#d" transform="matrix(1,0,0,1,1338,230.5) translate(0 16.82986111111111)"/><use xlink:href="#P" transform="matrix(1,0,0,1,1209,258.5) translate(0 16.82986111111111)"/><use xlink:href="#f" transform="matrix(1,0,0,1,1338,258.5) translate(0 16.82986111111111)"/><use xlink:href="#Q" transform="matrix(1,0,0,1,1209,286.5) translate(0 16.82986111111111)"/><use xlink:href="#f" transform="matrix(1,0,0,1,1338,286.5) translate(0 16.82986111111111)"/><path d="M1120 334a6 6 0 0 1 6-6h328a6 6 0 0 1 6 6v140a6 6 0 0 1-6 6h-328a6 6 0 0 1-6-6z" fill="#fff"/><path d="M1120 334a6 6 0 0 1 6-6h328a6 6 0 0 1 6 6v140a6 6 0 0 1-6 6h-328a6 6 0 0 1-6-6zM1120 368h340M1204 368v112M1333 368v112" stroke="#3a414a" fill="none"/><use xlink:href="#R" transform="matrix(1,0,0,1,1130,328) translate(117.3263888888889 25.32986111111111)"/><use xlink:href="#b" transform="matrix(1,0,0,1,1125,370.5) translate(26.33159722222222 16.82986111111111)"/><use xlink:href="#O" transform="matrix(1,0,0,1,1209,370.5) translate(0 16.82986111111111)"/><use xlink:href="#d" transform="matrix(1,0,0,1,1338,370.5) translate(0 16.82986111111111)"/><use xlink:href="#l" transform="matrix(1,0,0,1,1125,398.5) translate(26.33159722222222 16.82986111111111)"/><use xlink:href="#c" transform="matrix(1,0,0,1,1209,398.5) translate(0 16.82986111111111)"/><use xlink:href="#d" transform="matrix(1,0,0,1,1338,398.5) translate(0 16.82986111111111)"/><use xlink:href="#S" transform="matrix(1,0,0,1,1209,426.5) translate(0 16.82986111111111)"/><use xlink:href="#T" transform="matrix(1,0,0,1,1338,426.5) translate(0 16.82986111111111)"/><use xlink:href="#v" transform="matrix(1,0,0,1,1209,454.5) translate(0 16.82986111111111)"/><use xlink:href="#f" transform="matrix(1,0,0,1,1338,454.5) translate(0 16.82986111111111)"/><path d="M1120 502a6 6 0 0 1 6-6h328a6 6 0 0 1 6 6v168a6 6 0 0 1-6 6h-328a6 6 0 0 1-6-6z" fill="#fff"/><path d="M1120 502a6 6 0 0 1 6-6h328a6 6 0 0 1 6 6v168a6 6 0 0 1-6 6h-328a6 6 0 0 1-6-6zM1120 536h340M1204 536v140M1333 536v140" stroke="#3a414a" fill="none"/><use xlink:href="#U" transform="matrix(1,0,0,1,1130,495.9977943368415) translate(138.66319444444446 25.32986111111111)"/><use xlink:href="#b" transform="matrix(1,0,0,1,1125,538.4977943368415) translate(26.33159722222222 16.82986111111111)"/><use xlink:href="#O" transform="matrix(1,0,0,1,1209,538.4977943368415) translate(0 16.82986111111111)"/><use xlink:href="#d" transform="matrix(1,0,0,1,1338,538.4977943368415) translate(0 16.82986111111111)"/><use xlink:href="#l" transform="matrix(1,0,0,1,1125,566.4977943368415) translate(26.33159722222222 16.82986111111111)"/><use xlink:href="#c" transform="matrix(1,0,0,1,1209,566.4977943368415) translate(0 16.82986111111111)"/><use xlink:href="#d" transform="matrix(1,0,0,1,1338,566.4977943368415) translate(0 16.82986111111111)"/><use xlink:href="#V" transform="matrix(1,0,0,1,1209,594.4977943368415) translate(0 16.82986111111111)"/><use xlink:href="#f" transform="matrix(1,0,0,1,1338,594.4977943368415) translate(0 16.82986111111111)"/><use xlink:href="#W" transform="matrix(1,0,0,1,1209,622.4977943368415) translate(0 16.82986111111111)"/><use xlink:href="#f" transform="matrix(1,0,0,1,1338,622.4977943368415) translate(0 16.82986111111111)"/><use xlink:href="#X" transform="matrix(1,0,0,1,1209,650.4977943368415) translate(0 16.82986111111111)"/><use xlink:href="#f" transform="matrix(1,0,0,1,1338,650.4977943368415) translate(0 16.82986111111111)"/><path d="M1120 894a6 6 0 0 1 6-6h328a6 6 0 0 1 6 6v140a6 6 0 0 1-6 6h-328a6 6 0 0 1-6-6z" fill="#fff"/><path d="M1120 894a6 6 0 0 1 6-6h328a6 6 0 0 1 6 6v140a6 6 0 0 1-6 6h-328a6 6 0 0 1-6-6zM1120 928h340M1204 928v112M1333 928v112" stroke="#3a414a" fill="none"/><use xlink:href="#Y" transform="matrix(1,0,0,1,1130,887.9933830105244) translate(138.66319444444446 25.32986111111111)"/><use xlink:href="#b" transform="matrix(1,0,0,1,1125,930.4933830105244) translate(26.33159722222222 16.82986111111111)"/><use xlink:href="#O" transform="matrix(1,0,0,1,1209,930.4933830105244) translate(0 16.82986111111111)"/><use xlink:href="#d" transform="matrix(1,0,0,1,1338,930.4933830105244) translate(0 16.82986111111111)"/><use xlink:href="#l" transform="matrix(1,0,0,1,1125,958.4933830105244) translate(26.33159722222222 16.82986111111111)"/><use xlink:href="#c" transform="matrix(1,0,0,1,1209,958.4933830105244) translate(0 16.82986111111111)"/><use xlink:href="#d" transform="matrix(1,0,0,1,1338,958.4933830105244) translate(0 16.82986111111111)"/><use xlink:href="#g" transform="matrix(1,0,0,1,1209,986.4933830105244) translate(0 16.82986111111111)"/><use xlink:href="#f" transform="matrix(1,0,0,1,1338,986.4933830105244) translate(0 16.82986111111111)"/><use xlink:href="#Z" transform="matrix(1,0,0,1,1209,1014.4933830105244) translate(0 16.82986111111111)"/><use xlink:href="#f" transform="matrix(1,0,0,1,1338,1014.4933830105244) translate(0 16.82986111111111)"/><path d="M1120 698a6 6 0 0 1 6-6h328a6 6 0 0 1 6 6v168a6 6 0 0 1-6 6h-328a6 6 0 0 1-6-6z" fill="#fff"/><path d="M1120 698a6 6 0 0 1 6-6h328a6 6 0 0 1 6 6v168a6 6 0 0 1-6 6h-328a6 6 0 0 1-6-6zM1120 732h340M1204 732v140M1333 732v140" stroke="#3a414a" fill="none"/><use xlink:href="#aa" transform="matrix(1,0,0,1,1130,691.995588673683) translate(127.99479166666667 25.32986111111111)"/><use xlink:href="#b" transform="matrix(1,0,0,1,1125,734.495588673683) translate(26.33159722222222 16.82986111111111)"/><use xlink:href="#O" transform="matrix(1,0,0,1,1209,734.495588673683) translate(0 16.82986111111111)"/><use xlink:href="#d" transform="matrix(1,0,0,1,1338,734.495588673683) translate(0 16.82986111111111)"/><use xlink:href="#l" transform="matrix(1,0,0,1,1125,762.495588673683) translate(26.33159722222222 16.82986111111111)"/><use xlink:href="#c" transform="matrix(1,0,0,1,1209,762.495588673683) translate(0 16.82986111111111)"/><use xlink:href="#d" transform="matrix(1,0,0,1,1338,762.495588673683) translate(0 16.82986111111111)"/><use xlink:href="#ab" transform="matrix(1,0,0,1,1209,790.495588673683) translate(0 16.82986111111111)"/><use xlink:href="#f" transform="matrix(1,0,0,1,1338,790.495588673683) translate(0 16.82986111111111)"/><use xlink:href="#ac" transform="matrix(1,0,0,1,1209,818.495588673683) translate(0 16.82986111111111)"/><use xlink:href="#f" transform="matrix(1,0,0,1,1338,818.495588673683) translate(0 16.82986111111111)"/><use xlink:href="#Z" transform="matrix(1,0,0,1,1209,846.495588673683) translate(0 16.82986111111111)"/><use xlink:href="#f" transform="matrix(1,0,0,1,1338,846.495588673683) translate(0 16.82986111111111)"/><path d="M1031 330.5h28.25a6 6 0 0 1 6 6v235.47a6 6 0 0 0 6 6h28.84" stroke="#3a414a" fill="none"/><path d="M1031 340.5v-20M1011 330.5h20" stroke="#3a414a" fill="#fff"/><path d="M1119.28 587.97l-20-10 20-10" stroke="#3a414a" fill="#fff" fill-opacity="0"/><path d="M1119.28 577.97h-20" stroke="#3a414a" fill="#fff"/><path d="M1031 330.5h28.25a6 6 0 0 1 6 6v431.47a6 6 0 0 0 6 6h28.84" stroke="#3a414a" fill="none"/><path d="M1031 340.5v-20M1011 330.5h20" stroke="#3a414a" fill="#fff"/><path d="M1119.28 783.97l-20-10 20-10" stroke="#3a414a" fill="#fff" fill-opacity="0"/><path d="M1119.28 773.97h-20" stroke="#3a414a" fill="#fff"/><path d="M1031 330.5h28.25a6 6 0 0 1 6 6V964a6 6 0 0 0 6 6h28.84" stroke="#3a414a" fill="none"/><path d="M1031 340.5v-20M1011 330.5h20" stroke="#3a414a" fill="#fff"/><path d="M1119.28 980l-20-10 20-10" stroke="#3a414a" fill="#fff" fill-opacity="0"/><path d="M1119.28 970h-20" stroke="#3a414a" fill="#fff"/><path d="M1031 330.5h28.25a6 6 0 0 1 6 6v67.52a6 6 0 0 0 6 6h28.84" stroke="#3a414a" fill="none"/><path d="M1031 340.5v-20M1011 330.5h20" stroke="#3a414a" fill="#fff"/><path d="M1119.28 420.02l-20-10 20-10" stroke="#3a414a" fill="#fff" fill-opacity="0"/><path d="M1119.28 410.02h-20" stroke="#3a414a" fill="#fff"/><path d="M1031 330.5h28.25a6 6 0 0 0 6-6v-76.48a6 6 0 0 1 6-6h28.84" stroke="#3a414a" fill="none"/><path d="M1031 340.5v-20M1011 330.5h20" stroke="#3a414a" fill="#fff"/><path d="M1119.28 252.02l-20-10 20-10" stroke="#3a414a" fill="#fff" fill-opacity="0"/><path d="M1119.28 242.02h-20" stroke="#3a414a" fill="#fff"/><path d="M630 330.5h-38.5a6 6 0 0 0-6 6V348a6 6 0 0 1-6 6h-39.1" stroke="#3a414a" fill="none"/><path d="M630 320.5v20M650 330.5h-20" stroke="#3a414a" fill="#fff"/><path d="M521.22 344l20 10-20 10" stroke="#3a414a" fill="#fff" fill-opacity="0"/><path d="M521.22 354h20" stroke="#3a414a" fill="#fff"/><path d="M630 330.5h-38.5a6 6 0 0 0-6 6V376a6 6 0 0 1-6 6h-39.1" stroke="#3a414a" fill="none"/><path d="M630 320.5v20M650 330.5h-20" stroke="#3a414a" fill="#fff"/><path d="M521.22 372l20 10-20 10" stroke="#3a414a" fill="#fff" fill-opacity="0"/><path d="M521.22 382h20" stroke="#3a414a" fill="#fff"/><path d="M1120 1062a6 6 0 0 1 6-6h328a6 6 0 0 1 6 6v168a6 6 0 0 1-6 6h-328a6 6 0 0 1-6-6z" fill="#fff"/><path d="M1120 1062a6 6 0 0 1 6-6h328a6 6 0 0 1 6 6v168a6 6 0 0 1-6 6h-328a6 6 0 0 1-6-6zM1120 1096h340M1204 1096v140M1333 1096v140" stroke="#3a414a" fill="none"/><use xlink:href="#ad" transform="matrix(1,0,0,1,1130,1055.991177347366) translate(95.98958333333336 25.32986111111111)"/><use xlink:href="#b" transform="matrix(1,0,0,1,1125,1098.491177347366) translate(26.33159722222222 16.82986111111111)"/><use xlink:href="#O" transform="matrix(1,0,0,1,1209,1098.491177347366) translate(0 16.82986111111111)"/><use xlink:href="#d" transform="matrix(1,0,0,1,1338,1098.491177347366) translate(0 16.82986111111111)"/><use xlink:href="#l" transform="matrix(1,0,0,1,1125,1126.491177347366) translate(26.33159722222222 16.82986111111111)"/><use xlink:href="#c" transform="matrix(1,0,0,1,1209,1126.491177347366) translate(0 16.82986111111111)"/><use xlink:href="#d" transform="matrix(1,0,0,1,1338,1126.491177347366) translate(0 16.82986111111111)"/><use xlink:href="#P" transform="matrix(1,0,0,1,1209,1154.491177347366) translate(0 16.82986111111111)"/><use xlink:href="#f" transform="matrix(1,0,0,1,1338,1154.491177347366) translate(0 16.82986111111111)"/><use xlink:href="#Q" transform="matrix(1,0,0,1,1209,1182.491177347366) translate(0 16.82986111111111)"/><use xlink:href="#f" transform="matrix(1,0,0,1,1338,1182.491177347366) translate(0 16.82986111111111)"/><use xlink:href="#ae" transform="matrix(1,0,0,1,1209,1210.491177347366) translate(0 16.82986111111111)"/><use xlink:href="#F" transform="matrix(1,0,0,1,1338,1210.491177347366) translate(0 16.82986111111111)"/><path d="M1031 330.5h28.25a6 6 0 0 1 6 6v795.47a6 6 0 0 0 6 6h28.84" stroke="#3a414a" fill="none"/><path d="M1031 340.5v-20M1011 330.5h20" stroke="#3a414a" fill="#fff"/><path d="M1119.28 1147.97l-20-10 20-10" stroke="#3a414a" fill="#fff" fill-opacity="0"/><path d="M1119.28 1137.97h-20" stroke="#3a414a" fill="#fff"/><path d="M180.5 845.5a6 6 0 0 1 6-6h328a6 6 0 0 1 6 6v84a6 6 0 0 1-6 6h-328a6 6 0 0 1-6-6z" fill="#fff"/><path d="M180.5 845.5a6 6 0 0 1 6-6h328a6 6 0 0 1 6 6v84a6 6 0 0 1-6 6h-328a6 6 0 0 1-6-6zM180.5 879.5h340M240.5 879.5v56M393.5 879.5v56" stroke="#3a414a" fill="none"/><use xlink:href="#af" transform="matrix(1,0,0,1,190.4999571428574,839.4955886736831) translate(127.99479166666667 25.32986111111111)"/><use xlink:href="#b" transform="matrix(1,0,0,1,185.4999571428574,881.9955886736831) translate(14.331597222222223 16.82986111111111)"/><use xlink:href="#ag" transform="matrix(1,0,0,1,245.4999571428574,881.9955886736831) translate(0 16.82986111111111)"/><use xlink:href="#d" transform="matrix(1,0,0,1,398.4999571428574,881.9955886736831) translate(0 16.82986111111111)"/><use xlink:href="#g" transform="matrix(1,0,0,1,245.4999571428574,909.9955886736831) translate(0 16.82986111111111)"/><use xlink:href="#f" transform="matrix(1,0,0,1,398.4999571428574,909.9955886736831) translate(0 16.82986111111111)"/><path d="M180.5 1006.95a6 6 0 0 1 6-6h328a6 6 0 0 1 6 6v84a6 6 0 0 1-6 6h-328a6 6 0 0 1-6-6z" fill="#fff"/><path d="M180.5 1006.95a6 6 0 0 1 6-6h328a6 6 0 0 1 6 6v84a6 6 0 0 1-6 6h-328a6 6 0 0 1-6-6zM180.5 1040.95h340M264.5 1040.95v56M393.13 1040.95v56" stroke="#3a414a" fill="none"/><use xlink:href="#ah" transform="matrix(1,0,0,1,190.4999571428574,1000.9471972802617) translate(95.98958333333336 25.32986111111111)"/><use xlink:href="#x" transform="matrix(1,0,0,1,185.4999571428574,1043.4471972802617) translate(15.663194444444446 16.82986111111111)"/><use xlink:href="#c" transform="matrix(1,0,0,1,269.4999571428574,1043.4471972802617) translate(0 16.82986111111111)"/><use xlink:href="#d" transform="matrix(1,0,0,1,398.13385826771685,1043.4471972802617) translate(0 16.82986111111111)"/><use xlink:href="#x" transform="matrix(1,0,0,1,185.4999571428574,1071.4471972802617) translate(15.663194444444446 16.82986111111111)"/><use xlink:href="#ag" transform="matrix(1,0,0,1,269.4999571428574,1071.4471972802617) translate(0 16.82986111111111)"/><use xlink:href="#d" transform="matrix(1,0,0,1,398.13385826771685,1071.4471972802617) translate(0 16.82986111111111)"/><path d="M160 893.5h-14a6 6 0 0 0-6 6v177.45a6 6 0 0 0 6 6h14.6" stroke="#3a414a" fill="none"/><path d="M160 883.5v20M180 893.5h-20" stroke="#3a414a" fill="#fff"/><path d="M179.78 1092.95l-20-10 20-10" stroke="#3a414a" fill="#fff" fill-opacity="0"/><path d="M179.78 1082.95h-20" stroke="#3a414a" fill="#fff"/><path d="M630 330.5h-38.5a6 6 0 0 0-6 6v712.46a6 6 0 0 1-6 6h-39.1" stroke="#3a414a" fill="none"/><path d="M630 320.5v20M650 330.5h-20" stroke="#3a414a" fill="#fff"/><path d="M521.22 1044.96l20 10-20 10" stroke="#3a414a" fill="#fff" fill-opacity="0"/><path d="M521.22 1054.96h20" stroke="#3a414a" fill="#fff"/><path d="M660.5 730.68a6 6 0 0 1 6-6h328a6 6 0 0 1 6 6v84a6 6 0 0 1-6 6h-328a6 6 0 0 1-6-6z" fill="#fff"/><path d="M660.5 730.68a6 6 0 0 1 6-6h328a6 6 0 0 1 6 6v84a6 6 0 0 1-6 6h-328a6 6 0 0 1-6-6zM660.5 764.68h340M744.5 764.68v56M873.5 764.68v56" stroke="#3a414a" fill="none"/><use xlink:href="#ai" transform="matrix(1,0,0,1,670.4999571428573,724.6847429210518) translate(127.99479166666667 25.32986111111111)"/><use xlink:href="#aj" transform="matrix(1,0,0,1,665.4999571428573,767.1847429210518) translate(26.33159722222222 16.82986111111111)"/><use xlink:href="#ak" transform="matrix(1,0,0,1,749.4999571428573,767.1847429210518) translate(0 16.82986111111111)"/><use xlink:href="#k" transform="matrix(1,0,0,1,878.4999571428573,767.1847429210518) translate(0 16.82986111111111)"/><use xlink:href="#al" transform="matrix(1,0,0,1,749.4999571428573,795.1847429210518) translate(0 16.82986111111111)"/><use xlink:href="#s" transform="matrix(1,0,0,1,878.4999571428573,795.1847429210518) translate(0 16.82986111111111)"/><path d="M1021 778.7h24a6 6 0 0 0 6-6V448.5a6 6 0 0 0-6-6h-14.6" stroke="#3a414a" fill="none"/><path d="M1021 788.7v-20M1001 778.7h20" stroke="#3a414a" fill="#fff"/><path d="M1011.22 432.5l20 10-20 10" stroke="#3a414a" fill="#fff" fill-opacity="0"/><path d="M1011.22 442.5h20" stroke="#3a414a" fill="#fff"/><defs><path fill="#3a414a" d="M604-135c236 0 291-142 291-376v-838h190v859c5 340-142 510-480 510-326 0-463-164-463-492v-877h191v851c-3 222 46 363 271 363" id="am"/><path fill="#3a414a" d="M873-819c-18-114-119-146-250-146-163 0-245 50-245 151 0 151 170 148 294 185 182 54 388 94 388 320 0 240-189 325-439 329-245 4-410-69-454-268l159-31c24 133 136 168 295 165 144-2 270-31 270-171 0-164-195-160-331-202-167-52-350-87-350-299 0-218 173-315 413-313 220 2 373 77 412 260" id="an"/><path fill="#3a414a" d="M617-1102c355 0 481 238 477 599H322c5 222 84 388 301 388 144 0 244-59 284-166l158 45C1002-72 854 20 623 20c-342 0-490-220-490-568 0-346 151-554 484-554zm291 461c-18-192-90-328-289-328-194 0-287 128-295 328h584" id="ao"/><path fill="#3a414a" d="M839-1102c70 0 148 7 206 17v167c-112-18-268-36-363 15-129 69-208 203-208 395V0H294c-10-367 32-789-52-1082h171c21 75 41 161 48 250h5c67-152 152-270 373-270" id="ap"/><g id="a"><use transform="matrix(0.008680555555555554,0,0,0.008680555555555554,0,0)" xlink:href="#am"/><use transform="matrix(0.008680555555555554,0,0,0.008680555555555554,10.668402777777777,0)" xlink:href="#an"/><use transform="matrix(0.008680555555555554,0,0,0.008680555555555554,21.336805555555554,0)" xlink:href="#ao"/><use transform="matrix(0.008680555555555554,0,0,0.008680555555555554,32.00520833333333,0)" xlink:href="#ap"/></g><path fill="#3a414a" d="M622-1349c296 4 497 117 497 404 0 282-193 424-485 431H353V0H162v-1349h460zm-15 684c195-3 320-88 320-277 0-184-129-255-328-254H353v531h254" id="aq"/><path fill="#3a414a" d="M1003 0L516-638 353-469V0H162v-1349h191v673l572-673h225L646-777 1227 0h-224" id="ar"/><g id="b"><use transform="matrix(0.008680555555555554,0,0,0.008680555555555554,0,0)" xlink:href="#aq"/><use transform="matrix(0.008680555555555554,0,0,0.008680555555555554,10.668402777777777,0)" xlink:href="#ar"/></g><path fill="#3a414a" d="M528 20c-247 0-343-132-343-381v-721h180v686c-4 177 45 284 224 277 194-8 279-136 279-336v-627h181c3 360-6 732 6 1082H885c-4-54-7-126-8-185h-3C809-64 714 20 528 20" id="as"/><path fill="#3a414a" d="M-5 220v-96h1238v96H-5" id="at"/><path fill="#3a414a" d="M745-142h380V0H143v-142h422v-798H246v-142h499v940zM545-1292v-192h200v192H545" id="au"/><path fill="#3a414a" d="M865-914c-3-187-2-380-2-570h180v1261c0 76 1 155 6 223H877c-8-49-9-116-10-174h-5C801-44 708 26 530 26c-135 0-234-46-297-139s-95-232-95-419c0-377 131-566 392-566 176 0 271 63 335 184zm-286-51c-222 0-255 197-255 427 0 229 31 425 253 425 237 0 286-195 286-441 0-238-52-411-284-411" id="av"/><g id="c"><use transform="matrix(0.008680555555555554,0,0,0.008680555555555554,0,0)" xlink:href="#as"/><use transform="matrix(0.008680555555555554,0,0,0.008680555555555554,10.668402777777777,0)" xlink:href="#an"/><use transform="matrix(0.008680555555555554,0,0,0.008680555555555554,21.336805555555554,0)" xlink:href="#ao"/><use transform="matrix(0.008680555555555554,0,0,0.008680555555555554,32.00520833333333,0)" xlink:href="#ap"/><use transform="matrix(0.008680555555555554,0,0,0.008680555555555554,42.67361111111111,0)" xlink:href="#at"/><use transform="matrix(0.008680555555555554,0,0,0.008680555555555554,53.342013888888886,0)" xlink:href="#au"/><use transform="matrix(0.008680555555555554,0,0,0.008680555555555554,64.01041666666666,0)" xlink:href="#av"/></g><path fill="#3a414a" d="M202-1349h823v156H709v1037h316V0H202v-156h316v-1037H202v-156" id="aw"/><path fill="#3a414a" d="M912-211c-10-84-18-177-18-274v-864h172V0H836L316-1130c7 79 16 167 16 254V0H162v-1349h222" id="ax"/><path fill="#3a414a" d="M709-1193V0H519v-1193H76v-156h1076v156H709" id="ay"/><path fill="#3a414a" d="M162 0v-1349h919v156H353v422h668v154H353v461h769V0H162" id="az"/><path fill="#3a414a" d="M655-135c108 0 195-33 260-74v-336H622v-160h479v572C981-54 839 20 639 20c-388 0-526-306-526-701 0-406 129-689 529-689 261 0 392 137 461 331l-171 56c-47-131-122-231-288-231-281 0-330 245-330 533 0 179 28 314 84 407s142 139 257 139" id="aA"/><path fill="#3a414a" d="M1121-976c0 225-142 341-344 379L1177 0H957L591-575H353V0H162v-1349h482c281 3 477 100 477 373zM633-726c181-1 296-73 296-247 0-149-101-223-304-223H353v470h280" id="aB"/><g id="d"><use transform="matrix(0.008680555555555554,0,0,0.008680555555555554,0,0)" xlink:href="#aw"/><use transform="matrix(0.008680555555555554,0,0,0.008680555555555554,10.668402777777777,0)" xlink:href="#ax"/><use transform="matrix(0.008680555555555554,0,0,0.008680555555555554,21.336805555555554,0)" xlink:href="#ay"/><use transform="matrix(0.008680555555555554,0,0,0.008680555555555554,32.00520833333333,0)" xlink:href="#az"/><use transform="matrix(0.008680555555555554,0,0,0.008680555555555554,42.67361111111111,0)" xlink:href="#aA"/><use transform="matrix(0.008680555555555554,0,0,0.008680555555555554,53.342013888888886,0)" xlink:href="#az"/><use transform="matrix(0.008680555555555554,0,0,0.008680555555555554,64.01041666666666,0)" xlink:href="#aB"/></g><path fill="#3a414a" d="M904-1102c199 0 220 177 220 381V0H956v-686c-3-114 0-215-60-264-70-33-125-4-158 71-26 56-39 140-39 252V0H531v-686c-3-114-1-215-61-264-78-41-136 24-157 84-24 69-39 159-39 259V0H105c-3-360 6-732-6-1082h149c6 50 3 123 8 175 36-100 83-195 216-195 135 0 166 79 196 196 42-105 93-196 236-196" id="aC"/><path fill="#3a414a" d="M1000-272c3 95 12 159 101 161 21 0 41-3 59-7V-6c-44 10-86 16-139 16-141 2-191-84-197-217h-6C748-76 648 20 446 20c-207 0-318-120-318-322 0-266 194-348 454-354l236-4c12-191-40-305-222-305-140 0-220 47-232 172l-188-17c33-204 181-292 423-292 255 0 401 118 401 364v466zm-683-27c0 109 63 184 175 182 166-3 259-96 306-217 24-65 20-120 20-200-232 7-501-28-501 235" id="aD"/><path fill="#3a414a" d="M736-142h380V0H134v-142h422v-1200H267v-142h469v1342" id="aE"/><g id="e"><use transform="matrix(0.008680555555555554,0,0,0.008680555555555554,0,0)" xlink:href="#ao"/><use transform="matrix(0.008680555555555554,0,0,0.008680555555555554,10.668402777777777,0)" xlink:href="#aC"/><use transform="matrix(0.008680555555555554,0,0,0.008680555555555554,21.336805555555554,0)" xlink:href="#aD"/><use transform="matrix(0.008680555555555554,0,0,0.008680555555555554,32.00520833333333,0)" xlink:href="#au"/><use transform="matrix(0.008680555555555554,0,0,0.008680555555555554,42.67361111111111,0)" xlink:href="#aE"/></g><path fill="#3a414a" d="M614-836l333-513h205L717-705 1193 0H988L614-573 241 0H36l476-705-435-644h205" id="aF"/><g id="f"><use transform="matrix(0.008680555555555554,0,0,0.008680555555555554,0,0)" xlink:href="#ay"/><use transform="matrix(0.008680555555555554,0,0,0.008680555555555554,10.668402777777777,0)" xlink:href="#az"/><use transform="matrix(0.008680555555555554,0,0,0.008680555555555554,21.336805555555554,0)" xlink:href="#aF"/><use transform="matrix(0.008680555555555554,0,0,0.008680555555555554,32.00520833333333,0)" xlink:href="#ay"/></g><path fill="#3a414a" d="M706-1102c241 0 344 136 343 381V0H868v-695c1-168-57-273-220-268-190 6-283 138-283 336V0H185c-3-360 6-732-6-1082h170c4 54 7 126 8 185h3c63-121 164-204 346-205" id="aG"/><g id="g"><use transform="matrix(0.008680555555555554,0,0,0.008680555555555554,0,0)" xlink:href="#aG"/><use transform="matrix(0.008680555555555554,0,0,0.008680555555555554,10.668402777777777,0)" xlink:href="#aD"/><use transform="matrix(0.008680555555555554,0,0,0.008680555555555554,21.336805555555554,0)" xlink:href="#aC"/><use transform="matrix(0.008680555555555554,0,0,0.008680555555555554,32.00520833333333,0)" xlink:href="#ao"/></g><path fill="#3a414a" d="M698-1104c312 3 392 244 392 558 0 315-82 566-392 566-169 0-277-65-331-184h-5c8 188 2 394 4 589H185V-858c0-76-1-156-6-224h175c6 52 9 120 10 178h4c58-122 150-202 330-200zm-49 991c225 0 255-203 255-433 0-225-32-419-253-419-236 0-285 192-285 441 0 237 53 411 283 411" id="aH"/><path fill="#3a414a" d="M1018 0H814c-67-224-138-444-200-673C552-442 476-224 407 0H204L21-1082h178c43 310 105 601 126 933 54-225 128-425 193-638h193c63 212 134 415 185 638 22-336 90-622 136-933h176" id="aI"/><path fill="#3a414a" d="M615-1102c343 0 484 203 482 560-1 347-147 562-488 562-336 0-475-219-479-562-4-349 156-560 485-560zm-8 989c240 0 301-180 301-429 0-245-55-427-290-427-236 0-299 181-299 427 0 243 61 429 288 429" id="aJ"/><path fill="#3a414a" d="M648-963c-190 6-283 138-283 336V0H185v-1484h181c-2 197 6 404-9 587h3c62-120 159-205 339-205 242 0 351 135 350 381V0H868v-695c1-168-57-273-220-268" id="aK"/><g id="h"><use transform="matrix(0.008680555555555554,0,0,0.008680555555555554,0,0)" xlink:href="#aH"/><use transform="matrix(0.008680555555555554,0,0,0.008680555555555554,10.668402777777777,0)" xlink:href="#aD"/><use transform="matrix(0.008680555555555554,0,0,0.008680555555555554,21.336805555555554,0)" xlink:href="#an"/><use transform="matrix(0.008680555555555554,0,0,0.008680555555555554,32.00520833333333,0)" xlink:href="#an"/><use transform="matrix(0.008680555555555554,0,0,0.008680555555555554,42.67361111111111,0)" xlink:href="#aI"/><use transform="matrix(0.008680555555555554,0,0,0.008680555555555554,53.342013888888886,0)" xlink:href="#aJ"/><use transform="matrix(0.008680555555555554,0,0,0.008680555555555554,64.01041666666666,0)" xlink:href="#ap"/><use transform="matrix(0.008680555555555554,0,0,0.008680555555555554,74.67881944444443,0)" xlink:href="#av"/><use transform="matrix(0.008680555555555554,0,0,0.008680555555555554,85.3472222222222,0)" xlink:href="#at"/><use transform="matrix(0.008680555555555554,0,0,0.008680555555555554,96.01562499999997,0)" xlink:href="#aK"/><use transform="matrix(0.008680555555555554,0,0,0.008680555555555554,106.68402777777774,0)" xlink:href="#aD"/><use transform="matrix(0.008680555555555554,0,0,0.008680555555555554,117.35243055555551,0)" xlink:href="#an"/><use transform="matrix(0.008680555555555554,0,0,0.008680555555555554,128.0208333333333,0)" xlink:href="#aK"/></g><path fill="#3a414a" d="M385-1193v494h676v158H385V0H194v-1349h891v156H385" id="aL"/><g id="i"><use transform="matrix(0.008680555555555554,0,0,0.008680555555555554,0,0)" xlink:href="#aL"/><use transform="matrix(0.008680555555555554,0,0,0.008680555555555554,10.668402777777777,0)" xlink:href="#ar"/></g><path fill="#3a414a" d="M631 20c-350 0-501-215-501-562 0-355 162-560 502-560 250 0 399 118 446 323l-192 14c-23-124-109-196-262-196-242 0-305 171-305 415 1 245 61 427 304 427 151 0 248-77 267-215l190 12C1039-107 883 20 631 20" id="aM"/><g id="j"><use transform="matrix(0.008680555555555554,0,0,0.008680555555555554,0,0)" xlink:href="#aM"/><use transform="matrix(0.008680555555555554,0,0,0.008680555555555554,10.668402777777777,0)" xlink:href="#aJ"/><use transform="matrix(0.008680555555555554,0,0,0.008680555555555554,21.336805555555554,0)" xlink:href="#as"/><use transform="matrix(0.008680555555555554,0,0,0.008680555555555554,32.00520833333333,0)" xlink:href="#ap"/><use transform="matrix(0.008680555555555554,0,0,0.008680555555555554,42.67361111111111,0)" xlink:href="#an"/><use transform="matrix(0.008680555555555554,0,0,0.008680555555555554,53.342013888888886,0)" xlink:href="#ao"/></g><g id="k"><use transform="matrix(0.008680555555555554,0,0,0.008680555555555554,0,0)" xlink:href="#aw"/><use transform="matrix(0.008680555555555554,0,0,0.008680555555555554,10.668402777777777,0)" xlink:href="#ax"/><use transform="matrix(0.008680555555555554,0,0,0.008680555555555554,21.336805555555554,0)" xlink:href="#ay"/><use transform="matrix(0.008680555555555554,0,0,0.008680555555555554,32.00520833333333,0)" xlink:href="#az"/><use transform="matrix(0.008680555555555554,0,0,0.008680555555555554,42.67361111111111,0)" xlink:href="#aA"/><use transform="matrix(0.008680555555555554,0,0,0.008680555555555554,53.342013888888886,0)" xlink:href="#az"/><use transform="matrix(0.008680555555555554,0,0,0.008680555555555554,64.01041666666666,0)" xlink:href="#aB"/></g><g id="l"><use transform="matrix(0.008680555555555554,0,0,0.008680555555555554,0,0)" xlink:href="#aL"/><use transform="matrix(0.008680555555555554,0,0,0.008680555555555554,10.668402777777777,0)" xlink:href="#ar"/></g><path fill="#3a414a" d="M682 16c-209 0-323-80-324-285v-671H190v-142h170l58-282h120v282h432v142H538v652c2 114 60 155 182 155 106 0 209-16 297-34v137C921-4 806 16 682 16" id="aN"/><g id="m"><use transform="matrix(0.008680555555555554,0,0,0.008680555555555554,0,0)" xlink:href="#aD"/><use transform="matrix(0.008680555555555554,0,0,0.008680555555555554,10.668402777777777,0)" xlink:href="#aM"/><use transform="matrix(0.008680555555555554,0,0,0.008680555555555554,21.336805555555554,0)" xlink:href="#aM"/><use transform="matrix(0.008680555555555554,0,0,0.008680555555555554,32.00520833333333,0)" xlink:href="#aJ"/><use transform="matrix(0.008680555555555554,0,0,0.008680555555555554,42.67361111111111,0)" xlink:href="#aC"/><use transform="matrix(0.008680555555555554,0,0,0.008680555555555554,53.342013888888886,0)" xlink:href="#aC"/><use transform="matrix(0.008680555555555554,0,0,0.008680555555555554,64.01041666666666,0)" xlink:href="#aJ"/><use transform="matrix(0.008680555555555554,0,0,0.008680555555555554,74.67881944444443,0)" xlink:href="#av"/><use transform="matrix(0.008680555555555554,0,0,0.008680555555555554,85.3472222222222,0)" xlink:href="#aD"/><use transform="matrix(0.008680555555555554,0,0,0.008680555555555554,96.01562499999997,0)" xlink:href="#aN"/><use transform="matrix(0.008680555555555554,0,0,0.008680555555555554,106.68402777777774,0)" xlink:href="#au"/><use transform="matrix(0.008680555555555554,0,0,0.008680555555555554,117.35243055555551,0)" xlink:href="#aJ"/><use transform="matrix(0.008680555555555554,0,0,0.008680555555555554,128.0208333333333,0)" xlink:href="#aG"/></g><path fill="#3a414a" d="M715 0H502L69-1082h202c94 253 197 500 285 758 19 57 36 126 52 183 96-335 234-626 350-941h201" id="aO"/><path fill="#3a414a" d="M168 279c222 39 310-114 368-290L66-1082h192c120 299 249 590 362 896 115-301 235-597 351-896h190L705 0c-65 164-130 320-275 396-67 36-177 35-262 18V279" id="aP"/><g id="n"><use transform="matrix(0.008680555555555554,0,0,0.008680555555555554,0,0)" xlink:href="#aH"/><use transform="matrix(0.008680555555555554,0,0,0.008680555555555554,10.668402777777777,0)" xlink:href="#ap"/><use transform="matrix(0.008680555555555554,0,0,0.008680555555555554,21.336805555555554,0)" xlink:href="#au"/><use transform="matrix(0.008680555555555554,0,0,0.008680555555555554,32.00520833333333,0)" xlink:href="#aO"/><use transform="matrix(0.008680555555555554,0,0,0.008680555555555554,42.67361111111111,0)" xlink:href="#aD"/><use transform="matrix(0.008680555555555554,0,0,0.008680555555555554,53.342013888888886,0)" xlink:href="#aM"/><use transform="matrix(0.008680555555555554,0,0,0.008680555555555554,64.01041666666666,0)" xlink:href="#aP"/></g><path fill="#3a414a" d="M285-1169c8 382 2 780 4 1169H129v-1349h237c86 239 188 461 253 720 69-258 169-481 255-720h225V0H937c2-390-5-788 6-1169-75 255-170 488-259 729H547c-90-240-185-475-262-729" id="aQ"/><g id="o"><use transform="matrix(0.008680555555555554,0,0,0.008680555555555554,0,0)" xlink:href="#az"/><use transform="matrix(0.008680555555555554,0,0,0.008680555555555554,10.668402777777777,0)" xlink:href="#ax"/><use transform="matrix(0.008680555555555554,0,0,0.008680555555555554,21.336805555555554,0)" xlink:href="#am"/><use transform="matrix(0.008680555555555554,0,0,0.008680555555555554,32.00520833333333,0)" xlink:href="#aQ"/></g><path fill="#3a414a" d="M839-1335c-182-6-269 67-259 253h491v142H580V0H400v-940H138v-142h262c-15-293 132-408 418-402 94 2 200 7 281 21v145c-75-10-177-14-260-17" id="aR"/><path fill="#3a414a" d="M1048-32c-2 300-135 456-433 456-222-1-358-88-400-267l184-25c22 99 100 157 222 156 184-2 248-125 248-315 0-64 3-133-2-194C807-100 706-13 524-12c-306 0-381-228-381-537 0-318 85-550 400-550 164 0 271 83 325 202h3c1-60 3-134 12-185h171c-13 339-4 702-6 1050zM585-145c210-8 284-178 284-406 0-192-52-331-177-392-33-16-69-22-104-22-223 2-259 184-259 414 0 229 31 415 256 406" id="aS"/><g id="p"><use transform="matrix(0.008680555555555554,0,0,0.008680555555555554,0,0)" xlink:href="#aG"/><use transform="matrix(0.008680555555555554,0,0,0.008680555555555554,10.668402777777777,0)" xlink:href="#aR"/><use transform="matrix(0.008680555555555554,0,0,0.008680555555555554,21.336805555555554,0)" xlink:href="#aM"/><use transform="matrix(0.008680555555555554,0,0,0.008680555555555554,32.00520833333333,0)" xlink:href="#at"/><use transform="matrix(0.008680555555555554,0,0,0.008680555555555554,42.67361111111111,0)" xlink:href="#aN"/><use transform="matrix(0.008680555555555554,0,0,0.008680555555555554,53.342013888888886,0)" xlink:href="#aD"/><use transform="matrix(0.008680555555555554,0,0,0.008680555555555554,64.01041666666666,0)" xlink:href="#aS"/></g><g id="q"><use transform="matrix(0.008680555555555554,0,0,0.008680555555555554,0,0)" xlink:href="#aH"/><use transform="matrix(0.008680555555555554,0,0,0.008680555555555554,10.668402777777777,0)" xlink:href="#ap"/><use transform="matrix(0.008680555555555554,0,0,0.008680555555555554,21.336805555555554,0)" xlink:href="#aJ"/><use transform="matrix(0.008680555555555554,0,0,0.008680555555555554,32.00520833333333,0)" xlink:href="#aR"/><use transform="matrix(0.008680555555555554,0,0,0.008680555555555554,42.67361111111111,0)" xlink:href="#au"/><use transform="matrix(0.008680555555555554,0,0,0.008680555555555554,53.342013888888886,0)" xlink:href="#aE"/><use transform="matrix(0.008680555555555554,0,0,0.008680555555555554,64.01041666666666,0)" xlink:href="#ao"/><use transform="matrix(0.008680555555555554,0,0,0.008680555555555554,74.67881944444443,0)" xlink:href="#at"/><use transform="matrix(0.008680555555555554,0,0,0.008680555555555554,85.3472222222222,0)" xlink:href="#aH"/><use transform="matrix(0.008680555555555554,0,0,0.008680555555555554,96.01562499999997,0)" xlink:href="#au"/><use transform="matrix(0.008680555555555554,0,0,0.008680555555555554,106.68402777777774,0)" xlink:href="#aM"/><use transform="matrix(0.008680555555555554,0,0,0.008680555555555554,117.35243055555551,0)" xlink:href="#aN"/><use transform="matrix(0.008680555555555554,0,0,0.008680555555555554,128.0208333333333,0)" xlink:href="#as"/><use transform="matrix(0.008680555555555554,0,0,0.008680555555555554,138.68923611111106,0)" xlink:href="#ap"/><use transform="matrix(0.008680555555555554,0,0,0.008680555555555554,149.35763888888883,0)" xlink:href="#ao"/></g><path fill="#3a414a" d="M365-904c58-129 161-200 334-200 130 0 228 46 293 138s98 233 98 420c0 189-34 331-102 425S824 20 698 20c-170 0-275-64-336-184 0 55-3 116-9 164H179c5-68 6-147 6-223v-1261h180c-2 193 4 394-4 580h4zm283 791c221 0 256-197 256-427 0-229-34-425-254-425-236 0-285 195-285 441 0 237 53 411 283 411" id="aT"/><g id="r"><use transform="matrix(0.008680555555555554,0,0,0.008680555555555554,0,0)" xlink:href="#aH"/><use transform="matrix(0.008680555555555554,0,0,0.008680555555555554,10.668402777777777,0)" xlink:href="#ap"/><use transform="matrix(0.008680555555555554,0,0,0.008680555555555554,21.336805555555554,0)" xlink:href="#aJ"/><use transform="matrix(0.008680555555555554,0,0,0.008680555555555554,32.00520833333333,0)" xlink:href="#aR"/><use transform="matrix(0.008680555555555554,0,0,0.008680555555555554,42.67361111111111,0)" xlink:href="#au"/><use transform="matrix(0.008680555555555554,0,0,0.008680555555555554,53.342013888888886,0)" xlink:href="#aE"/><use transform="matrix(0.008680555555555554,0,0,0.008680555555555554,64.01041666666666,0)" xlink:href="#ao"/><use transform="matrix(0.008680555555555554,0,0,0.008680555555555554,74.67881944444443,0)" xlink:href="#at"/><use transform="matrix(0.008680555555555554,0,0,0.008680555555555554,85.3472222222222,0)" xlink:href="#aT"/><use transform="matrix(0.008680555555555554,0,0,0.008680555555555554,96.01562499999997,0)" xlink:href="#aD"/><use transform="matrix(0.008680555555555554,0,0,0.008680555555555554,106.68402777777774,0)" xlink:href="#aG"/><use transform="matrix(0.008680555555555554,0,0,0.008680555555555554,117.35243055555551,0)" xlink:href="#aG"/><use transform="matrix(0.008680555555555554,0,0,0.008680555555555554,128.0208333333333,0)" xlink:href="#ao"/><use transform="matrix(0.008680555555555554,0,0,0.008680555555555554,138.68923611111106,0)" xlink:href="#ap"/></g><g id="s"><use transform="matrix(0.008680555555555554,0,0,0.008680555555555554,0,0)" xlink:href="#ay"/><use transform="matrix(0.008680555555555554,0,0,0.008680555555555554,10.668402777777777,0)" xlink:href="#az"/><use transform="matrix(0.008680555555555554,0,0,0.008680555555555554,21.336805555555554,0)" xlink:href="#aF"/><use transform="matrix(0.008680555555555554,0,0,0.008680555555555554,32.00520833333333,0)" xlink:href="#ay"/></g><g id="t"><use transform="matrix(0.008680555555555554,0,0,0.008680555555555554,0,0)" xlink:href="#aQ"/><use transform="matrix(0.008680555555555554,0,0,0.008680555555555554,10.668402777777777,0)" xlink:href="#aJ"/><use transform="matrix(0.008680555555555554,0,0,0.008680555555555554,21.336805555555554,0)" xlink:href="#av"/><use transform="matrix(0.008680555555555554,0,0,0.008680555555555554,32.00520833333333,0)" xlink:href="#as"/><use transform="matrix(0.008680555555555554,0,0,0.008680555555555554,42.67361111111111,0)" xlink:href="#aE"/><use transform="matrix(0.008680555555555554,0,0,0.008680555555555554,53.342013888888886,0)" xlink:href="#ao"/></g><g id="u"><use transform="matrix(0.008680555555555554,0,0,0.008680555555555554,0,0)" xlink:href="#aC"/><use transform="matrix(0.008680555555555554,0,0,0.008680555555555554,10.668402777777777,0)" xlink:href="#aJ"/><use transform="matrix(0.008680555555555554,0,0,0.008680555555555554,21.336805555555554,0)" xlink:href="#av"/><use transform="matrix(0.008680555555555554,0,0,0.008680555555555554,32.00520833333333,0)" xlink:href="#as"/><use transform="matrix(0.008680555555555554,0,0,0.008680555555555554,42.67361111111111,0)" xlink:href="#aE"/><use transform="matrix(0.008680555555555554,0,0,0.008680555555555554,53.342013888888886,0)" xlink:href="#ao"/><use transform="matrix(0.008680555555555554,0,0,0.008680555555555554,64.01041666666666,0)" xlink:href="#at"/><use transform="matrix(0.008680555555555554,0,0,0.008680555555555554,74.67881944444443,0)" xlink:href="#au"/><use transform="matrix(0.008680555555555554,0,0,0.008680555555555554,85.3472222222222,0)" xlink:href="#av"/></g><g id="v"><use transform="matrix(0.008680555555555554,0,0,0.008680555555555554,0,0)" xlink:href="#av"/><use transform="matrix(0.008680555555555554,0,0,0.008680555555555554,10.668402777777777,0)" xlink:href="#ao"/><use transform="matrix(0.008680555555555554,0,0,0.008680555555555554,21.336805555555554,0)" xlink:href="#an"/><use transform="matrix(0.008680555555555554,0,0,0.008680555555555554,32.00520833333333,0)" xlink:href="#aM"/><use transform="matrix(0.008680555555555554,0,0,0.008680555555555554,42.67361111111111,0)" xlink:href="#ap"/><use transform="matrix(0.008680555555555554,0,0,0.008680555555555554,53.342013888888886,0)" xlink:href="#au"/><use transform="matrix(0.008680555555555554,0,0,0.008680555555555554,64.01041666666666,0)" xlink:href="#aH"/><use transform="matrix(0.008680555555555554,0,0,0.008680555555555554,74.67881944444443,0)" xlink:href="#aN"/><use transform="matrix(0.008680555555555554,0,0,0.008680555555555554,85.3472222222222,0)" xlink:href="#au"/><use transform="matrix(0.008680555555555554,0,0,0.008680555555555554,96.01562499999997,0)" xlink:href="#aJ"/><use transform="matrix(0.008680555555555554,0,0,0.008680555555555554,106.68402777777774,0)" xlink:href="#aG"/></g><path fill="#3a414a" d="M102-681c0-398 126-689 513-689 165 0 291 58 379 174s132 287 132 515c-1 318-88 554-298 657-123 61-317 58-438-3-206-104-288-341-288-654zm749 406c94-160 97-656-5-807-57-85-130-132-231-132-104 0-178 47-234 132-101 153-99 655 1 809 57 89 130 138 232 138 109 0 184-49 237-140" id="aU"/><g id="w"><use transform="matrix(0.008680555555555554,0,0,0.008680555555555554,0,0)" xlink:href="#am"/><use transform="matrix(0.008680555555555554,0,0,0.008680555555555554,10.668402777777777,0)" xlink:href="#an"/><use transform="matrix(0.008680555555555554,0,0,0.008680555555555554,21.336805555555554,0)" xlink:href="#ao"/><use transform="matrix(0.008680555555555554,0,0,0.008680555555555554,32.00520833333333,0)" xlink:href="#ap"/><use transform="matrix(0.008680555555555554,0,0,0.008680555555555554,42.67361111111111,0)" xlink:href="#aU"/><use transform="matrix(0.008680555555555554,0,0,0.008680555555555554,53.342013888888886,0)" xlink:href="#aG"/><use transform="matrix(0.008680555555555554,0,0,0.008680555555555554,64.01041666666666,0)" xlink:href="#aQ"/><use transform="matrix(0.008680555555555554,0,0,0.008680555555555554,74.67881944444443,0)" xlink:href="#aJ"/><use transform="matrix(0.008680555555555554,0,0,0.008680555555555554,85.3472222222222,0)" xlink:href="#av"/><use transform="matrix(0.008680555555555554,0,0,0.008680555555555554,96.01562499999997,0)" xlink:href="#as"/><use transform="matrix(0.008680555555555554,0,0,0.008680555555555554,106.68402777777774,0)" xlink:href="#aE"/><use transform="matrix(0.008680555555555554,0,0,0.008680555555555554,117.35243055555551,0)" xlink:href="#ao"/></g><path fill="#3a414a" d="M650-1214c-281 0-336 244-336 533 0 295 60 546 347 546 188 0 263-142 322-282l159 65C1058-155 935 20 659 20c-401 0-546-295-546-701 0-407 135-689 536-689 264 0 391 146 466 335l-168 65c-47-129-127-244-297-244" id="aV"/><g id="x"><use transform="matrix(0.008680555555555554,0,0,0.008680555555555554,0,0)" xlink:href="#aV"/><use transform="matrix(0.008680555555555554,0,0,0.008680555555555554,10.668402777777777,0)" xlink:href="#aL"/><use transform="matrix(0.008680555555555554,0,0,0.008680555555555554,21.336805555555554,0)" xlink:href="#aq"/><use transform="matrix(0.008680555555555554,0,0,0.008680555555555554,32.00520833333333,0)" xlink:href="#ar"/></g><g id="y"><use transform="matrix(0.008680555555555554,0,0,0.008680555555555554,0,0)" xlink:href="#aB"/><use transform="matrix(0.008680555555555554,0,0,0.008680555555555554,10.668402777777777,0)" xlink:href="#ao"/><use transform="matrix(0.008680555555555554,0,0,0.008680555555555554,21.336805555555554,0)" xlink:href="#aH"/><use transform="matrix(0.008680555555555554,0,0,0.008680555555555554,32.00520833333333,0)" xlink:href="#aJ"/><use transform="matrix(0.008680555555555554,0,0,0.008680555555555554,42.67361111111111,0)" xlink:href="#ap"/><use transform="matrix(0.008680555555555554,0,0,0.008680555555555554,53.342013888888886,0)" xlink:href="#aN"/></g><g id="z"><use transform="matrix(0.008680555555555554,0,0,0.008680555555555554,0,0)" xlink:href="#ap"/><use transform="matrix(0.008680555555555554,0,0,0.008680555555555554,10.668402777777777,0)" xlink:href="#ao"/><use transform="matrix(0.008680555555555554,0,0,0.008680555555555554,21.336805555555554,0)" xlink:href="#aH"/><use transform="matrix(0.008680555555555554,0,0,0.008680555555555554,32.00520833333333,0)" xlink:href="#aJ"/><use transform="matrix(0.008680555555555554,0,0,0.008680555555555554,42.67361111111111,0)" xlink:href="#ap"/><use transform="matrix(0.008680555555555554,0,0,0.008680555555555554,53.342013888888886,0)" xlink:href="#aN"/><use transform="matrix(0.008680555555555554,0,0,0.008680555555555554,64.01041666666666,0)" xlink:href="#at"/><use transform="matrix(0.008680555555555554,0,0,0.008680555555555554,74.67881944444443,0)" xlink:href="#au"/><use transform="matrix(0.008680555555555554,0,0,0.008680555555555554,85.3472222222222,0)" xlink:href="#av"/></g><g id="A"><use transform="matrix(0.008680555555555554,0,0,0.008680555555555554,0,0)" xlink:href="#ap"/><use transform="matrix(0.008680555555555554,0,0,0.008680555555555554,10.668402777777777,0)" xlink:href="#ao"/><use transform="matrix(0.008680555555555554,0,0,0.008680555555555554,21.336805555555554,0)" xlink:href="#aH"/><use transform="matrix(0.008680555555555554,0,0,0.008680555555555554,32.00520833333333,0)" xlink:href="#aJ"/><use transform="matrix(0.008680555555555554,0,0,0.008680555555555554,42.67361111111111,0)" xlink:href="#ap"/><use transform="matrix(0.008680555555555554,0,0,0.008680555555555554,53.342013888888886,0)" xlink:href="#aN"/><use transform="matrix(0.008680555555555554,0,0,0.008680555555555554,64.01041666666666,0)" xlink:href="#ao"/><use transform="matrix(0.008680555555555554,0,0,0.008680555555555554,74.67881944444443,0)" xlink:href="#ap"/><use transform="matrix(0.008680555555555554,0,0,0.008680555555555554,85.3472222222222,0)" xlink:href="#at"/><use transform="matrix(0.008680555555555554,0,0,0.008680555555555554,96.01562499999997,0)" xlink:href="#au"/><use transform="matrix(0.008680555555555554,0,0,0.008680555555555554,106.68402777777774,0)" xlink:href="#av"/></g><g id="B"><use transform="matrix(0.008680555555555554,0,0,0.008680555555555554,0,0)" xlink:href="#ap"/><use transform="matrix(0.008680555555555554,0,0,0.008680555555555554,10.668402777777777,0)" xlink:href="#ao"/><use transform="matrix(0.008680555555555554,0,0,0.008680555555555554,21.336805555555554,0)" xlink:href="#aH"/><use transform="matrix(0.008680555555555554,0,0,0.008680555555555554,32.00520833333333,0)" xlink:href="#aJ"/><use transform="matrix(0.008680555555555554,0,0,0.008680555555555554,42.67361111111111,0)" xlink:href="#ap"/><use transform="matrix(0.008680555555555554,0,0,0.008680555555555554,53.342013888888886,0)" xlink:href="#aN"/><use transform="matrix(0.008680555555555554,0,0,0.008680555555555554,64.01041666666666,0)" xlink:href="#ao"/><use transform="matrix(0.008680555555555554,0,0,0.008680555555555554,74.67881944444443,0)" xlink:href="#ao"/><use transform="matrix(0.008680555555555554,0,0,0.008680555555555554,85.3472222222222,0)" xlink:href="#at"/><use transform="matrix(0.008680555555555554,0,0,0.008680555555555554,96.01562499999997,0)" xlink:href="#au"/><use transform="matrix(0.008680555555555554,0,0,0.008680555555555554,106.68402777777774,0)" xlink:href="#av"/></g><g id="C"><use transform="matrix(0.008680555555555554,0,0,0.008680555555555554,0,0)" xlink:href="#aN"/><use transform="matrix(0.008680555555555554,0,0,0.008680555555555554,10.668402777777777,0)" xlink:href="#aP"/><use transform="matrix(0.008680555555555554,0,0,0.008680555555555554,21.336805555555554,0)" xlink:href="#aH"/><use transform="matrix(0.008680555555555554,0,0,0.008680555555555554,32.00520833333333,0)" xlink:href="#ao"/></g><g id="D"><use transform="matrix(0.008680555555555554,0,0,0.008680555555555554,0,0)" xlink:href="#ap"/><use transform="matrix(0.008680555555555554,0,0,0.008680555555555554,10.668402777777777,0)" xlink:href="#ao"/><use transform="matrix(0.008680555555555554,0,0,0.008680555555555554,21.336805555555554,0)" xlink:href="#aD"/><use transform="matrix(0.008680555555555554,0,0,0.008680555555555554,32.00520833333333,0)" xlink:href="#an"/><use transform="matrix(0.008680555555555554,0,0,0.008680555555555554,42.67361111111111,0)" xlink:href="#aJ"/><use transform="matrix(0.008680555555555554,0,0,0.008680555555555554,53.342013888888886,0)" xlink:href="#aG"/></g><g id="E"><use transform="matrix(0.008680555555555554,0,0,0.008680555555555554,0,0)" xlink:href="#aN"/><use transform="matrix(0.008680555555555554,0,0,0.008680555555555554,10.668402777777777,0)" xlink:href="#au"/><use transform="matrix(0.008680555555555554,0,0,0.008680555555555554,21.336805555555554,0)" xlink:href="#aC"/><use transform="matrix(0.008680555555555554,0,0,0.008680555555555554,32.00520833333333,0)" xlink:href="#ao"/></g><path fill="#3a414a" d="M473-1349c438-1 655 221 652 661C1122-268 945-8 532 0H162v-1349h311zm42 1193c308-4 416-205 418-532 2-330-131-509-459-505H353v1037h162" id="aW"/><path fill="#3a414a" d="M1034 0L896-382H333L196 0H0l510-1349h217L1228 0h-194zM847-531c-77-225-157-447-231-674-69 231-154 451-232 674h463" id="aX"/><g id="F"><use transform="matrix(0.008680555555555554,0,0,0.008680555555555554,0,0)" xlink:href="#aW"/><use transform="matrix(0.008680555555555554,0,0,0.008680555555555554,10.668402777777777,0)" xlink:href="#aX"/><use transform="matrix(0.008680555555555554,0,0,0.008680555555555554,21.336805555555554,0)" xlink:href="#ay"/><use transform="matrix(0.008680555555555554,0,0,0.008680555555555554,32.00520833333333,0)" xlink:href="#az"/><use transform="matrix(0.008680555555555554,0,0,0.008680555555555554,42.67361111111111,0)" xlink:href="#ay"/><use transform="matrix(0.008680555555555554,0,0,0.008680555555555554,53.342013888888886,0)" xlink:href="#aw"/><use transform="matrix(0.008680555555555554,0,0,0.008680555555555554,64.01041666666666,0)" xlink:href="#aQ"/><use transform="matrix(0.008680555555555554,0,0,0.008680555555555554,74.67881944444443,0)" xlink:href="#az"/></g><g id="G"><use transform="matrix(0.008680555555555554,0,0,0.008680555555555554,0,0)" xlink:href="#aB"/><use transform="matrix(0.008680555555555554,0,0,0.008680555555555554,10.668402777777777,0)" xlink:href="#ao"/><use transform="matrix(0.008680555555555554,0,0,0.008680555555555554,21.336805555555554,0)" xlink:href="#aH"/><use transform="matrix(0.008680555555555554,0,0,0.008680555555555554,32.00520833333333,0)" xlink:href="#aJ"/><use transform="matrix(0.008680555555555554,0,0,0.008680555555555554,42.67361111111111,0)" xlink:href="#ap"/><use transform="matrix(0.008680555555555554,0,0,0.008680555555555554,53.342013888888886,0)" xlink:href="#aN"/><use transform="matrix(0.008680555555555554,0,0,0.008680555555555554,64.01041666666666,0)" xlink:href="#ay"/><use transform="matrix(0.008680555555555554,0,0,0.008680555555555554,74.67881944444443,0)" xlink:href="#aP"/><use transform="matrix(0.008680555555555554,0,0,0.008680555555555554,85.3472222222222,0)" xlink:href="#aH"/><use transform="matrix(0.008680555555555554,0,0,0.008680555555555554,96.01562499999997,0)" xlink:href="#ao"/></g><g id="H"><use transform="matrix(0.008680555555555554,0,0,0.008680555555555554,0,0)" xlink:href="#am"/><use transform="matrix(0.008680555555555554,0,0,0.008680555555555554,10.668402777777777,0)" xlink:href="#an"/><use transform="matrix(0.008680555555555554,0,0,0.008680555555555554,21.336805555555554,0)" xlink:href="#ao"/><use transform="matrix(0.008680555555555554,0,0,0.008680555555555554,32.00520833333333,0)" xlink:href="#ap"/><use transform="matrix(0.008680555555555554,0,0,0.008680555555555554,42.67361111111111,0)" xlink:href="#aV"/><use transform="matrix(0.008680555555555554,0,0,0.008680555555555554,53.342013888888886,0)" xlink:href="#aJ"/><use transform="matrix(0.008680555555555554,0,0,0.008680555555555554,64.01041666666666,0)" xlink:href="#aG"/><use transform="matrix(0.008680555555555554,0,0,0.008680555555555554,74.67881944444443,0)" xlink:href="#aG"/><use transform="matrix(0.008680555555555554,0,0,0.008680555555555554,85.3472222222222,0)" xlink:href="#ao"/><use transform="matrix(0.008680555555555554,0,0,0.008680555555555554,96.01562499999997,0)" xlink:href="#aM"/><use transform="matrix(0.008680555555555554,0,0,0.008680555555555554,106.68402777777774,0)" xlink:href="#aN"/><use transform="matrix(0.008680555555555554,0,0,0.008680555555555554,117.35243055555551,0)" xlink:href="#au"/><use transform="matrix(0.008680555555555554,0,0,0.008680555555555554,128.0208333333333,0)" xlink:href="#aJ"/><use transform="matrix(0.008680555555555554,0,0,0.008680555555555554,138.68923611111106,0)" xlink:href="#aG"/></g><g id="I"><use transform="matrix(0.008680555555555554,0,0,0.008680555555555554,0,0)" xlink:href="#an"/><use transform="matrix(0.008680555555555554,0,0,0.008680555555555554,10.668402777777777,0)" xlink:href="#ap"/><use transform="matrix(0.008680555555555554,0,0,0.008680555555555554,21.336805555555554,0)" xlink:href="#aM"/><use transform="matrix(0.008680555555555554,0,0,0.008680555555555554,32.00520833333333,0)" xlink:href="#at"/><use transform="matrix(0.008680555555555554,0,0,0.008680555555555554,42.67361111111111,0)" xlink:href="#as"/><use transform="matrix(0.008680555555555554,0,0,0.008680555555555554,53.342013888888886,0)" xlink:href="#an"/><use transform="matrix(0.008680555555555554,0,0,0.008680555555555554,64.01041666666666,0)" xlink:href="#ao"/><use transform="matrix(0.008680555555555554,0,0,0.008680555555555554,74.67881944444443,0)" xlink:href="#ap"/><use transform="matrix(0.008680555555555554,0,0,0.008680555555555554,85.3472222222222,0)" xlink:href="#at"/><use transform="matrix(0.008680555555555554,0,0,0.008680555555555554,96.01562499999997,0)" xlink:href="#au"/><use transform="matrix(0.008680555555555554,0,0,0.008680555555555554,106.68402777777774,0)" xlink:href="#av"/></g><g id="J"><use transform="matrix(0.008680555555555554,0,0,0.008680555555555554,0,0)" xlink:href="#av"/><use transform="matrix(0.008680555555555554,0,0,0.008680555555555554,10.668402777777777,0)" xlink:href="#an"/><use transform="matrix(0.008680555555555554,0,0,0.008680555555555554,21.336805555555554,0)" xlink:href="#aN"/><use transform="matrix(0.008680555555555554,0,0,0.008680555555555554,32.00520833333333,0)" xlink:href="#at"/><use transform="matrix(0.008680555555555554,0,0,0.008680555555555554,42.67361111111111,0)" xlink:href="#as"/><use transform="matrix(0.008680555555555554,0,0,0.008680555555555554,53.342013888888886,0)" xlink:href="#an"/><use transform="matrix(0.008680555555555554,0,0,0.008680555555555554,64.01041666666666,0)" xlink:href="#ao"/><use transform="matrix(0.008680555555555554,0,0,0.008680555555555554,74.67881944444443,0)" xlink:href="#ap"/><use transform="matrix(0.008680555555555554,0,0,0.008680555555555554,85.3472222222222,0)" xlink:href="#at"/><use transform="matrix(0.008680555555555554,0,0,0.008680555555555554,96.01562499999997,0)" xlink:href="#au"/><use transform="matrix(0.008680555555555554,0,0,0.008680555555555554,106.68402777777774,0)" xlink:href="#av"/></g><g id="K"><use transform="matrix(0.008680555555555554,0,0,0.008680555555555554,0,0)" xlink:href="#aD"/><use transform="matrix(0.008680555555555554,0,0,0.008680555555555554,10.668402777777777,0)" xlink:href="#aM"/><use transform="matrix(0.008680555555555554,0,0,0.008680555555555554,21.336805555555554,0)" xlink:href="#aM"/><use transform="matrix(0.008680555555555554,0,0,0.008680555555555554,32.00520833333333,0)" xlink:href="#ao"/><use transform="matrix(0.008680555555555554,0,0,0.008680555555555554,42.67361111111111,0)" xlink:href="#aH"/><use transform="matrix(0.008680555555555554,0,0,0.008680555555555554,53.342013888888886,0)" xlink:href="#aN"/><use transform="matrix(0.008680555555555554,0,0,0.008680555555555554,64.01041666666666,0)" xlink:href="#ao"/><use transform="matrix(0.008680555555555554,0,0,0.008680555555555554,74.67881944444443,0)" xlink:href="#av"/></g><g id="L"><use transform="matrix(0.008680555555555554,0,0,0.008680555555555554,0,0)" xlink:href="#aX"/><use transform="matrix(0.008680555555555554,0,0,0.008680555555555554,10.668402777777777,0)" xlink:href="#aM"/><use transform="matrix(0.008680555555555554,0,0,0.008680555555555554,21.336805555555554,0)" xlink:href="#aM"/><use transform="matrix(0.008680555555555554,0,0,0.008680555555555554,32.00520833333333,0)" xlink:href="#aJ"/><use transform="matrix(0.008680555555555554,0,0,0.008680555555555554,42.67361111111111,0)" xlink:href="#aC"/><use transform="matrix(0.008680555555555554,0,0,0.008680555555555554,53.342013888888886,0)" xlink:href="#aC"/><use transform="matrix(0.008680555555555554,0,0,0.008680555555555554,64.01041666666666,0)" xlink:href="#aJ"/><use transform="matrix(0.008680555555555554,0,0,0.008680555555555554,74.67881944444443,0)" xlink:href="#av"/><use transform="matrix(0.008680555555555554,0,0,0.008680555555555554,85.3472222222222,0)" xlink:href="#aD"/><use transform="matrix(0.008680555555555554,0,0,0.008680555555555554,96.01562499999997,0)" xlink:href="#aN"/><use transform="matrix(0.008680555555555554,0,0,0.008680555555555554,106.68402777777774,0)" xlink:href="#au"/><use transform="matrix(0.008680555555555554,0,0,0.008680555555555554,117.35243055555551,0)" xlink:href="#aJ"/><use transform="matrix(0.008680555555555554,0,0,0.008680555555555554,128.0208333333333,0)" xlink:href="#aG"/></g><g id="M"><use transform="matrix(0.008680555555555554,0,0,0.008680555555555554,0,0)" xlink:href="#aD"/><use transform="matrix(0.008680555555555554,0,0,0.008680555555555554,10.668402777777777,0)" xlink:href="#aM"/><use transform="matrix(0.008680555555555554,0,0,0.008680555555555554,21.336805555555554,0)" xlink:href="#aM"/><use transform="matrix(0.008680555555555554,0,0,0.008680555555555554,32.00520833333333,0)" xlink:href="#aJ"/><use transform="matrix(0.008680555555555554,0,0,0.008680555555555554,42.67361111111111,0)" xlink:href="#aC"/><use transform="matrix(0.008680555555555554,0,0,0.008680555555555554,53.342013888888886,0)" xlink:href="#aC"/><use transform="matrix(0.008680555555555554,0,0,0.008680555555555554,64.01041666666666,0)" xlink:href="#at"/><use transform="matrix(0.008680555555555554,0,0,0.008680555555555554,74.67881944444443,0)" xlink:href="#au"/><use transform="matrix(0.008680555555555554,0,0,0.008680555555555554,85.3472222222222,0)" xlink:href="#av"/></g><path fill="#3a414a" d="M932 0L611-444 288 0H94l415-556-397-526h199l300 421 298-421h201L713-558 1133 0H932" id="aY"/><g id="N"><use transform="matrix(0.008680555555555554,0,0,0.008680555555555554,0,0)" xlink:href="#aB"/><use transform="matrix(0.008680555555555554,0,0,0.008680555555555554,10.668402777777777,0)" xlink:href="#au"/><use transform="matrix(0.008680555555555554,0,0,0.008680555555555554,21.336805555555554,0)" xlink:href="#aM"/><use transform="matrix(0.008680555555555554,0,0,0.008680555555555554,32.00520833333333,0)" xlink:href="#aK"/><use transform="matrix(0.008680555555555554,0,0,0.008680555555555554,42.67361111111111,0)" xlink:href="#ay"/><use transform="matrix(0.008680555555555554,0,0,0.008680555555555554,53.342013888888886,0)" xlink:href="#ao"/><use transform="matrix(0.008680555555555554,0,0,0.008680555555555554,64.01041666666666,0)" xlink:href="#aY"/><use transform="matrix(0.008680555555555554,0,0,0.008680555555555554,74.67881944444443,0)" xlink:href="#aN"/></g><g id="O"><use transform="matrix(0.008680555555555554,0,0,0.008680555555555554,0,0)" xlink:href="#aI"/><use transform="matrix(0.008680555555555554,0,0,0.008680555555555554,10.668402777777777,0)" xlink:href="#au"/><use transform="matrix(0.008680555555555554,0,0,0.008680555555555554,21.336805555555554,0)" xlink:href="#av"/><use transform="matrix(0.008680555555555554,0,0,0.008680555555555554,32.00520833333333,0)" xlink:href="#aS"/><use transform="matrix(0.008680555555555554,0,0,0.008680555555555554,42.67361111111111,0)" xlink:href="#ao"/><use transform="matrix(0.008680555555555554,0,0,0.008680555555555554,53.342013888888886,0)" xlink:href="#aN"/><use transform="matrix(0.008680555555555554,0,0,0.008680555555555554,64.01041666666666,0)" xlink:href="#at"/><use transform="matrix(0.008680555555555554,0,0,0.008680555555555554,74.67881944444443,0)" xlink:href="#au"/><use transform="matrix(0.008680555555555554,0,0,0.008680555555555554,85.3472222222222,0)" xlink:href="#av"/></g><g id="P"><use transform="matrix(0.008680555555555554,0,0,0.008680555555555554,0,0)" xlink:href="#aN"/><use transform="matrix(0.008680555555555554,0,0,0.008680555555555554,10.668402777777777,0)" xlink:href="#au"/><use transform="matrix(0.008680555555555554,0,0,0.008680555555555554,21.336805555555554,0)" xlink:href="#aN"/><use transform="matrix(0.008680555555555554,0,0,0.008680555555555554,32.00520833333333,0)" xlink:href="#aE"/><use transform="matrix(0.008680555555555554,0,0,0.008680555555555554,42.67361111111111,0)" xlink:href="#ao"/></g><g id="Q"><use transform="matrix(0.008680555555555554,0,0,0.008680555555555554,0,0)" xlink:href="#aM"/><use transform="matrix(0.008680555555555554,0,0,0.008680555555555554,10.668402777777777,0)" xlink:href="#aJ"/><use transform="matrix(0.008680555555555554,0,0,0.008680555555555554,21.336805555555554,0)" xlink:href="#aG"/><use transform="matrix(0.008680555555555554,0,0,0.008680555555555554,32.00520833333333,0)" xlink:href="#aN"/><use transform="matrix(0.008680555555555554,0,0,0.008680555555555554,42.67361111111111,0)" xlink:href="#ao"/><use transform="matrix(0.008680555555555554,0,0,0.008680555555555554,53.342013888888886,0)" xlink:href="#aG"/><use transform="matrix(0.008680555555555554,0,0,0.008680555555555554,64.01041666666666,0)" xlink:href="#aN"/></g><path fill="#3a414a" d="M237 0v-1349h191v1193h672V0H237" id="aZ"/><g id="R"><use transform="matrix(0.008680555555555554,0,0,0.008680555555555554,0,0)" xlink:href="#aZ"/><use transform="matrix(0.008680555555555554,0,0,0.008680555555555554,10.668402777777777,0)" xlink:href="#aJ"/><use transform="matrix(0.008680555555555554,0,0,0.008680555555555554,21.336805555555554,0)" xlink:href="#aM"/><use transform="matrix(0.008680555555555554,0,0,0.008680555555555554,32.00520833333333,0)" xlink:href="#aD"/><use transform="matrix(0.008680555555555554,0,0,0.008680555555555554,42.67361111111111,0)" xlink:href="#aN"/><use transform="matrix(0.008680555555555554,0,0,0.008680555555555554,53.342013888888886,0)" xlink:href="#au"/><use transform="matrix(0.008680555555555554,0,0,0.008680555555555554,64.01041666666666,0)" xlink:href="#aJ"/><use transform="matrix(0.008680555555555554,0,0,0.008680555555555554,74.67881944444443,0)" xlink:href="#aG"/></g><g id="S"><use transform="matrix(0.008680555555555554,0,0,0.008680555555555554,0,0)" xlink:href="#aE"/><use transform="matrix(0.008680555555555554,0,0,0.008680555555555554,10.668402777777777,0)" xlink:href="#aD"/><use transform="matrix(0.008680555555555554,0,0,0.008680555555555554,21.336805555555554,0)" xlink:href="#aN"/><use transform="matrix(0.008680555555555554,0,0,0.008680555555555554,32.00520833333333,0)" xlink:href="#aE"/><use transform="matrix(0.008680555555555554,0,0,0.008680555555555554,42.67361111111111,0)" xlink:href="#aJ"/><use transform="matrix(0.008680555555555554,0,0,0.008680555555555554,53.342013888888886,0)" xlink:href="#aG"/></g><g id="T"><use transform="matrix(0.008680555555555554,0,0,0.008680555555555554,0,0)" xlink:href="#aq"/><use transform="matrix(0.008680555555555554,0,0,0.008680555555555554,10.668402777777777,0)" xlink:href="#aU"/><use transform="matrix(0.008680555555555554,0,0,0.008680555555555554,21.336805555555554,0)" xlink:href="#aw"/><use transform="matrix(0.008680555555555554,0,0,0.008680555555555554,32.00520833333333,0)" xlink:href="#ax"/><use transform="matrix(0.008680555555555554,0,0,0.008680555555555554,42.67361111111111,0)" xlink:href="#ay"/></g><g id="U"><use transform="matrix(0.008680555555555554,0,0,0.008680555555555554,0,0)" xlink:href="#aL"/><use transform="matrix(0.008680555555555554,0,0,0.008680555555555554,10.668402777777777,0)" xlink:href="#au"/><use transform="matrix(0.008680555555555554,0,0,0.008680555555555554,21.336805555555554,0)" xlink:href="#aE"/><use transform="matrix(0.008680555555555554,0,0,0.008680555555555554,32.00520833333333,0)" xlink:href="#ao"/></g><g id="V"><use transform="matrix(0.008680555555555554,0,0,0.008680555555555554,0,0)" xlink:href="#av"/><use transform="matrix(0.008680555555555554,0,0,0.008680555555555554,10.668402777777777,0)" xlink:href="#au"/><use transform="matrix(0.008680555555555554,0,0,0.008680555555555554,21.336805555555554,0)" xlink:href="#an"/><use transform="matrix(0.008680555555555554,0,0,0.008680555555555554,32.00520833333333,0)" xlink:href="#aH"/><use transform="matrix(0.008680555555555554,0,0,0.008680555555555554,42.67361111111111,0)" xlink:href="#aE"/><use transform="matrix(0.008680555555555554,0,0,0.008680555555555554,53.342013888888886,0)" xlink:href="#aD"/><use transform="matrix(0.008680555555555554,0,0,0.008680555555555554,64.01041666666666,0)" xlink:href="#aP"/><use transform="matrix(0.008680555555555554,0,0,0.008680555555555554,74.67881944444443,0)" xlink:href="#aG"/><use transform="matrix(0.008680555555555554,0,0,0.008680555555555554,85.3472222222222,0)" xlink:href="#aD"/><use transform="matrix(0.008680555555555554,0,0,0.008680555555555554,96.01562499999997,0)" xlink:href="#aC"/><use transform="matrix(0.008680555555555554,0,0,0.008680555555555554,106.68402777777774,0)" xlink:href="#ao"/></g><g id="W"><use transform="matrix(0.008680555555555554,0,0,0.008680555555555554,0,0)" xlink:href="#aM"/><use transform="matrix(0.008680555555555554,0,0,0.008680555555555554,10.668402777777777,0)" xlink:href="#aD"/><use transform="matrix(0.008680555555555554,0,0,0.008680555555555554,21.336805555555554,0)" xlink:href="#aH"/><use transform="matrix(0.008680555555555554,0,0,0.008680555555555554,32.00520833333333,0)" xlink:href="#aN"/><use transform="matrix(0.008680555555555554,0,0,0.008680555555555554,42.67361111111111,0)" xlink:href="#au"/><use transform="matrix(0.008680555555555554,0,0,0.008680555555555554,53.342013888888886,0)" xlink:href="#aJ"/><use transform="matrix(0.008680555555555554,0,0,0.008680555555555554,64.01041666666666,0)" xlink:href="#aG"/></g><path fill="#3a414a" d="M914 0L548-499l-132 98V0H236v-1484h180v927l475-525h211L663-617 1125 0H914" id="ba"/><g id="X"><use transform="matrix(0.008680555555555554,0,0,0.008680555555555554,0,0)" xlink:href="#av"/><use transform="matrix(0.008680555555555554,0,0,0.008680555555555554,10.668402777777777,0)" xlink:href="#au"/><use transform="matrix(0.008680555555555554,0,0,0.008680555555555554,21.336805555555554,0)" xlink:href="#an"/><use transform="matrix(0.008680555555555554,0,0,0.008680555555555554,32.00520833333333,0)" xlink:href="#ba"/><use transform="matrix(0.008680555555555554,0,0,0.008680555555555554,42.67361111111111,0)" xlink:href="#aG"/><use transform="matrix(0.008680555555555554,0,0,0.008680555555555554,53.342013888888886,0)" xlink:href="#aD"/><use transform="matrix(0.008680555555555554,0,0,0.008680555555555554,64.01041666666666,0)" xlink:href="#aC"/><use transform="matrix(0.008680555555555554,0,0,0.008680555555555554,74.67881944444443,0)" xlink:href="#ao"/></g><g id="Y"><use transform="matrix(0.008680555555555554,0,0,0.008680555555555554,0,0)" xlink:href="#aZ"/><use transform="matrix(0.008680555555555554,0,0,0.008680555555555554,10.668402777777777,0)" xlink:href="#au"/><use transform="matrix(0.008680555555555554,0,0,0.008680555555555554,21.336805555555554,0)" xlink:href="#aG"/><use transform="matrix(0.008680555555555554,0,0,0.008680555555555554,32.00520833333333,0)" xlink:href="#ba"/></g><g id="Z"><use transform="matrix(0.008680555555555554,0,0,0.008680555555555554,0,0)" xlink:href="#as"/><use transform="matrix(0.008680555555555554,0,0,0.008680555555555554,10.668402777777777,0)" xlink:href="#ap"/><use transform="matrix(0.008680555555555554,0,0,0.008680555555555554,21.336805555555554,0)" xlink:href="#aE"/></g><path fill="#3a414a" d="M614-1226c-167 1-283 53-283 213 0 183 186 193 334 234 230 63 463 120 463 409 0 286-219 387-518 390C309 23 131-98 79-338l185-37c34 165 149 248 351 246 184-2 324-58 324-238 0-203-207-221-372-266-210-57-422-111-422-377 0-267 201-356 470-360 279-5 430 101 480 324l-188 33c-28-141-121-215-293-213" id="bb"/><g id="aa"><use transform="matrix(0.008680555555555554,0,0,0.008680555555555554,0,0)" xlink:href="#bb"/><use transform="matrix(0.008680555555555554,0,0,0.008680555555555554,10.668402777777777,0)" xlink:href="#aJ"/><use transform="matrix(0.008680555555555554,0,0,0.008680555555555554,21.336805555555554,0)" xlink:href="#aM"/><use transform="matrix(0.008680555555555554,0,0,0.008680555555555554,32.00520833333333,0)" xlink:href="#au"/><use transform="matrix(0.008680555555555554,0,0,0.008680555555555554,42.67361111111111,0)" xlink:href="#aD"/><use transform="matrix(0.008680555555555554,0,0,0.008680555555555554,53.342013888888886,0)" xlink:href="#aE"/></g><g id="ab"><use transform="matrix(0.008680555555555554,0,0,0.008680555555555554,0,0)" xlink:href="#aH"/><use transform="matrix(0.008680555555555554,0,0,0.008680555555555554,10.668402777777777,0)" xlink:href="#aE"/><use transform="matrix(0.008680555555555554,0,0,0.008680555555555554,21.336805555555554,0)" xlink:href="#aD"/><use transform="matrix(0.008680555555555554,0,0,0.008680555555555554,32.00520833333333,0)" xlink:href="#aN"/><use transform="matrix(0.008680555555555554,0,0,0.008680555555555554,42.67361111111111,0)" xlink:href="#aR"/><use transform="matrix(0.008680555555555554,0,0,0.008680555555555554,53.342013888888886,0)" xlink:href="#aJ"/><use transform="matrix(0.008680555555555554,0,0,0.008680555555555554,64.01041666666666,0)" xlink:href="#ap"/><use transform="matrix(0.008680555555555554,0,0,0.008680555555555554,74.67881944444443,0)" xlink:href="#aC"/></g><g id="ac"><use transform="matrix(0.008680555555555554,0,0,0.008680555555555554,0,0)" xlink:href="#as"/><use transform="matrix(0.008680555555555554,0,0,0.008680555555555554,10.668402777777777,0)" xlink:href="#an"/><use transform="matrix(0.008680555555555554,0,0,0.008680555555555554,21.336805555555554,0)" xlink:href="#ao"/><use transform="matrix(0.008680555555555554,0,0,0.008680555555555554,32.00520833333333,0)" xlink:href="#ap"/><use transform="matrix(0.008680555555555554,0,0,0.008680555555555554,42.67361111111111,0)" xlink:href="#aG"/><use transform="matrix(0.008680555555555554,0,0,0.008680555555555554,53.342013888888886,0)" xlink:href="#aD"/><use transform="matrix(0.008680555555555554,0,0,0.008680555555555554,64.01041666666666,0)" xlink:href="#aC"/><use transform="matrix(0.008680555555555554,0,0,0.008680555555555554,74.67881944444443,0)" xlink:href="#ao"/></g><g id="ad"><use transform="matrix(0.008680555555555554,0,0,0.008680555555555554,0,0)" xlink:href="#aX"/><use transform="matrix(0.008680555555555554,0,0,0.008680555555555554,10.668402777777777,0)" xlink:href="#aG"/><use transform="matrix(0.008680555555555554,0,0,0.008680555555555554,21.336805555555554,0)" xlink:href="#aG"/><use transform="matrix(0.008680555555555554,0,0,0.008680555555555554,32.00520833333333,0)" xlink:href="#aJ"/><use transform="matrix(0.008680555555555554,0,0,0.008680555555555554,42.67361111111111,0)" xlink:href="#as"/><use transform="matrix(0.008680555555555554,0,0,0.008680555555555554,53.342013888888886,0)" xlink:href="#aG"/><use transform="matrix(0.008680555555555554,0,0,0.008680555555555554,64.01041666666666,0)" xlink:href="#aM"/><use transform="matrix(0.008680555555555554,0,0,0.008680555555555554,74.67881944444443,0)" xlink:href="#ao"/><use transform="matrix(0.008680555555555554,0,0,0.008680555555555554,85.3472222222222,0)" xlink:href="#aC"/><use transform="matrix(0.008680555555555554,0,0,0.008680555555555554,96.01562499999997,0)" xlink:href="#ao"/><use transform="matrix(0.008680555555555554,0,0,0.008680555555555554,106.68402777777774,0)" xlink:href="#aG"/><use transform="matrix(0.008680555555555554,0,0,0.008680555555555554,117.35243055555551,0)" xlink:href="#aN"/></g><g id="ae"><use transform="matrix(0.008680555555555554,0,0,0.008680555555555554,0,0)" xlink:href="#ao"/><use transform="matrix(0.008680555555555554,0,0,0.008680555555555554,10.668402777777777,0)" xlink:href="#aY"/><use transform="matrix(0.008680555555555554,0,0,0.008680555555555554,21.336805555555554,0)" xlink:href="#aH"/><use transform="matrix(0.008680555555555554,0,0,0.008680555555555554,32.00520833333333,0)" xlink:href="#au"/><use transform="matrix(0.008680555555555554,0,0,0.008680555555555554,42.67361111111111,0)" xlink:href="#ap"/><use transform="matrix(0.008680555555555554,0,0,0.008680555555555554,53.342013888888886,0)" xlink:href="#aP"/></g><g id="af"><use transform="matrix(0.008680555555555554,0,0,0.008680555555555554,0,0)" xlink:href="#aV"/><use transform="matrix(0.008680555555555554,0,0,0.008680555555555554,10.668402777777777,0)" xlink:href="#aJ"/><use transform="matrix(0.008680555555555554,0,0,0.008680555555555554,21.336805555555554,0)" xlink:href="#as"/><use transform="matrix(0.008680555555555554,0,0,0.008680555555555554,32.00520833333333,0)" xlink:href="#ap"/><use transform="matrix(0.008680555555555554,0,0,0.008680555555555554,42.67361111111111,0)" xlink:href="#an"/><use transform="matrix(0.008680555555555554,0,0,0.008680555555555554,53.342013888888886,0)" xlink:href="#ao"/></g><g id="ag"><use transform="matrix(0.008680555555555554,0,0,0.008680555555555554,0,0)" xlink:href="#aM"/><use transform="matrix(0.008680555555555554,0,0,0.008680555555555554,10.668402777777777,0)" xlink:href="#aJ"/><use transform="matrix(0.008680555555555554,0,0,0.008680555555555554,21.336805555555554,0)" xlink:href="#as"/><use transform="matrix(0.008680555555555554,0,0,0.008680555555555554,32.00520833333333,0)" xlink:href="#ap"/><use transform="matrix(0.008680555555555554,0,0,0.008680555555555554,42.67361111111111,0)" xlink:href="#an"/><use transform="matrix(0.008680555555555554,0,0,0.008680555555555554,53.342013888888886,0)" xlink:href="#ao"/><use transform="matrix(0.008680555555555554,0,0,0.008680555555555554,64.01041666666666,0)" xlink:href="#at"/><use transform="matrix(0.008680555555555554,0,0,0.008680555555555554,74.67881944444443,0)" xlink:href="#au"/><use transform="matrix(0.008680555555555554,0,0,0.008680555555555554,85.3472222222222,0)" xlink:href="#av"/></g><g id="ah"><use transform="matrix(0.008680555555555554,0,0,0.008680555555555554,0,0)" xlink:href="#am"/><use transform="matrix(0.008680555555555554,0,0,0.008680555555555554,10.668402777777777,0)" xlink:href="#an"/><use transform="matrix(0.008680555555555554,0,0,0.008680555555555554,21.336805555555554,0)" xlink:href="#ao"/><use transform="matrix(0.008680555555555554,0,0,0.008680555555555554,32.00520833333333,0)" xlink:href="#ap"/><use transform="matrix(0.008680555555555554,0,0,0.008680555555555554,42.67361111111111,0)" xlink:href="#aU"/><use transform="matrix(0.008680555555555554,0,0,0.008680555555555554,53.342013888888886,0)" xlink:href="#aG"/><use transform="matrix(0.008680555555555554,0,0,0.008680555555555554,64.01041666666666,0)" xlink:href="#aV"/><use transform="matrix(0.008680555555555554,0,0,0.008680555555555554,74.67881944444443,0)" xlink:href="#aJ"/><use transform="matrix(0.008680555555555554,0,0,0.008680555555555554,85.3472222222222,0)" xlink:href="#as"/><use transform="matrix(0.008680555555555554,0,0,0.008680555555555554,96.01562499999997,0)" xlink:href="#ap"/><use transform="matrix(0.008680555555555554,0,0,0.008680555555555554,106.68402777777774,0)" xlink:href="#an"/><use transform="matrix(0.008680555555555554,0,0,0.008680555555555554,117.35243055555551,0)" xlink:href="#ao"/></g><g id="ai"><use transform="matrix(0.008680555555555554,0,0,0.008680555555555554,0,0)" xlink:href="#aV"/><use transform="matrix(0.008680555555555554,0,0,0.008680555555555554,10.668402777777777,0)" xlink:href="#aJ"/><use transform="matrix(0.008680555555555554,0,0,0.008680555555555554,21.336805555555554,0)" xlink:href="#as"/><use transform="matrix(0.008680555555555554,0,0,0.008680555555555554,32.00520833333333,0)" xlink:href="#ap"/><use transform="matrix(0.008680555555555554,0,0,0.008680555555555554,42.67361111111111,0)" xlink:href="#an"/><use transform="matrix(0.008680555555555554,0,0,0.008680555555555554,53.342013888888886,0)" xlink:href="#ao"/></g><g id="aj"><use transform="matrix(0.008680555555555554,0,0,0.008680555555555554,0,0)" xlink:href="#aq"/><use transform="matrix(0.008680555555555554,0,0,0.008680555555555554,10.668402777777777,0)" xlink:href="#ar"/></g><g id="ak"><use transform="matrix(0.008680555555555554,0,0,0.008680555555555554,0,0)" xlink:href="#aM"/><use transform="matrix(0.008680555555555554,0,0,0.008680555555555554,10.668402777777777,0)" xlink:href="#aJ"/><use transform="matrix(0.008680555555555554,0,0,0.008680555555555554,21.336805555555554,0)" xlink:href="#as"/><use transform="matrix(0.008680555555555554,0,0,0.008680555555555554,32.00520833333333,0)" xlink:href="#ap"/><use transform="matrix(0.008680555555555554,0,0,0.008680555555555554,42.67361111111111,0)" xlink:href="#an"/><use transform="matrix(0.008680555555555554,0,0,0.008680555555555554,53.342013888888886,0)" xlink:href="#ao"/><use transform="matrix(0.008680555555555554,0,0,0.008680555555555554,64.01041666666666,0)" xlink:href="#at"/><use transform="matrix(0.008680555555555554,0,0,0.008680555555555554,74.67881944444443,0)" xlink:href="#au"/><use transform="matrix(0.008680555555555554,0,0,0.008680555555555554,85.3472222222222,0)" xlink:href="#av"/></g><g id="al"><use transform="matrix(0.008680555555555554,0,0,0.008680555555555554,0,0)" xlink:href="#aG"/><use transform="matrix(0.008680555555555554,0,0,0.008680555555555554,10.668402777777777,0)" xlink:href="#aD"/><use transform="matrix(0.008680555555555554,0,0,0.008680555555555554,21.336805555555554,0)" xlink:href="#aC"/><use transform="matrix(0.008680555555555554,0,0,0.008680555555555554,32.00520833333333,0)" xlink:href="#ao"/></g></defs></g></svg>
